STARTFONT 2.1
FONT -ADECW-Fangsongti-Medium-R-Normal--24-240-75-75-M-240-GB2312.1980-1
SIZE 24 75 75
FONTBOUNDINGBOX 24 24 0 -6

STARTPROPERTIES 26
FONTNAME_REGISTRY ""
FAMILY_NAME "Fangsongti"
FOUNDRY "ADECW"
WEIGHT_NAME "Medium"
SLANT "R"
SETWIDTH_NAME "Normal"
ADD_STYLE_NAME ""
PIXEL_SIZE 24
POINT_SIZE 240
RESOLUTION_X 75
RESOLUTION_Y 75
SPACING "M"
AVERAGE_WIDTH 240
CHARSET_REGISTRY "GB2312.1980"
CHARSET_ENCODING "1"
DEVICE_FONT_NAME "Fangsongti-GB2312.1980-1"
CHARSET_COLLECTIONS "GB2312.1980 1"
FULL_NAME "Fangsongti GB2312.1980 1"
COPYRIGHT "Copyright (c) 1991 Digital Equipment Corporation Asia."
CAP_HEIGHT 17
X_HEIGHT 12
WEIGHT 10
QUAD_WIDTH 24
DEFAULT_CHAR 65021
FONT_DESCENT 6
FONT_ASCENT 18
ENDPROPERTIES

CHARS 7446

STARTCHAR A1A1
ENCODING 41377
SWIDTH 960 0
DWIDTH 24 0
BBX 24 24 0 -6
BITMAP
000000
000000
000000
000000
000000
000000
000000
000000
000000
000000
000000
000000
000000
000000
000000
000000
000000
000000
000000
000000
000000
000000
000000
000000
ENDCHAR

STARTCHAR A1A2
ENCODING 41378
SWIDTH 960 0
DWIDTH 24 0
BBX 24 24 0 -6
BITMAP
000000
000000
000000
000000
000000
000000
000000
000000
000000
000000
000000
000000
000000
000000
000000
100000
0C0000
070000
038000
018000
018000
000000
000000
000000
ENDCHAR

STARTCHAR A1A3
ENCODING 41379
SWIDTH 960 0
DWIDTH 24 0
BBX 24 24 0 -6
BITMAP
000000
000000
000000
000000
000000
000000
000000
000000
000000
000000
000000
000000
000000
000000
000000
000000
000000
060000
090000
090000
060000
000000
000000
000000
ENDCHAR

STARTCHAR A1A4
ENCODING 41380
SWIDTH 960 0
DWIDTH 24 0
BBX 24 24 0 -6
BITMAP
000000
000000
000000
000000
000000
000000
000000
000000
000000
000000
001800
003C00
003C00
001800
000000
000000
000000
000000
000000
000000
000000
000000
000000
000000
ENDCHAR

STARTCHAR A1A5
ENCODING 41381
SWIDTH 960 0
DWIDTH 24 0
BBX 24 24 0 -6
BITMAP
000000
000000
000000
000000
000000
00FF00
000000
000000
000000
000000
000000
000000
000000
000000
000000
000000
000000
000000
000000
000000
000000
000000
000000
000000
ENDCHAR

STARTCHAR A1A6
ENCODING 41382
SWIDTH 960 0
DWIDTH 24 0
BBX 24 24 0 -6
BITMAP
000000
000000
000000
008200
004400
002800
001000
000000
000000
000000
000000
000000
000000
000000
000000
000000
000000
000000
000000
000000
000000
000000
000000
000000
ENDCHAR

STARTCHAR A1A7
ENCODING 41383
SWIDTH 960 0
DWIDTH 24 0
BBX 24 24 0 -6
BITMAP
000000
000000
000000
000000
008100
01C380
01C380
008100
000000
000000
000000
000000
000000
000000
000000
000000
000000
000000
000000
000000
000000
000000
000000
000000
ENDCHAR

STARTCHAR A1A8
ENCODING 41384
SWIDTH 960 0
DWIDTH 24 0
BBX 24 24 0 -6
BITMAP
000000
000000
000000
000000
000000
000000
000000
000000
004100
00E380
00C300
018600
018600
030C00
030C00
061800
041000
000000
000000
000000
000000
000000
000000
000000
ENDCHAR

STARTCHAR A1A9
ENCODING 41385
SWIDTH 960 0
DWIDTH 24 0
BBX 24 24 0 -6
BITMAP
000000
000000
000000
004000
007000
006000
00C000
00C0C0
01FFE0
0180C0
030180
020180
040300
080300
008600
006400
003800
001C00
000E00
000700
000300
000200
000000
000000
ENDCHAR

STARTCHAR A1AA
ENCODING 41386
SWIDTH 960 0
DWIDTH 24 0
BBX 24 24 0 -6
BITMAP
000000
000000
000000
000000
000000
000000
000000
000000
000000
000000
000000
1FFFF8
000000
000000
000000
000000
000000
000000
000000
000000
000000
000000
000000
000000
ENDCHAR

STARTCHAR A1AB
ENCODING 41387
SWIDTH 960 0
DWIDTH 24 0
BBX 24 24 0 -6
BITMAP
000000
000000
000000
000000
000000
000000
000000
000000
000000
078000
0FE000
307800
001E0C
0007F0
0001E0
000000
000000
000000
000000
000000
000000
000000
000000
000000
ENDCHAR

STARTCHAR A1AC
ENCODING 41388
SWIDTH 960 0
DWIDTH 24 0
BBX 24 24 0 -6
BITMAP
000000
000000
000000
004200
004200
004200
004200
004200
004200
004200
004200
004200
004200
004200
004200
004200
004200
004200
004200
004200
004200
000000
000000
000000
ENDCHAR

STARTCHAR A1AD
ENCODING 41389
SWIDTH 960 0
DWIDTH 24 0
BBX 24 24 0 -6
BITMAP
000000
000000
000000
000000
000000
000000
000000
000000
000000
000000
181818
3C3C3C
3C3C3C
181818
000000
000000
000000
000000
000000
000000
000000
000000
000000
000000
ENDCHAR

STARTCHAR A1AE
ENCODING 41390
SWIDTH 960 0
DWIDTH 24 0
BBX 24 24 0 -6
BITMAP
000000
000000
000008
000010
000020
000060
0000C0
0000E0
0000E0
000040
000000
000000
000000
000000
000000
000000
000000
000000
000000
000000
000000
000000
000000
000000
ENDCHAR

STARTCHAR A1AF
ENCODING 41391
SWIDTH 960 0
DWIDTH 24 0
BBX 24 24 0 -6
BITMAP
000000
000000
020000
070000
070000
030000
060000
040000
080000
100000
000000
000000
000000
000000
000000
000000
000000
000000
000000
000000
000000
000000
000000
000000
ENDCHAR

STARTCHAR A1B0
ENCODING 41392
SWIDTH 960 0
DWIDTH 24 0
BBX 24 24 0 -6
BITMAP
000000
000000
000042
000084
000108
000318
000630
000738
000738
000210
000000
000000
000000
000000
000000
000000
000000
000000
000000
000000
000000
000000
000000
000000
ENDCHAR

STARTCHAR A1B1
ENCODING 41393
SWIDTH 960 0
DWIDTH 24 0
BBX 24 24 0 -6
BITMAP
000000
000000
084000
1CE000
1CE000
0C6000
18C000
108000
210000
420000
000000
000000
000000
000000
000000
000000
000000
000000
000000
000000
000000
000000
000000
000000
ENDCHAR

STARTCHAR A1B2
ENCODING 41394
SWIDTH 960 0
DWIDTH 24 0
BBX 24 24 0 -6
BITMAP
000000
000010
000020
000040
000080
000080
000080
000080
000080
000080
000080
000080
000080
000080
000080
000080
000080
000080
000080
000080
000040
000020
000010
000000
ENDCHAR

STARTCHAR A1B3
ENCODING 41395
SWIDTH 960 0
DWIDTH 24 0
BBX 24 24 0 -6
BITMAP
000000
080000
040000
020000
010000
010000
010000
010000
010000
010000
010000
010000
010000
010000
010000
010000
010000
010000
010000
010000
020000
040000
080000
000000
ENDCHAR

STARTCHAR A1B4
ENCODING 41396
SWIDTH 960 0
DWIDTH 24 0
BBX 24 24 0 -6
BITMAP
000000
000010
000010
000020
000020
000040
000040
000080
000080
000100
000100
000200
000200
000100
000100
000080
000080
000040
000040
000020
000020
000010
000010
000000
ENDCHAR

STARTCHAR A1B5
ENCODING 41397
SWIDTH 960 0
DWIDTH 24 0
BBX 24 24 0 -6
BITMAP
000000
080000
080000
040000
040000
020000
020000
010000
010000
008000
008000
004000
004000
008000
008000
010000
010000
020000
020000
040000
040000
080000
080000
000000
ENDCHAR

STARTCHAR A1B6
ENCODING 41398
SWIDTH 960 0
DWIDTH 24 0
BBX 24 24 0 -6
BITMAP
000000
000012
000012
000024
000024
000048
000048
000090
000090
000120
000120
000240
000240
000120
000120
000090
000090
000048
000048
000024
000024
000012
000012
000000
ENDCHAR

STARTCHAR A1B7
ENCODING 41399
SWIDTH 960 0
DWIDTH 24 0
BBX 24 24 0 -6
BITMAP
000000
480000
480000
240000
240000
120000
120000
090000
090000
048000
048000
024000
024000
048000
048000
090000
090000
120000
120000
240000
240000
480000
480000
000000
ENDCHAR

STARTCHAR A1B8
ENCODING 41400
SWIDTH 960 0
DWIDTH 24 0
BBX 24 24 0 -6
BITMAP
000000
0001FC
000100
000100
000100
000100
000100
000100
000100
000100
000100
000100
000100
000100
000100
000100
000100
000100
000100
000100
000000
000000
000000
000000
ENDCHAR

STARTCHAR A1B9
ENCODING 41401
SWIDTH 960 0
DWIDTH 24 0
BBX 24 24 0 -6
BITMAP
000000
000000
000000
000000
008000
008000
008000
008000
008000
008000
008000
008000
008000
008000
008000
008000
008000
008000
008000
008000
008000
008000
3F8000
000000
ENDCHAR

STARTCHAR A1BA
ENCODING 41402
SWIDTH 960 0
DWIDTH 24 0
BBX 24 24 0 -6
BITMAP
000000
0003FC
000204
000204
00027C
000240
000240
000240
000240
000240
000240
000240
000240
000240
000240
000240
000240
000240
000240
0003C0
000000
000000
000000
000000
ENDCHAR

STARTCHAR A1BB
ENCODING 41403
SWIDTH 960 0
DWIDTH 24 0
BBX 24 24 0 -6
BITMAP
000000
000000
000000
000000
03C000
024000
024000
024000
024000
024000
024000
024000
024000
024000
024000
024000
024000
024000
024000
3E4000
204000
204000
3FC000
000000
ENDCHAR

STARTCHAR A1BC
ENCODING 41404
SWIDTH 960 0
DWIDTH 24 0
BBX 24 24 0 -6
BITMAP
000000
0003FC
000208
000210
000210
000210
000220
000220
000220
000240
000240
000240
000240
000240
000240
000220
000220
000220
000210
000210
000210
000208
0003FC
000000
ENDCHAR

STARTCHAR A1BD
ENCODING 41405
SWIDTH 960 0
DWIDTH 24 0
BBX 24 24 0 -6
BITMAP
000000
3FC000
104000
084000
084000
084000
044000
044000
044000
024000
024000
024000
024000
024000
024000
044000
044000
044000
084000
084000
084000
104000
3FC000
000000
ENDCHAR

STARTCHAR A1BE
ENCODING 41406
SWIDTH 960 0
DWIDTH 24 0
BBX 24 24 0 -6
BITMAP
000000
0003FC
0003F8
0003F0
0003F0
0003F0
0003E0
0003E0
0003E0
0003C0
0003C0
0003C0
0003C0
0003C0
0003C0
0003E0
0003E0
0003E0
0003F0
0003F0
0003F0
0003F8
0003FC
000000
ENDCHAR

STARTCHAR A1BF
ENCODING 41407
SWIDTH 960 0
DWIDTH 24 0
BBX 24 24 0 -6
BITMAP
000000
3FC000
1FC000
0FC000
0FC000
0FC000
07C000
07C000
07C000
03C000
03C000
03C000
03C000
03C000
03C000
07C000
07C000
07C000
0FC000
0FC000
0FC000
1FC000
3FC000
000000
ENDCHAR

STARTCHAR A1C0
ENCODING 41408
SWIDTH 960 0
DWIDTH 24 0
BBX 24 24 0 -6
BITMAP
000000
000000
000000
001000
001000
001000
001000
001000
001000
001000
1FFFF0
001000
001000
001000
001000
001000
001000
000000
000000
1FFFF0
000000
000000
000000
000000
ENDCHAR

STARTCHAR A1C1
ENCODING 41409
SWIDTH 960 0
DWIDTH 24 0
BBX 24 24 0 -6
BITMAP
000000
000000
000000
000000
080010
040020
020040
010080
008100
004200
002400
001800
001800
002400
004200
008100
010080
020040
040020
080010
000000
000000
000000
000000
ENDCHAR

STARTCHAR A1C2
ENCODING 41410
SWIDTH 960 0
DWIDTH 24 0
BBX 24 24 0 -6
BITMAP
000000
000000
000000
000000
001000
003800
003800
001000
000000
000000
000000
1FFFF0
000000
000000
000000
001000
003800
003800
001000
000000
000000
000000
000000
000000
ENDCHAR

STARTCHAR A1C3
ENCODING 41411
SWIDTH 960 0
DWIDTH 24 0
BBX 24 24 0 -6
BITMAP
000000
000000
000000
000000
001800
003C00
003C00
001800
000000
000000
000000
000000
000000
000000
000000
000000
001800
003C00
003C00
001800
000000
000000
000000
000000
ENDCHAR

STARTCHAR A1C4
ENCODING 41412
SWIDTH 960 0
DWIDTH 24 0
BBX 24 24 0 -6
BITMAP
000000
000000
001000
002800
002800
004400
004400
008200
008200
010100
010100
020080
020080
040040
040040
080020
080020
100010
100010
200008
200008
000000
000000
000000
ENDCHAR

STARTCHAR A1C5
ENCODING 41413
SWIDTH 960 0
DWIDTH 24 0
BBX 24 24 0 -6
BITMAP
000000
000000
000000
200008
200008
100010
100010
080020
080020
040040
040040
020080
020080
010100
010100
008200
008200
004400
004400
002800
002800
001000
000000
000000
ENDCHAR

STARTCHAR A1C6
ENCODING 41414
SWIDTH 960 0
DWIDTH 24 0
BBX 24 24 0 -6
BITMAP
000000
000000
3FFFFC
300004
380004
1C0004
0E0000
070000
038000
01C000
00E000
007000
002000
004000
008000
010000
020000
040004
080004
100004
3FFFFC
3FFFFC
000000
000000
ENDCHAR

STARTCHAR A1C7
ENCODING 41415
SWIDTH 960 0
DWIDTH 24 0
BBX 24 24 0 -6
BITMAP
000000
000000
7FFFFE
060060
060060
060060
060060
060060
060060
060060
060060
060060
060060
060060
060060
060060
060060
060060
060060
060060
060060
3FC3FC
000000
000000
ENDCHAR

STARTCHAR A1C8
ENCODING 41416
SWIDTH 960 0
DWIDTH 24 0
BBX 24 24 0 -6
BITMAP
000000
000000
040020
040020
040020
040020
040020
040020
040020
040020
040020
040020
040020
040020
040020
040020
040020
040020
020040
020040
018180
007E00
000000
000000
ENDCHAR

STARTCHAR A1C9
ENCODING 41417
SWIDTH 960 0
DWIDTH 24 0
BBX 24 24 0 -6
BITMAP
000000
000000
007E00
018180
020040
020040
040020
040020
040020
040020
040020
040020
040020
040020
040020
040020
040020
040020
040020
040020
040020
040020
000000
000000
ENDCHAR

STARTCHAR A1CA
ENCODING 41418
SWIDTH 960 0
DWIDTH 24 0
BBX 24 24 0 -6
BITMAP
000000
000000
000380
000C00
003000
004000
004000
008000
008000
010000
010000
01FF80
010000
010000
010000
008000
008000
004000
004000
003000
000C00
000380
000000
000000
ENDCHAR

STARTCHAR A1CB
ENCODING 41419
SWIDTH 960 0
DWIDTH 24 0
BBX 24 24 0 -6
BITMAP
000000
000000
000000
000000
060060
0F00F0
0F00F0
060060
000000
000000
000000
000000
000000
000000
000000
000000
060060
0F00F0
0F00F0
060060
000000
000000
000000
000000
ENDCHAR

STARTCHAR A1CC
ENCODING 41420
SWIDTH 960 0
DWIDTH 24 0
BBX 24 24 0 -6
BITMAP
000000
000000
000002
000002
000004
000008
000008
000010
000010
000020
000040
000040
000080
100100
180100
2C0200
460200
030400
018800
00C800
007000
002000
000000
000000
ENDCHAR

STARTCHAR A1CD
ENCODING 41421
SWIDTH 960 0
DWIDTH 24 0
BBX 24 24 0 -6
BITMAP
000000
000000
001000
001000
001000
001000
001000
001000
001000
001000
001000
001000
001000
001000
001000
001000
001000
001000
001000
001000
001000
1FFFF8
000000
000000
ENDCHAR

STARTCHAR A1CE
ENCODING 41422
SWIDTH 960 0
DWIDTH 24 0
BBX 24 24 0 -6
BITMAP
000000
000000
000000
002040
002040
002040
004080
004080
004080
008100
008100
008100
010200
010200
010200
020400
020400
020400
040800
040800
040800
000000
000000
000000
ENDCHAR

STARTCHAR A1CF
ENCODING 41423
SWIDTH 960 0
DWIDTH 24 0
BBX 24 24 0 -6
BITMAP
000000
000000
000000
000008
000010
000020
000040
000080
000100
000200
000400
000800
001000
002000
004000
008000
010000
020000
040000
080000
100000
3FFFF8
000000
000000
ENDCHAR

STARTCHAR A1D0
ENCODING 41424
SWIDTH 960 0
DWIDTH 24 0
BBX 24 24 0 -6
BITMAP
000000
000000
000000
000000
000000
000000
007E00
018180
060060
080010
080010
100008
100008
200004
200004
200004
000000
000000
000000
000000
000000
000000
000000
000000
ENDCHAR

STARTCHAR A1D1
ENCODING 41425
SWIDTH 960 0
DWIDTH 24 0
BBX 24 24 0 -6
BITMAP
000000
000000
007E00
018180
060060
080010
080010
100008
100008
200004
201804
203C04
203C04
201804
200004
100008
100008
080010
080010
060060
018180
007E00
000000
000000
ENDCHAR

STARTCHAR A1D2
ENCODING 41426
SWIDTH 960 0
DWIDTH 24 0
BBX 24 24 0 -6
BITMAP
000000
000180
000240
000460
000460
000800
000800
000800
000800
000800
000800
000800
001000
001000
001000
001000
001000
001000
001000
062000
062000
024000
018000
000000
ENDCHAR

STARTCHAR A1D3
ENCODING 41427
SWIDTH 960 0
DWIDTH 24 0
BBX 24 24 0 -6
BITMAP
000000
000180
000240
000460
000460
000800
000800
000800
003C00
004A00
008900
008900
009100
009100
005200
003C00
001000
001000
001000
062000
062000
024000
018000
000000
ENDCHAR

STARTCHAR A1D4
ENCODING 41428
SWIDTH 960 0
DWIDTH 24 0
BBX 24 24 0 -6
BITMAP
000000
000000
000000
000000
000000
000000
000000
1FFFF8
000000
000000
000000
1FFFF8
000000
000000
000000
1FFFF8
000000
000000
000000
000000
000000
000000
000000
000000
ENDCHAR

STARTCHAR A1D5
ENCODING 41429
SWIDTH 960 0
DWIDTH 24 0
BBX 24 24 0 -6
BITMAP
000000
000000
000000
000000
0E00F0
100308
200404
200804
201004
202004
10C008
0F0070
000000
000000
3FFFFC
000000
000000
000000
3FFFFC
000000
000000
000000
000000
000000
ENDCHAR

STARTCHAR A1D6
ENCODING 41430
SWIDTH 960 0
DWIDTH 24 0
BBX 24 24 0 -6
BITMAP
000000
000000
000000
000000
000000
000000
038000
0FE004
303818
400FE0
000380
000000
000000
038000
0FE004
303818
400FE0
000380
000000
000000
000000
000000
000000
000000
ENDCHAR

STARTCHAR A1D7
ENCODING 41431
SWIDTH 960 0
DWIDTH 24 0
BBX 24 24 0 -6
BITMAP
000000
000000
000000
000000
000000
000000
000000
000000
0E00F0
100308
200404
200804
201004
202004
10C008
0F0070
000000
000000
000000
000000
000000
000000
000000
000000
ENDCHAR

STARTCHAR A1D8
ENCODING 41432
SWIDTH 960 0
DWIDTH 24 0
BBX 24 24 0 -6
BITMAP
000000
000000
000000
000000
000000
000000
000000
000000
07C0F8
082104
101200
100C00
100C00
101200
082104
07C0F8
000000
000000
000000
000000
000000
000000
000000
000000
ENDCHAR

STARTCHAR A1D9
ENCODING 41433
SWIDTH 960 0
DWIDTH 24 0
BBX 24 24 0 -6
BITMAP
000000
000000
000080
000080
000100
000100
000200
3FFFFC
000400
000400
000800
000800
001000
001000
002000
3FFFFC
004000
004000
008000
008000
010000
010000
000000
000000
ENDCHAR

STARTCHAR A1DA
ENCODING 41434
SWIDTH 960 0
DWIDTH 24 0
BBX 24 24 0 -6
BITMAP
000000
000000
000000
000800
000800
00081C
0008E0
000F00
003800
00C800
030800
0C0800
300800
0C0800
030800
00C800
003800
000F00
0008E0
00081C
000800
000800
000000
000000
ENDCHAR

STARTCHAR A1DB
ENCODING 41435
SWIDTH 960 0
DWIDTH 24 0
BBX 24 24 0 -6
BITMAP
000000
000000
000000
001000
001000
381000
071000
00F000
001C00
001300
0010C0
001030
00100C
001030
0010C0
001300
001C00
00F000
071000
381000
001000
001000
000000
000000
ENDCHAR

STARTCHAR A1DC
ENCODING 41436
SWIDTH 960 0
DWIDTH 24 0
BBX 24 24 0 -6
BITMAP
000000
000000
000000
00000C
000070
000380
000C00
007000
038000
0C0000
300000
0C0000
038000
307000
0C0C00
038380
007070
000C0C
000380
000070
00000C
000000
000000
000000
ENDCHAR

STARTCHAR A1DD
ENCODING 41437
SWIDTH 960 0
DWIDTH 24 0
BBX 24 24 0 -6
BITMAP
000000
000000
000000
300000
0E0000
01C000
003000
000E00
0001C0
000030
00000C
000030
0001C0
000E0C
003030
01C1C0
0E0E00
303000
01C000
0E0000
300000
000000
000000
000000
ENDCHAR

STARTCHAR A1DE
ENCODING 41438
SWIDTH 960 0
DWIDTH 24 0
BBX 24 24 0 -6
BITMAP
000000
000000
000000
000000
000000
000000
000000
000000
0F81F0
104208
202404
201804
201804
202404
104208
0F81F0
000000
000000
000000
000000
000000
000000
000000
000000
ENDCHAR

STARTCHAR A1DF
ENCODING 41439
SWIDTH 960 0
DWIDTH 24 0
BBX 24 24 0 -6
BITMAP
000000
000000
000000
000000
000000
060060
0F00F0
0F00F0
060060
000000
000000
000000
000000
000000
000000
001800
003C00
003C00
001800
000000
000000
000000
000000
000000
ENDCHAR

STARTCHAR A1E0
ENCODING 41440
SWIDTH 960 0
DWIDTH 24 0
BBX 24 24 0 -6
BITMAP
000000
000000
000000
000000
000000
001800
003C00
003C00
001800
000000
000000
000000
000000
000000
000000
060060
0F00F0
0F00F0
060060
000000
000000
000000
000000
000000
ENDCHAR

STARTCHAR A1E1
ENCODING 41441
SWIDTH 960 0
DWIDTH 24 0
BBX 24 24 0 -6
BITMAP
000000
001000
003800
005400
009200
011100
021080
001000
001000
001000
001000
001000
001000
007C00
008200
010100
010100
010100
010100
010100
008200
007C00
000000
000000
ENDCHAR

STARTCHAR A1E2
ENCODING 41442
SWIDTH 960 0
DWIDTH 24 0
BBX 24 24 0 -6
BITMAP
000000
000000
007C00
008200
010100
010100
010100
010100
010100
008200
007C00
001000
001000
001000
001000
0FFFE0
001000
001000
001000
001000
001000
001000
001000
000000
ENDCHAR

STARTCHAR A1E3
ENCODING 41443
SWIDTH 960 0
DWIDTH 24 0
BBX 24 24 0 -6
BITMAP
000000
000000
070000
088000
104000
104000
104000
088000
070000
000000
000000
000000
000000
000000
000000
000000
000000
000000
000000
000000
000000
000000
000000
000000
ENDCHAR

STARTCHAR A1E4
ENCODING 41444
SWIDTH 960 0
DWIDTH 24 0
BBX 24 24 0 -6
BITMAP
000000
000000
001000
003800
003000
006000
006000
00C000
00C000
018000
010000
000000
000000
000000
000000
000000
000000
000000
000000
000000
000000
000000
000000
000000
ENDCHAR

STARTCHAR A1E5
ENCODING 41445
SWIDTH 960 0
DWIDTH 24 0
BBX 24 24 0 -6
BITMAP
000000
000000
004200
00E700
00C600
018C00
018C00
031800
031800
063000
042000
000000
000000
000000
000000
000000
000000
000000
000000
000000
000000
000000
000000
000000
ENDCHAR

STARTCHAR A1E6
ENCODING 41446
SWIDTH 960 0
DWIDTH 24 0
BBX 24 24 0 -6
BITMAP
000000
000000
180FC4
243034
24601C
18C00C
00C004
018004
018004
018000
018000
018000
018000
018000
018000
018000
018000
00C004
00C004
006008
003010
000FE0
000000
000000
ENDCHAR

STARTCHAR A1E7
ENCODING 41447
SWIDTH 960 0
DWIDTH 24 0
BBX 24 24 0 -6
BITMAP
000000
000800
000840
00FE40
0189C0
0308C0
030840
030800
018800
00C800
006800
003C00
000F00
000980
0008C0
000860
040860
040860
060860
0588C0
047F00
000800
000800
000000
ENDCHAR

STARTCHAR A1E8
ENCODING 41448
SWIDTH 960 0
DWIDTH 24 0
BBX 24 24 0 -6
BITMAP
000000
000000
100008
083C10
04C320
0300C0
040020
040020
080010
080010
100008
100008
100008
100008
080010
080010
040020
040020
0300C0
04C320
083C10
100008
000000
000000
ENDCHAR

STARTCHAR A1E9
ENCODING 41449
SWIDTH 960 0
DWIDTH 24 0
BBX 24 24 0 -6
BITMAP
000000
000040
000040
003F90
00C0D0
018170
030130
030210
060210
060400
060400
060800
060800
061000
061000
062000
032010
034010
01C030
00C060
00BF80
010000
010000
000000
ENDCHAR

STARTCHAR A1EA
ENCODING 41450
SWIDTH 960 0
DWIDTH 24 0
BBX 24 24 0 -6
BITMAP
000000
000000
000F80
001840
003060
006060
006000
006000
006000
006000
03FF80
003000
003000
003000
003000
003000
073010
08B010
106020
107060
08BFC0
070F80
000000
000000
ENDCHAR

STARTCHAR A1EB
ENCODING 41451
SWIDTH 960 0
DWIDTH 24 0
BBX 24 24 0 -6
BITMAP
000000
000080
000100
1C0200
220400
220400
220800
221000
221000
222000
224000
224000
1C9C38
012244
012244
022244
042244
042244
082244
102244
102244
201C38
400000
000000
ENDCHAR

STARTCHAR A1EC
ENCODING 41452
SWIDTH 960 0
DWIDTH 24 0
BBX 24 24 0 -6
BITMAP
000000
003C00
004200
008300
008300
004000
006000
003000
007800
008C00
008600
008300
00C100
006100
003100
001E00
000600
000200
00C100
00C100
008100
004200
003C00
000000
ENDCHAR

STARTCHAR A1ED
ENCODING 41453
SWIDTH 960 0
DWIDTH 24 0
BBX 24 24 0 -6
BITMAP
000000
000000
1E0600
060B00
060B00
070800
070860
058890
058998
058998
04C998
04C998
04C998
046998
046998
046998
043998
043890
043860
341800
341800
180BFC
000000
000000
ENDCHAR

STARTCHAR A1EE
ENCODING 41454
SWIDTH 960 0
DWIDTH 24 0
BBX 24 24 0 -6
BITMAP
000000
001000
001000
002800
002800
002800
004400
004400
004400
7F83FC
200008
100010
0C0060
020080
010100
020080
020080
021080
046C40
048240
0701C0
0C0060
080020
000000
ENDCHAR

STARTCHAR A1EF
ENCODING 41455
SWIDTH 960 0
DWIDTH 24 0
BBX 24 24 0 -6
BITMAP
000000
001000
001000
003800
003800
003800
007C00
007C00
007C00
7FFFFC
3FFFF8
1FFFF0
0FFFE0
03FF80
01FF00
03FF80
03FF80
03FF80
07EFC0
0783C0
0701C0
0C0060
080020
000000
ENDCHAR

STARTCHAR A1F0
ENCODING 41456
SWIDTH 960 0
DWIDTH 24 0
BBX 24 24 0 -6
BITMAP
000000
000000
007E00
018180
060060
080010
080010
100008
100008
200004
200004
200004
200004
200004
200004
100008
100008
080010
080010
060060
018180
007E00
000000
000000
ENDCHAR

STARTCHAR A1F1
ENCODING 41457
SWIDTH 960 0
DWIDTH 24 0
BBX 24 24 0 -6
BITMAP
000000
000000
007E00
01FF80
07FFE0
0FFFF0
0FFFF0
1FFFF8
1FFFF8
3FFFFC
3FFFFC
3FFFFC
3FFFFC
3FFFFC
3FFFFC
1FFFF8
1FFFF8
0FFFF0
0FFFF0
07FFE0
01FF80
007E00
000000
000000
ENDCHAR

STARTCHAR A1F2
ENCODING 41458
SWIDTH 960 0
DWIDTH 24 0
BBX 24 24 0 -6
BITMAP
000000
000000
007E00
018180
060060
087E10
098190
120048
120048
240024
240024
240024
240024
240024
240024
120048
120048
098190
087E10
060060
018180
007E00
000000
000000
ENDCHAR

STARTCHAR A1F3
ENCODING 41459
SWIDTH 960 0
DWIDTH 24 0
BBX 24 24 0 -6
BITMAP
000000
001000
002800
004400
008200
010100
020080
040040
080020
100010
200008
400004
200008
100010
080020
040040
020080
010100
008200
004400
002800
001000
000000
000000
ENDCHAR

STARTCHAR A1F4
ENCODING 41460
SWIDTH 960 0
DWIDTH 24 0
BBX 24 24 0 -6
BITMAP
000000
001000
003800
007C00
00FE00
01FF00
03FF80
07FFC0
0FFFE0
1FFFF0
3FFFF8
7FFFFC
3FFFF8
1FFFF0
0FFFE0
07FFC0
03FF80
01FF00
00FE00
007C00
003800
001000
000000
000000
ENDCHAR

STARTCHAR A1F5
ENCODING 41461
SWIDTH 960 0
DWIDTH 24 0
BBX 24 24 0 -6
BITMAP
000000
000000
3FFFFC
200004
200004
200004
200004
200004
200004
200004
200004
200004
200004
200004
200004
200004
200004
200004
200004
200004
200004
3FFFFC
000000
000000
ENDCHAR

STARTCHAR A1F6
ENCODING 41462
SWIDTH 960 0
DWIDTH 24 0
BBX 24 24 0 -6
BITMAP
000000
000000
3FFFFC
3FFFFC
3FFFFC
3FFFFC
3FFFFC
3FFFFC
3FFFFC
3FFFFC
3FFFFC
3FFFFC
3FFFFC
3FFFFC
3FFFFC
3FFFFC
3FFFFC
3FFFFC
3FFFFC
3FFFFC
3FFFFC
3FFFFC
000000
000000
ENDCHAR

STARTCHAR A1F7
ENCODING 41463
SWIDTH 960 0
DWIDTH 24 0
BBX 24 24 0 -6
BITMAP
000000
000000
001800
002400
002400
004200
004200
008100
008100
010080
010080
020040
020040
040020
040020
080010
080010
100008
100008
200004
3FFFFC
000000
000000
000000
ENDCHAR

STARTCHAR A1F8
ENCODING 41464
SWIDTH 960 0
DWIDTH 24 0
BBX 24 24 0 -6
BITMAP
000000
000000
001800
003C00
003C00
007E00
007E00
00FF00
00FF00
01FF80
01FF80
03FFC0
03FFC0
07FFE0
07FFE0
0FFFF0
0FFFF0
1FFFF8
1FFFF8
3FFFFC
3FFFFC
000000
000000
000000
ENDCHAR

STARTCHAR A1F9
ENCODING 41465
SWIDTH 960 0
DWIDTH 24 0
BBX 24 24 0 -6
BITMAP
000000
000000
000000
101808
083C10
043C20
021840
010080
008100
004200
0C2430
1E1878
1E1878
0C2430
004200
008100
010080
021840
043C20
083C10
101808
000000
000000
000000
ENDCHAR

STARTCHAR A1FA
ENCODING 41466
SWIDTH 960 0
DWIDTH 24 0
BBX 24 24 0 -6
BITMAP
000000
000000
000000
000000
000000
000000
000000
000000
000100
0000C0
000078
7FFFFE
000078
0000C0
000100
000000
000000
000000
000000
000000
000000
000000
000000
000000
ENDCHAR

STARTCHAR A1FB
ENCODING 41467
SWIDTH 960 0
DWIDTH 24 0
BBX 24 24 0 -6
BITMAP
000000
000000
000000
000000
000000
000000
000000
000000
008000
030000
1E0000
7FFFFE
1E0000
030000
008000
000000
000000
000000
000000
000000
000000
000000
000000
000000
ENDCHAR

STARTCHAR A1FC
ENCODING 41468
SWIDTH 960 0
DWIDTH 24 0
BBX 24 24 0 -6
BITMAP
000000
001000
001000
003800
003800
007C00
00FE00
009200
011100
001000
001000
001000
001000
001000
001000
001000
001000
001000
001000
001000
001000
001000
001000
000000
ENDCHAR

STARTCHAR A1FD
ENCODING 41469
SWIDTH 960 0
DWIDTH 24 0
BBX 24 24 0 -6
BITMAP
000000
001000
001000
001000
001000
001000
001000
001000
001000
001000
001000
001000
001000
001000
001000
011100
009200
00FE00
007C00
003800
003800
001000
001000
000000
ENDCHAR

STARTCHAR A1FE
ENCODING 41470
SWIDTH 960 0
DWIDTH 24 0
BBX 24 24 0 -6
BITMAP
000000
000000
3FFFFC
3FFFFC
3FFFFC
3FFFFC
3FFFFC
3FFFFC
3FFFFC
000000
000000
000000
000000
000000
000000
3FFFFC
3FFFFC
3FFFFC
3FFFFC
3FFFFC
3FFFFC
3FFFFC
000000
000000
ENDCHAR

STARTCHAR A2B1
ENCODING 41649
SWIDTH 960 0
DWIDTH 24 0
BBX 24 24 0 -6
BITMAP
000000
000000
000000
001000
003000
00F000
003000
003000
003000
003000
003000
003000
003000
003000
003000
003000
003020
003070
003070
003020
00FC00
000000
000000
000000
ENDCHAR

STARTCHAR A2B2
ENCODING 41650
SWIDTH 960 0
DWIDTH 24 0
BBX 24 24 0 -6
BITMAP
000000
000000
000000
00F000
019800
020C00
000C00
000C00
000C00
001800
001800
003000
003000
006000
00C000
00C000
018020
018070
030070
03FC20
03FC00
000000
000000
000000
ENDCHAR

STARTCHAR A2B3
ENCODING 41651
SWIDTH 960 0
DWIDTH 24 0
BBX 24 24 0 -6
BITMAP
000000
000000
000000
03FC00
03FC00
000C00
001800
003000
006000
00C000
00F000
001800
000C00
000C00
000C00
000C00
000C20
000C70
000C70
021820
01F000
000000
000000
000000
ENDCHAR

STARTCHAR A2B4
ENCODING 41652
SWIDTH 960 0
DWIDTH 24 0
BBX 24 24 0 -6
BITMAP
000000
000000
000000
001000
003000
007000
007000
00F000
01B000
013000
033000
023000
063000
0C3000
0C3000
183000
1FFE20
003070
003070
003020
00FC00
000000
000000
000000
ENDCHAR

STARTCHAR A2B5
ENCODING 41653
SWIDTH 960 0
DWIDTH 24 0
BBX 24 24 0 -6
BITMAP
000000
000000
000000
03FC00
03FC00
020000
020000
020000
020000
02F000
031800
020C00
000C00
000C00
000C00
000C00
000C20
000C70
000C70
021820
01F000
000000
000000
000000
ENDCHAR

STARTCHAR A2B6
ENCODING 41654
SWIDTH 960 0
DWIDTH 24 0
BBX 24 24 0 -6
BITMAP
000000
000000
000000
001000
002000
004000
008000
018000
030000
030000
060000
06F000
070800
060C00
060C00
060C00
060C20
060C70
060C70
031820
01F000
000000
000000
000000
ENDCHAR

STARTCHAR A2B7
ENCODING 41655
SWIDTH 960 0
DWIDTH 24 0
BBX 24 24 0 -6
BITMAP
000000
000000
000000
07FE00
07FE00
000200
000400
000400
000800
000800
001000
001000
002000
006000
006000
006000
006020
006070
006070
006020
006000
000000
000000
000000
ENDCHAR

STARTCHAR A2B8
ENCODING 41656
SWIDTH 960 0
DWIDTH 24 0
BBX 24 24 0 -6
BITMAP
000000
000000
000000
01F000
020800
060C00
060C00
060C00
060C00
031800
01B000
004000
01B000
031800
060C00
060C00
060C20
060C70
060C70
020820
01F000
000000
000000
000000
ENDCHAR

STARTCHAR A2B9
ENCODING 41657
SWIDTH 960 0
DWIDTH 24 0
BBX 24 24 0 -6
BITMAP
000000
000000
000000
01F000
031800
060C00
060C00
060C00
060C00
060C00
060C00
060C00
031C00
01EC00
000C00
001800
001820
003070
002070
004020
008000
000000
000000
000000
ENDCHAR

STARTCHAR A2BA
ENCODING 41658
SWIDTH 960 0
DWIDTH 24 0
BBX 24 24 0 -6
BITMAP
000000
000000
000000
041C00
1C2200
0C6300
0C6300
0C6300
0C6300
0C6300
0C6300
0C6300
0C6300
0C6300
0C6300
0C6300
0C6308
0C631C
0C631C
0C2208
3F1C00
000000
000000
000000
ENDCHAR

STARTCHAR A2BB
ENCODING 41659
SWIDTH 960 0
DWIDTH 24 0
BBX 24 24 0 -6
BITMAP
000000
000000
000000
040200
1C0E00
0C0600
0C0600
0C0600
0C0600
0C0600
0C0600
0C0600
0C0600
0C0600
0C0600
0C0600
0C0608
0C061C
0C061C
0C0608
3F1F80
000000
000000
000000
ENDCHAR

STARTCHAR A2BC
ENCODING 41660
SWIDTH 960 0
DWIDTH 24 0
BBX 24 24 0 -6
BITMAP
000000
000000
000000
041E00
1C3300
0C2180
0C0180
0C0180
0C0300
0C0300
0C0600
0C0600
0C0C00
0C0C00
0C1800
0C1800
0C3008
0C301C
0C601C
0C7F88
1E7F80
000000
000000
000000
ENDCHAR

STARTCHAR A2BD
ENCODING 41661
SWIDTH 960 0
DWIDTH 24 0
BBX 24 24 0 -6
BITMAP
000000
000000
000000
047F80
1C7F80
0C0180
0C0300
0C0600
0C0C00
0C1800
0C1E00
0C0300
0C0180
0C0180
0C0180
0C0180
0C0188
0C019C
0C019C
0C6308
1E3E00
000000
000000
000000
ENDCHAR

STARTCHAR A2BE
ENCODING 41662
SWIDTH 960 0
DWIDTH 24 0
BBX 24 24 0 -6
BITMAP
000000
000000
000000
040200
1C0600
0C0E00
0C0E00
0C1600
0C1600
0C2600
0C2600
0C4600
0C4600
0C8600
0C8600
0CFFC0
0C0608
0C061C
0C061C
0C0608
1E1F80
000000
000000
000000
ENDCHAR

STARTCHAR A2BF
ENCODING 41663
SWIDTH 960 0
DWIDTH 24 0
BBX 24 24 0 -6
BITMAP
000000
000000
000000
043F80
1C3F80
0C2000
0C2000
0C2000
0C2000
0C2E00
0C3300
0C2180
0C0180
0C0180
0C0180
0C0180
0C0188
0C019C
0C019C
0C3308
1E1E00
000000
000000
000000
ENDCHAR

STARTCHAR A2C0
ENCODING 41664
SWIDTH 960 0
DWIDTH 24 0
BBX 24 24 0 -6
BITMAP
000000
000000
000000
040200
1C0400
0C0800
0C1800
0C1000
0C3000
0C6000
0C6000
0C6E00
0C7100
0C6180
0C6180
0C6180
0C6188
0C619C
0C619C
0C3308
1E1E00
000000
000000
000000
ENDCHAR

STARTCHAR A2C1
ENCODING 41665
SWIDTH 960 0
DWIDTH 24 0
BBX 24 24 0 -6
BITMAP
000000
000000
000000
047F80
1C7F80
0C0080
0C0100
0C0100
0C0200
0C0200
0C0400
0C0400
0C0C00
0C0C00
0C0C00
0C0C00
0C0C08
0C0C1C
0C0C1C
0C0C08
1E0C00
000000
000000
000000
ENDCHAR

STARTCHAR A2C2
ENCODING 41666
SWIDTH 960 0
DWIDTH 24 0
BBX 24 24 0 -6
BITMAP
000000
000000
000000
041E00
1C2100
0C6180
0C6180
0C6180
0C6180
0C3300
0C1E00
0C0C00
0C1200
0C3300
0C6180
0C6180
0C6188
0C619C
0C619C
0C2108
1E1E00
000000
000000
000000
ENDCHAR

STARTCHAR A2C3
ENCODING 41667
SWIDTH 960 0
DWIDTH 24 0
BBX 24 24 0 -6
BITMAP
000000
000000
000000
043C00
1C6600
0CC300
0CC300
0CC300
0CC300
0CC300
0CC300
0C4700
0C3B00
0C0300
0C0200
0C0600
0C0408
0C0C1C
0C081C
0C1008
1E2000
000000
000000
000000
ENDCHAR

STARTCHAR A2C4
ENCODING 41668
SWIDTH 960 0
DWIDTH 24 0
BBX 24 24 0 -6
BITMAP
000000
000000
000000
1E0700
330880
2198C0
0198C0
0198C0
0198C0
0318C0
0318C0
0618C0
0618C0
0C18C0
0C18C0
1818C0
1818C4
3018CE
3018CE
3F8884
3F8700
000000
000000
000000
ENDCHAR

STARTCHAR A2C5
ENCODING 41669
SWIDTH 960 0
DWIDTH 24 0
BBX 24 24 0 -6
BITMAP
000000
020080
040040
080020
180830
103810
301818
201808
60180C
60180C
60180C
60180C
60180C
60180C
60180C
60180C
201808
301818
101810
183C30
080020
040040
020080
000000
ENDCHAR

STARTCHAR A2C6
ENCODING 41670
SWIDTH 960 0
DWIDTH 24 0
BBX 24 24 0 -6
BITMAP
000000
020040
040020
080010
187C18
10C608
30830C
200304
600306
600606
600606
600C06
601806
601806
603006
606006
206004
30C00C
10FF08
18FF18
080010
040020
020040
000000
ENDCHAR

STARTCHAR A2C7
ENCODING 41671
SWIDTH 960 0
DWIDTH 24 0
BBX 24 24 0 -6
BITMAP
000000
020040
040020
080010
18FF18
10FF08
30030C
200604
600C06
601806
603006
603C06
600606
600306
600306
600306
200304
30030C
10C608
187C18
080010
040020
020040
000000
ENDCHAR

STARTCHAR A2C8
ENCODING 41672
SWIDTH 960 0
DWIDTH 24 0
BBX 24 24 0 -6
BITMAP
000000
020040
040020
080010
180418
100C08
301C0C
202C04
602C06
604C06
604C06
608C06
610C06
610C06
620C06
63FF86
200C04
300C0C
100C08
183F18
080010
040020
020040
000000
ENDCHAR

STARTCHAR A2C9
ENCODING 41673
SWIDTH 960 0
DWIDTH 24 0
BBX 24 24 0 -6
BITMAP
000000
020040
040020
080010
187F18
107F08
30400C
204004
604006
604006
605C06
606606
604306
600306
600306
600306
200304
30030C
10C608
187C18
080010
040020
020040
000000
ENDCHAR

STARTCHAR A2CA
ENCODING 41674
SWIDTH 960 0
DWIDTH 24 0
BBX 24 24 0 -6
BITMAP
000000
020040
040020
080010
180418
100808
30100C
202004
606006
604006
60DC06
60E206
60C306
60C306
60C306
60C306
20C304
30C30C
106208
183C18
080010
040020
020040
000000
ENDCHAR

STARTCHAR A2CB
ENCODING 41675
SWIDTH 960 0
DWIDTH 24 0
BBX 24 24 0 -6
BITMAP
000000
020040
040020
080010
18FF18
10FF08
30020C
200404
600406
600806
600806
601806
601806
601806
601806
601806
201804
30180C
101808
181818
080010
040020
020040
000000
ENDCHAR

STARTCHAR A2CC
ENCODING 41676
SWIDTH 960 0
DWIDTH 24 0
BBX 24 24 0 -6
BITMAP
000000
020040
040020
080010
183C18
104208
30C30C
20C304
60C306
604206
602406
601806
603C06
604206
60C306
60C306
20C304
30C30C
104208
183C18
080010
040020
020040
000000
ENDCHAR

STARTCHAR A2CD
ENCODING 41677
SWIDTH 960 0
DWIDTH 24 0
BBX 24 24 0 -6
BITMAP
000000
020040
040020
080010
183C18
104608
30C30C
20C304
60C306
60C306
60C306
604706
603B06
600206
600606
600406
200804
30100C
102008
184018
080010
040020
020040
000000
ENDCHAR

STARTCHAR A2CE
ENCODING 41678
SWIDTH 960 0
DWIDTH 24 0
BBX 24 24 0 -6
BITMAP
000000
020040
040020
080010
188718
138888
3198CC
2198C4
6198C6
6198C6
6198C6
6198C6
6198C6
6198C6
6198C6
6198C6
2198C4
3198CC
118888
1BC718
080010
040020
020040
000000
ENDCHAR

STARTCHAR A2CF
ENCODING 41679
SWIDTH 960 0
DWIDTH 24 0
BBX 24 24 0 -6
BITMAP
000000
020040
040020
080010
184118
11C708
30C30C
20C304
60C306
60C306
60C306
60C306
60C306
60C306
60C306
60C306
20C304
30C30C
10C308
19E798
080010
040020
020040
000000
ENDCHAR

STARTCHAR A2D0
ENCODING 41680
SWIDTH 960 0
DWIDTH 24 0
BBX 24 24 0 -6
BITMAP
000000
020040
040020
080010
188F18
139988
3190CC
2180C4
6180C6
6180C6
618186
618186
618306
618606
618606
618C06
218C04
31980C
119FC8
1BDFD8
080010
040020
020040
000000
ENDCHAR

STARTCHAR A2D1
ENCODING 41681
SWIDTH 960 0
DWIDTH 24 0
BBX 24 24 0 -6
BITMAP
000000
020040
040020
080010
189FD8
139FC8
3180CC
218184
618106
618306
618606
618786
6180C6
6180C6
6180C6
6180C6
2180C4
3180CC
119988
1BCF18
080010
040020
020040
000000
ENDCHAR

STARTCHAR A2D2
ENCODING 41682
SWIDTH 960 0
DWIDTH 24 0
BBX 24 24 0 -6
BITMAP
000000
020040
040020
080010
188098
138188
31838C
218384
618586
618586
618986
618986
619186
619186
61A186
61BFE6
218184
31818C
118188
1BC3D8
080010
040020
020040
000000
ENDCHAR

STARTCHAR A2D3
ENCODING 41683
SWIDTH 960 0
DWIDTH 24 0
BBX 24 24 0 -6
BITMAP
000000
020040
040020
080010
188FD8
138FC8
31880C
218804
618806
618806
618B06
618C86
6188C6
6180C6
6180C6
6180C6
2180C4
3180CC
119988
1BCF18
080010
040020
020040
000000
ENDCHAR

STARTCHAR A2D4
ENCODING 41684
SWIDTH 960 0
DWIDTH 24 0
BBX 24 24 0 -6
BITMAP
000000
020040
040020
080010
188118
138208
31840C
218C04
619806
619806
619B06
619C86
6198C6
6198C6
6198C6
6198C6
2198C4
3198CC
118C88
1BC718
080010
040020
020040
000000
ENDCHAR

STARTCHAR A2D5
ENCODING 41685
SWIDTH 960 0
DWIDTH 24 0
BBX 24 24 0 -6
BITMAP
000000
020040
040020
080010
189FD8
139FC8
31804C
218084
618086
618106
618106
618206
618206
618606
618606
618606
218604
31860C
118608
1BC618
080010
040020
020040
000000
ENDCHAR

STARTCHAR A2D6
ENCODING 41686
SWIDTH 960 0
DWIDTH 24 0
BBX 24 24 0 -6
BITMAP
000000
020040
040020
080010
188718
138888
3198CC
2198C4
6198C6
618886
618506
618206
618506
618886
6198C6
6198C6
2198C4
3198CC
118888
1BC718
080010
040020
020040
000000
ENDCHAR

STARTCHAR A2D7
ENCODING 41687
SWIDTH 960 0
DWIDTH 24 0
BBX 24 24 0 -6
BITMAP
000000
020040
040020
080010
188718
138988
3198CC
2198C4
6198C6
6198C6
6198C6
6198C6
6189C6
6186C6
6180C6
618086
218184
31810C
118208
1BC418
080010
040020
020040
000000
ENDCHAR

STARTCHAR A2D8
ENCODING 41688
SWIDTH 960 0
DWIDTH 24 0
BBX 24 24 0 -6
BITMAP
000000
020040
040020
080010
19C198
132248
32366C
203664
603666
603666
606666
606666
60C666
60C666
618666
618666
230664
33066C
13F248
1BF198
080010
040020
020040
000000
ENDCHAR

STARTCHAR A2D9
ENCODING 41689
SWIDTH 960 0
DWIDTH 24 0
BBX 24 24 0 -6
BITMAP
000000
007E00
018180
060060
080010
100808
101808
207804
201804
401802
401802
401802
401802
401802
401802
201804
201804
101808
107E08
080010
060060
018180
007E00
000000
ENDCHAR

STARTCHAR A2DA
ENCODING 41690
SWIDTH 960 0
DWIDTH 24 0
BBX 24 24 0 -6
BITMAP
000000
007E00
018180
060060
080010
107C08
10C608
208304
200304
400302
400602
400C02
401802
403002
406002
206004
20C004
10FF08
10FF08
080010
060060
018180
007E00
000000
ENDCHAR

STARTCHAR A2DB
ENCODING 41691
SWIDTH 960 0
DWIDTH 24 0
BBX 24 24 0 -6
BITMAP
000000
007E00
018180
060060
080010
10FF08
10FF08
200304
200604
400C02
401802
403C02
400602
400302
400302
200304
200304
10C608
107C08
080010
060060
018180
007E00
000000
ENDCHAR

STARTCHAR A2DC
ENCODING 41692
SWIDTH 960 0
DWIDTH 24 0
BBX 24 24 0 -6
BITMAP
000000
007E00
018180
060060
080010
100408
100C08
201C04
202C04
402C02
404C02
408C02
408C02
410C02
43FF82
200C04
200C04
100C08
103F08
080010
060060
018180
007E00
000000
ENDCHAR

STARTCHAR A2DD
ENCODING 41693
SWIDTH 960 0
DWIDTH 24 0
BBX 24 24 0 -6
BITMAP
000000
007E00
018180
060060
080010
107F08
107F08
204004
204004
404002
405C02
406202
404302
400302
400302
200304
200304
10C608
107C08
080010
060060
018180
007E00
000000
ENDCHAR

STARTCHAR A2DE
ENCODING 41694
SWIDTH 960 0
DWIDTH 24 0
BBX 24 24 0 -6
BITMAP
000000
007E00
018180
060060
080010
100408
100808
201004
202004
406002
404002
40DC02
40E202
40C302
40C302
20C304
20C304
106208
103C08
080010
060060
018180
007E00
000000
ENDCHAR

STARTCHAR A2DF
ENCODING 41695
SWIDTH 960 0
DWIDTH 24 0
BBX 24 24 0 -6
BITMAP
000000
007E00
018180
060060
080010
10FF08
10FF08
200204
200404
400402
400802
400802
401802
401802
401802
201804
201804
101808
101808
080010
060060
018180
007E00
000000
ENDCHAR

STARTCHAR A2E0
ENCODING 41696
SWIDTH 960 0
DWIDTH 24 0
BBX 24 24 0 -6
BITMAP
000000
007E00
018180
060060
080010
103C08
104208
20C304
20C304
406202
403402
401802
402C02
404602
40C302
20C304
20C304
104208
103C08
080010
060060
018180
007E00
000000
ENDCHAR

STARTCHAR A2E1
ENCODING 41697
SWIDTH 960 0
DWIDTH 24 0
BBX 24 24 0 -6
BITMAP
000000
007E00
018180
060060
080010
103C08
104608
20C304
20C304
40C302
40C302
404702
403B02
400202
400602
200404
200804
101008
102008
080010
060060
018180
007E00
000000
ENDCHAR

STARTCHAR A2E2
ENCODING 41698
SWIDTH 960 0
DWIDTH 24 0
BBX 24 24 0 -6
BITMAP
000000
007E00
018180
060060
080010
108708
138888
2198C4
2198C4
4198C2
4198C2
4198C2
4198C2
4198C2
4198C2
2198C4
2198C4
118888
13C708
080010
060060
018180
007E00
000000
ENDCHAR

STARTCHAR A2E5
ENCODING 41701
SWIDTH 960 0
DWIDTH 24 0
BBX 24 24 0 -6
BITMAP
000000
020040
040020
080010
180018
100008
30000C
200004
600006
600006
600006
6000C6
67FFE6
600006
600006
600006
200004
30000C
100008
180018
080010
040020
020040
000000
ENDCHAR

STARTCHAR A2E6
ENCODING 41702
SWIDTH 960 0
DWIDTH 24 0
BBX 24 24 0 -6
BITMAP
000000
020040
040020
080010
180018
100008
30018C
23FFC4
600006
600006
600006
600006
600006
600006
600006
6000C6
27FFE4
30000C
100008
180018
080010
040020
020040
000000
ENDCHAR

STARTCHAR A2E7
ENCODING 41703
SWIDTH 960 0
DWIDTH 24 0
BBX 24 24 0 -6
BITMAP
000000
020040
040020
080010
180018
100188
33FFCC
200004
600006
600006
600306
61FF86
600006
600006
600006
600006
2000C4
37FFEC
100008
180018
080010
040020
020040
000000
ENDCHAR

STARTCHAR A2E8
ENCODING 41704
SWIDTH 960 0
DWIDTH 24 0
BBX 24 24 0 -6
BITMAP
000000
020040
040020
080010
180018
140028
37FFEC
262464
662466
662466
662466
662466
664466
664566
668366
670066
260064
37FFEC
140048
180018
080010
040020
020040
000000
ENDCHAR

STARTCHAR A2E9
ENCODING 41705
SWIDTH 960 0
DWIDTH 24 0
BBX 24 24 0 -6
BITMAP
000000
020040
040020
080010
180198
13FFC8
30300C
203004
603006
603006
606306
61FF86
606306
606306
606306
60C306
20C304
30C30C
17FFE8
180018
080010
040020
020040
000000
ENDCHAR

STARTCHAR A2EA
ENCODING 41706
SWIDTH 960 0
DWIDTH 24 0
BBX 24 24 0 -6
BITMAP
000000
020040
040020
080010
181818
100C08
300C0C
200804
600066
6FFFF6
600006
608006
60E406
60C306
618186
6100C6
2300C4
3200CC
140088
180018
080010
040020
020040
000000
ENDCHAR

STARTCHAR A2EB
ENCODING 41707
SWIDTH 960 0
DWIDTH 24 0
BBX 24 24 0 -6
BITMAP
000000
020040
040020
080010
182018
103808
30300C
203004
603006
603086
6033E6
60FC06
6F3006
603006
603046
603046
203064
303FEC
101FC8
180018
080010
040020
020040
000000
ENDCHAR

STARTCHAR A2EC
ENCODING 41708
SWIDTH 960 0
DWIDTH 24 0
BBX 24 24 0 -6
BITMAP
000000
020040
040020
080010
180018
100C08
30040C
204404
607406
606606
60C206
60C306
608306
618186
6101C6
6200F6
240044
30000C
100008
180018
080010
040020
020040
000000
ENDCHAR

STARTCHAR A2ED
ENCODING 41709
SWIDTH 960 0
DWIDTH 24 0
BBX 24 24 0 -6
BITMAP
000000
020040
040020
084010
187018
106008
30600C
206604
63FF06
606606
606606
606606
606626
60C626
60C626
618636
2107F4
3203EC
140008
180018
080010
040020
020040
000000
ENDCHAR

STARTCHAR A2EE
ENCODING 41710
SWIDTH 960 0
DWIDTH 24 0
BBX 24 24 0 -6
BITMAP
000000
020040
040020
080010
181018
101C08
30180C
201804
601806
601806
601866
6FFFF6
601806
601806
601806
601806
201804
30180C
101808
181018
080010
040020
020040
000000
ENDCHAR

STARTCHAR A2F1
ENCODING 41713
SWIDTH 960 0
DWIDTH 24 0
BBX 24 24 0 -6
BITMAP
000000
000000
007E00
001800
001800
001800
001800
001800
001800
001800
001800
001800
001800
001800
001800
001800
001800
001800
001800
001800
00FF00
000000
000000
000000
ENDCHAR

STARTCHAR A2F2
ENCODING 41714
SWIDTH 960 0
DWIDTH 24 0
BBX 24 24 0 -6
BITMAP
000000
000000
07E7E0
018180
018180
018180
018180
018180
018180
018180
018180
018180
018180
018180
018180
018180
018180
018180
018180
018180
0FE7F0
000000
000000
000000
ENDCHAR

STARTCHAR A2F3
ENCODING 41715
SWIDTH 960 0
DWIDTH 24 0
BBX 24 24 0 -6
BITMAP
000000
000000
1FBDF8
061860
061860
061860
061860
061860
061860
061860
061860
061860
061860
061860
061860
061860
061860
061860
061860
061860
3FBDFC
000000
000000
000000
ENDCHAR

STARTCHAR A2F4
ENCODING 41716
SWIDTH 960 0
DWIDTH 24 0
BBX 24 24 0 -6
BITMAP
000000
000000
1F7C7C
063010
063010
063010
061820
061820
061820
061820
060C40
060C40
060C40
060C40
060680
060680
060680
060680
060300
060300
1F8300
000000
000000
000000
ENDCHAR

STARTCHAR A2F5
ENCODING 41717
SWIDTH 960 0
DWIDTH 24 0
BBX 24 24 0 -6
BITMAP
000000
000000
1F80F8
060020
060020
030040
030040
030040
018080
018080
00C100
00C100
00C100
006200
006200
003400
003400
003400
001800
001800
001800
000000
000000
000000
ENDCHAR

STARTCHAR A2F6
ENCODING 41718
SWIDTH 960 0
DWIDTH 24 0
BBX 24 24 0 -6
BITMAP
000000
000000
3E1EF8
0C0460
0C0460
0C0460
060860
060860
060860
060860
031060
031060
031060
031060
01A060
01A060
01A060
01A060
00C060
00C060
00C1F8
000000
000000
000000
ENDCHAR

STARTCHAR A2F7
ENCODING 41719
SWIDTH 960 0
DWIDTH 24 0
BBX 24 24 0 -6
BITMAP
000000
000000
7C1F78
180B30
180B30
0C0B30
0C1330
0C1330
0C1330
0C1330
062330
062330
062330
062330
034330
034330
034330
034330
018330
018330
0187F8
000000
000000
000000
ENDCHAR

STARTCHAR A2F8
ENCODING 41720
SWIDTH 960 0
DWIDTH 24 0
BBX 24 24 0 -6
BITMAP
000000
000000
78FFFC
305998
305998
305998
305998
189998
189998
189998
189998
189998
189998
0D1998
0D1998
0D1998
0D1998
0D1998
061998
061998
063FFC
000000
000000
000000
ENDCHAR

STARTCHAR A2F9
ENCODING 41721
SWIDTH 960 0
DWIDTH 24 0
BBX 24 24 0 -6
BITMAP
000000
000000
1FBCF8
061820
061820
060C40
060C40
060680
060680
060300
060300
060300
060380
060580
060580
0604C0
0608C0
0608C0
061060
061060
1F7EF8
000000
000000
000000
ENDCHAR

STARTCHAR A2FA
ENCODING 41722
SWIDTH 960 0
DWIDTH 24 0
BBX 24 24 0 -6
BITMAP
000000
000000
0FC1F0
030040
018080
018080
00C100
006200
006200
003400
001800
001800
001C00
002600
004300
004300
008180
0100C0
0100C0
020060
1F81FC
000000
000000
000000
ENDCHAR

STARTCHAR A2FB
ENCODING 41723
SWIDTH 960 0
DWIDTH 24 0
BBX 24 24 0 -6
BITMAP
000000
000000
1FBDF8
060860
060860
031060
031060
01A060
01A060
00C060
00C060
00C060
00E060
016060
016060
013060
023060
023060
041860
041860
1F7EF8
000000
000000
000000
ENDCHAR

STARTCHAR A2FC
ENCODING 41724
SWIDTH 960 0
DWIDTH 24 0
BBX 24 24 0 -6
BITMAP
000000
000000
3F7FFC
0C1330
062330
062330
032330
034330
034330
01C330
018330
00C330
01C330
01C330
026330
026330
026330
043330
043330
081B30
3E7FFC
000000
000000
000000
ENDCHAR

STARTCHAR A3A1
ENCODING 41889
SWIDTH 960 0
DWIDTH 24 0
BBX 24 24 0 -6
BITMAP
000000
000000
000000
040000
0E0000
0E0000
0E0000
0E0000
0E0000
0E0000
0E0000
0E0000
040000
040000
040000
040000
000000
000000
040000
0E0000
040000
000000
000000
000000
ENDCHAR

STARTCHAR A3A2
ENCODING 41890
SWIDTH 960 0
DWIDTH 24 0
BBX 24 24 0 -6
BITMAP
000000
010400
038E00
038E00
038E00
038E00
010400
010400
010400
000000
000000
000000
000000
000000
000000
000000
000000
000000
000000
000000
000000
000000
000000
000000
ENDCHAR

STARTCHAR A3A3
ENCODING 41891
SWIDTH 960 0
DWIDTH 24 0
BBX 24 24 0 -6
BITMAP
000000
000000
002080
002080
002080
002080
07FFF0
07FFF0
004100
004100
004100
004100
004100
07FFF0
07FFF0
008200
008200
008200
008200
000000
000000
000000
000000
000000
ENDCHAR

STARTCHAR A3A4
ENCODING 41892
SWIDTH 960 0
DWIDTH 24 0
BBX 24 24 0 -6
BITMAP
000000
000000
1F83F0
0C0040
060080
030100
030100
018200
00C400
00C400
006800
003000
003000
003000
003000
07FF80
003000
003000
003000
003000
003000
00FC00
000000
000000
ENDCHAR

STARTCHAR A3A5
ENCODING 41893
SWIDTH 960 0
DWIDTH 24 0
BBX 24 24 0 -6
BITMAP
000000
000002
070004
088008
18C010
18C020
18C040
18C080
18C100
18C2E0
18C510
18CB18
089318
072318
004318
008318
010318
020318
040318
080110
1000E0
200000
400000
000000
ENDCHAR

STARTCHAR A3A6
ENCODING 41894
SWIDTH 960 0
DWIDTH 24 0
BBX 24 24 0 -6
BITMAP
000000
000000
000000
007000
00C800
018400
018400
018400
00C800
007000
003000
00D9F0
019840
030C40
060C40
060680
060384
060184
0306C8
01F870
000000
000000
000000
000000
ENDCHAR

STARTCHAR A3A7
ENCODING 41895
SWIDTH 960 0
DWIDTH 24 0
BBX 24 24 0 -6
BITMAP
000000
020000
070000
070000
060000
060000
040000
0C0000
080000
100000
000000
000000
000000
000000
000000
000000
000000
000000
000000
000000
000000
000000
000000
000000
ENDCHAR

STARTCHAR A3A8
ENCODING 41896
SWIDTH 960 0
DWIDTH 24 0
BBX 24 24 0 -6
BITMAP
000000
000000
000008
000030
000060
0000C0
000180
000180
000300
000300
000300
000300
000300
000300
000300
000300
000180
000180
0000C0
000060
000030
000008
000000
000000
ENDCHAR

STARTCHAR A3A9
ENCODING 41897
SWIDTH 960 0
DWIDTH 24 0
BBX 24 24 0 -6
BITMAP
000000
000000
100000
0C0000
060000
030000
018000
018000
00C000
00C000
00C000
00C000
00C000
00C000
00C000
00C000
018000
018000
030000
060000
0C0000
100000
000000
000000
ENDCHAR

STARTCHAR A3AA
ENCODING 41898
SWIDTH 960 0
DWIDTH 24 0
BBX 24 24 0 -6
BITMAP
000000
001000
001000
001000
001000
001000
001000
001000
401004
301018
0C1060
031180
00D600
003800
002800
004400
008200
010100
020080
040040
080020
100010
200008
000000
ENDCHAR

STARTCHAR A3AB
ENCODING 41899
SWIDTH 960 0
DWIDTH 24 0
BBX 24 24 0 -6
BITMAP
000000
000000
001000
001000
001000
001000
001000
001000
001000
001000
001000
1FFFF0
001000
001000
001000
001000
001000
001000
001000
001000
001000
001000
000000
000000
ENDCHAR

STARTCHAR A3AC
ENCODING 41900
SWIDTH 960 0
DWIDTH 24 0
BBX 24 24 0 -6
BITMAP
000000
000000
000000
000000
000000
000000
000000
000000
000000
000000
000000
000000
000000
000000
000000
000000
000000
000000
040000
0E0000
060000
040000
080000
000000
ENDCHAR

STARTCHAR A3AD
ENCODING 41901
SWIDTH 960 0
DWIDTH 24 0
BBX 24 24 0 -6
BITMAP
000000
000000
000000
000000
000000
000000
000000
000000
000000
000000
000000
0FFFF0
000000
000000
000000
000000
000000
000000
000000
000000
000000
000000
000000
000000
ENDCHAR

STARTCHAR A3AE
ENCODING 41902
SWIDTH 960 0
DWIDTH 24 0
BBX 24 24 0 -6
BITMAP
000000
000000
000000
000000
000000
000000
000000
000000
000000
000000
000000
000000
000000
000000
000000
000000
000000
000000
040000
0E0000
040000
000000
000000
000000
ENDCHAR

STARTCHAR A3AF
ENCODING 41903
SWIDTH 960 0
DWIDTH 24 0
BBX 24 24 0 -6
BITMAP
000000
000000
000000
000008
000010
000020
000040
000080
000100
000200
000400
000800
001000
002000
004000
008000
010000
020000
040000
080000
100000
000000
000000
000000
ENDCHAR

STARTCHAR A3B0
ENCODING 41904
SWIDTH 960 0
DWIDTH 24 0
BBX 24 24 0 -6
BITMAP
000000
000000
000000
007C00
00C600
018300
018300
018300
018300
018300
018300
018300
018300
018300
018300
018300
018300
018300
018300
00C600
007C00
000000
000000
000000
ENDCHAR

STARTCHAR A3B1
ENCODING 41905
SWIDTH 960 0
DWIDTH 24 0
BBX 24 24 0 -6
BITMAP
000000
000000
000000
000800
001800
007800
001800
001800
001800
001800
001800
001800
001800
001800
001800
001800
001800
001800
001800
001800
007E00
000000
000000
000000
ENDCHAR

STARTCHAR A3B2
ENCODING 41906
SWIDTH 960 0
DWIDTH 24 0
BBX 24 24 0 -6
BITMAP
000000
000000
000000
00FC00
018600
010300
000300
000300
000600
000600
000C00
000C00
001800
003000
003000
006000
00C000
00C000
018000
01FF00
01FF00
000000
000000
000000
ENDCHAR

STARTCHAR A3B3
ENCODING 41907
SWIDTH 960 0
DWIDTH 24 0
BBX 24 24 0 -6
BITMAP
000000
000000
000000
00FF00
00FF00
000300
000600
000C00
001800
003000
003C00
000600
000300
000300
000300
000300
000300
000300
000300
00C600
007C00
000000
000000
000000
ENDCHAR

STARTCHAR A3B4
ENCODING 41908
SWIDTH 960 0
DWIDTH 24 0
BBX 24 24 0 -6
BITMAP
000000
000000
000000
000C00
001C00
001C00
002C00
002C00
004C00
004C00
008C00
008C00
010C00
010C00
010C00
020C00
03FF80
000C00
000C00
000C00
003F00
000000
000000
000000
ENDCHAR

STARTCHAR A3B5
ENCODING 41909
SWIDTH 960 0
DWIDTH 24 0
BBX 24 24 0 -6
BITMAP
000000
000000
000000
00FF00
00FF00
008000
008000
008000
008000
008000
00BC00
00C600
008300
000300
000300
000300
000300
000300
000300
00C600
007C00
000000
000000
000000
ENDCHAR

STARTCHAR A3B6
ENCODING 41910
SWIDTH 960 0
DWIDTH 24 0
BBX 24 24 0 -6
BITMAP
000000
000000
000000
001E00
003000
006000
00C000
00C000
00C000
00C000
00DC00
00E200
00C300
00C300
00C300
00C300
00C300
00C300
00C300
004200
003C00
000000
000000
000000
ENDCHAR

STARTCHAR A3B7
ENCODING 41911
SWIDTH 960 0
DWIDTH 24 0
BBX 24 24 0 -6
BITMAP
000000
000000
000000
00FF80
00FF80
000080
000100
000100
000200
000200
000400
000400
000800
000800
001800
001800
001800
001800
001800
001800
001800
000000
000000
000000
ENDCHAR

STARTCHAR A3B8
ENCODING 41912
SWIDTH 960 0
DWIDTH 24 0
BBX 24 24 0 -6
BITMAP
000000
000000
000000
007C00
008200
018300
018300
018300
018300
00C600
006C00
001000
006C00
00C600
018300
018300
018300
018300
018300
008200
007C00
000000
000000
000000
ENDCHAR

STARTCHAR A3B9
ENCODING 41913
SWIDTH 960 0
DWIDTH 24 0
BBX 24 24 0 -6
BITMAP
000000
000000
000000
003C00
004200
00C300
00C300
00C300
00C300
00C300
00C300
00C300
004700
003B00
000300
000300
000300
000300
000600
000C00
007800
000000
000000
000000
ENDCHAR

STARTCHAR A3BA
ENCODING 41914
SWIDTH 960 0
DWIDTH 24 0
BBX 24 24 0 -6
BITMAP
000000
000000
000000
000000
000000
000000
000000
000000
000000
000000
000000
000000
000000
040000
0E0000
040000
000000
000000
040000
0E0000
040000
000000
000000
000000
ENDCHAR

STARTCHAR A3BB
ENCODING 41915
SWIDTH 960 0
DWIDTH 24 0
BBX 24 24 0 -6
BITMAP
000000
000000
000000
000000
000000
000000
000000
000000
000000
000000
000000
000000
000000
040000
0E0000
040000
000000
000000
040000
0E0000
060000
040000
080000
000000
ENDCHAR

STARTCHAR A3BC
ENCODING 41916
SWIDTH 960 0
DWIDTH 24 0
BBX 24 24 0 -6
BITMAP
000000
000000
000008
000030
0000C0
000300
000C00
003000
00C000
030000
0C0000
100000
0C0000
030000
00C000
003000
000C00
000300
0000C0
000030
000008
000000
000000
000000
ENDCHAR

STARTCHAR A3BD
ENCODING 41917
SWIDTH 960 0
DWIDTH 24 0
BBX 24 24 0 -6
BITMAP
000000
000000
000000
000000
000000
000000
000000
000000
0FFFF0
000000
000000
000000
000000
000000
000000
0FFFF0
000000
000000
000000
000000
000000
000000
000000
000000
ENDCHAR

STARTCHAR A3BE
ENCODING 41918
SWIDTH 960 0
DWIDTH 24 0
BBX 24 24 0 -6
BITMAP
000000
000000
100000
0C0000
030000
00C000
003000
000C00
000300
0000C0
000030
000008
000030
0000C0
000300
000C00
003000
00C000
030000
0C0000
100000
000000
000000
000000
ENDCHAR

STARTCHAR A3BF
ENCODING 41919
SWIDTH 960 0
DWIDTH 24 0
BBX 24 24 0 -6
BITMAP
000000
000000
000000
000000
000000
0E0000
110000
218000
318000
318000
010000
020000
020000
040000
040000
040000
000000
000000
040000
0E0000
040000
000000
000000
000000
ENDCHAR

STARTCHAR A3C0
ENCODING 41920
SWIDTH 960 0
DWIDTH 24 0
BBX 24 24 0 -6
BITMAP
000000
00FE00
0301C0
040030
000018
000418
00EC18
031C18
060C18
060C18
060C18
060C18
060C18
060C18
060C18
060C18
060C18
031230
00E1C0
000000
000000
000000
000000
000000
ENDCHAR

STARTCHAR A3C1
ENCODING 41921
SWIDTH 960 0
DWIDTH 24 0
BBX 24 24 0 -6
BITMAP
000000
000800
001800
001C00
002C00
002600
002600
004300
004300
004300
008180
00FF80
008180
0100C0
0100C0
0100C0
020060
020060
0F81F8
000000
000000
000000
000000
000000
ENDCHAR

STARTCHAR A3C2
ENCODING 41922
SWIDTH 960 0
DWIDTH 24 0
BBX 24 24 0 -6
BITMAP
000000
07FE00
018300
018180
018180
018180
018180
018180
018300
01FE00
018380
0181C0
0180C0
0180C0
0180C0
0180C0
0181C0
018380
07FE00
000000
000000
000000
000000
000000
ENDCHAR

STARTCHAR A3C3
ENCODING 41923
SWIDTH 960 0
DWIDTH 24 0
BBX 24 24 0 -6
BITMAP
000000
003F20
00C0E0
018060
030020
030020
060000
060000
060000
060000
060000
060000
060000
060030
030030
030020
018060
00C0C0
003F00
000000
000000
000000
000000
000000
ENDCHAR

STARTCHAR A3C4
ENCODING 41924
SWIDTH 960 0
DWIDTH 24 0
BBX 24 24 0 -6
BITMAP
000000
0FFC00
030300
030180
0300C0
0300C0
030060
030060
030060
030060
030060
030060
030060
030060
0300C0
0300C0
030180
030300
0FFC00
000000
000000
000000
000000
000000
ENDCHAR

STARTCHAR A3C5
ENCODING 41925
SWIDTH 960 0
DWIDTH 24 0
BBX 24 24 0 -6
BITMAP
000000
07FFE0
018060
018020
018020
018000
018100
018100
018300
01FF00
018300
018100
018100
018000
018000
018020
018020
018060
03FFE0
000000
000000
000000
000000
000000
ENDCHAR

STARTCHAR A3C6
ENCODING 41926
SWIDTH 960 0
DWIDTH 24 0
BBX 24 24 0 -6
BITMAP
000000
07FFE0
018060
018020
018020
018000
018100
018100
018300
01FF00
018300
018100
018100
018000
018000
018000
018000
018000
07E000
000000
000000
000000
000000
000000
ENDCHAR

STARTCHAR A3C7
ENCODING 41927
SWIDTH 960 0
DWIDTH 24 0
BBX 24 24 0 -6
BITMAP
000000
007E40
01C1C0
0300C0
060040
060040
0C0000
0C0000
0C0000
0C0000
0C0000
0C03F0
0C00C0
0C00C0
0600C0
0600C0
0300C0
01C180
007F00
000000
000000
000000
000000
000000
ENDCHAR

STARTCHAR A3C8
ENCODING 41928
SWIDTH 960 0
DWIDTH 24 0
BBX 24 24 0 -6
BITMAP
000000
1F81F8
060060
060060
060060
060060
060060
060060
060060
07FFE0
060060
060060
060060
060060
060060
060060
060060
060060
3F81FC
000000
000000
000000
000000
000000
ENDCHAR

STARTCHAR A3C9
ENCODING 41929
SWIDTH 960 0
DWIDTH 24 0
BBX 24 24 0 -6
BITMAP
000000
007E00
001800
001800
001800
001800
001800
001800
001800
001800
001800
001800
001800
001800
001800
001800
001800
001800
007E00
000000
000000
000000
000000
000000
ENDCHAR

STARTCHAR A3CA
ENCODING 41930
SWIDTH 960 0
DWIDTH 24 0
BBX 24 24 0 -6
BITMAP
000000
007E00
001800
001800
001800
001800
001800
001800
001800
001800
001800
001800
001800
001800
001800
009800
01D800
01D800
00F000
000000
000000
000000
000000
000000
ENDCHAR

STARTCHAR A3CB
ENCODING 41931
SWIDTH 960 0
DWIDTH 24 0
BBX 24 24 0 -6
BITMAP
000000
0FC3F0
030080
030100
030200
030400
030800
031000
033800
034C00
038C00
030600
030600
030300
030180
0300C0
0300C0
030060
0FC1F8
000000
000000
000000
000000
000000
ENDCHAR

STARTCHAR A3CC
ENCODING 41932
SWIDTH 960 0
DWIDTH 24 0
BBX 24 24 0 -6
BITMAP
000000
07E000
018000
018000
018000
018000
018000
018000
018000
018000
018000
018000
018000
018000
018020
018020
018020
018060
07FFE0
000000
000000
000000
000000
000000
ENDCHAR

STARTCHAR A3CD
ENCODING 41933
SWIDTH 960 0
DWIDTH 24 0
BBX 24 24 0 -6
BITMAP
000000
3E0078
0E00E0
0B00E0
0B00E0
0B0160
090160
098160
098260
08C260
08C260
084460
086460
086460
082860
083860
083860
081060
3E01F8
000000
000000
000000
000000
000000
ENDCHAR

STARTCHAR A3CE
ENCODING 41934
SWIDTH 960 0
DWIDTH 24 0
BBX 24 24 0 -6
BITMAP
000000
0F01F0
038040
038040
02C040
026040
026040
023040
021840
020C40
020C40
020640
020640
020340
0201C0
0201C0
0200C0
020040
0F8040
000000
000000
000000
000000
000000
ENDCHAR

STARTCHAR A3CF
ENCODING 41935
SWIDTH 960 0
DWIDTH 24 0
BBX 24 24 0 -6
BITMAP
000000
007E00
018180
0300C0
060060
0C0030
0C0030
0C0030
0C0030
0C0030
0C0030
0C0030
0C0030
0C0030
0C0030
060060
0300C0
018180
007E00
000000
000000
000000
000000
000000
ENDCHAR

STARTCHAR A3D0
ENCODING 41936
SWIDTH 960 0
DWIDTH 24 0
BBX 24 24 0 -6
BITMAP
000000
07FF00
018180
0180C0
0180C0
0180C0
0180C0
0180C0
018180
01FF00
018000
018000
018000
018000
018000
018000
018000
018000
07F000
000000
000000
000000
000000
000000
ENDCHAR

STARTCHAR A3D1
ENCODING 41937
SWIDTH 960 0
DWIDTH 24 0
BBX 24 24 0 -6
BITMAP
000000
007E00
018180
0300C0
060060
060060
0C0030
0C0030
0C0030
0C0030
0C0030
0C0030
0C0030
0C0030
060060
063860
0344C0
018380
007F00
000110
0001E0
0000C0
000000
000000
ENDCHAR

STARTCHAR A3D2
ENCODING 41938
SWIDTH 960 0
DWIDTH 24 0
BBX 24 24 0 -6
BITMAP
000000
07FF00
018180
0180C0
0180C0
0180C0
0180C0
0180C0
018180
01FF00
018C00
018C00
018600
018600
018300
018180
018180
0180C0
07E0F0
000000
000000
000000
000000
000000
ENDCHAR

STARTCHAR A3D3
ENCODING 41939
SWIDTH 960 0
DWIDTH 24 0
BBX 24 24 0 -6
BITMAP
000000
003E40
00C1C0
0180C0
018040
018040
00C000
006000
003800
000E00
000300
000180
0000C0
0000C0
0100C0
0100C0
0180C0
01C180
013E00
000000
000000
000000
000000
000000
ENDCHAR

STARTCHAR A3D4
ENCODING 41940
SWIDTH 960 0
DWIDTH 24 0
BBX 24 24 0 -6
BITMAP
000000
0FFFF0
0C1830
081810
081810
001800
001800
001800
001800
001800
001800
001800
001800
001800
001800
001800
001800
001800
007E00
000000
000000
000000
000000
000000
ENDCHAR

STARTCHAR A3D5
ENCODING 41941
SWIDTH 960 0
DWIDTH 24 0
BBX 24 24 0 -6
BITMAP
000000
1F80F8
060020
060020
060020
060020
060020
060020
060020
060020
060020
060020
060020
060020
060020
060020
020040
010080
00FF00
000000
000000
000000
000000
000000
ENDCHAR

STARTCHAR A3D6
ENCODING 41942
SWIDTH 960 0
DWIDTH 24 0
BBX 24 24 0 -6
BITMAP
000000
1F81F0
060040
060040
030080
030080
030080
018100
018100
00C100
00C200
00C200
006200
006400
003400
003400
003800
001800
001800
000000
000000
000000
000000
000000
ENDCHAR

STARTCHAR A3D7
ENCODING 41943
SWIDTH 960 0
DWIDTH 24 0
BBX 24 24 0 -6
BITMAP
000000
7C7E3E
181808
181808
181C08
081C10
0C1C10
0C1610
0C2610
042620
062320
064320
064320
024140
0381C0
0381C0
0381C0
010080
010080
000000
000000
000000
000000
000000
ENDCHAR

STARTCHAR A3D8
ENCODING 41944
SWIDTH 960 0
DWIDTH 24 0
BBX 24 24 0 -6
BITMAP
000000
0FC3F0
030080
018100
00C200
006200
006400
003400
001800
001800
002C00
002600
004600
004300
008180
008180
0100C0
020060
1F81F8
000000
000000
000000
000000
000000
ENDCHAR

STARTCHAR A3D9
ENCODING 41945
SWIDTH 960 0
DWIDTH 24 0
BBX 24 24 0 -6
BITMAP
000000
1F81F0
060040
030080
018080
018100
00C100
006200
006200
003400
003400
001800
001800
001800
001800
001800
001800
001800
007E00
000000
000000
000000
000000
000000
ENDCHAR

STARTCHAR A3DA
ENCODING 41946
SWIDTH 960 0
DWIDTH 24 0
BBX 24 24 0 -6
BITMAP
000000
03FFC0
0300C0
020180
020300
000600
000600
000C00
001800
001800
003000
006000
006000
00C000
018040
018040
030040
0600C0
07FFC0
000000
000000
000000
000000
000000
ENDCHAR

STARTCHAR A3DB
ENCODING 41947
SWIDTH 960 0
DWIDTH 24 0
BBX 24 24 0 -6
BITMAP
000000
0003FC
000200
000200
000200
000200
000200
000200
000200
000200
000200
000200
000200
000200
000200
000200
000200
000200
000200
000200
000200
000200
0003FC
000000
ENDCHAR

STARTCHAR A3DC
ENCODING 41948
SWIDTH 960 0
DWIDTH 24 0
BBX 24 24 0 -6
BITMAP
000000
000000
000000
100000
080000
040000
020000
010000
008000
004000
002000
001000
000800
000400
000200
000100
000080
000040
000020
000010
000008
000000
000000
000000
ENDCHAR

STARTCHAR A3DD
ENCODING 41949
SWIDTH 960 0
DWIDTH 24 0
BBX 24 24 0 -6
BITMAP
000000
3FC000
004000
004000
004000
004000
004000
004000
004000
004000
004000
004000
004000
004000
004000
004000
004000
004000
004000
004000
004000
004000
3FC000
000000
ENDCHAR

STARTCHAR A3DE
ENCODING 41950
SWIDTH 960 0
DWIDTH 24 0
BBX 24 24 0 -6
BITMAP
000000
000000
000000
001000
002800
004400
008200
000000
000000
000000
000000
000000
000000
000000
000000
000000
000000
000000
000000
000000
000000
000000
000000
000000
ENDCHAR

STARTCHAR A3DF
ENCODING 41951
SWIDTH 960 0
DWIDTH 24 0
BBX 24 24 0 -6
BITMAP
000000
000000
000000
000000
000000
000000
000000
000000
000000
000000
000000
000000
000000
000000
000000
000000
000000
000000
000000
000000
000000
000000
7FFFFE
000000
ENDCHAR

STARTCHAR A3E0
ENCODING 41952
SWIDTH 960 0
DWIDTH 24 0
BBX 24 24 0 -6
BITMAP
000000
000040
0000E0
0000E0
000060
000060
000020
000030
000010
000008
000000
000000
000000
000000
000000
000000
000000
000000
000000
000000
000000
000000
000000
000000
ENDCHAR

STARTCHAR A3E1
ENCODING 41953
SWIDTH 960 0
DWIDTH 24 0
BBX 24 24 0 -6
BITMAP
000000
000000
000000
000000
000000
000000
000000
007800
00C600
018300
018300
000F00
007300
00C300
018300
018300
018700
019B40
00E380
000000
000000
000000
000000
000000
ENDCHAR

STARTCHAR A3E2
ENCODING 41954
SWIDTH 960 0
DWIDTH 24 0
BBX 24 24 0 -6
BITMAP
000000
004000
01C000
00C000
00C000
00C000
00C000
00DC00
00E300
00C180
00C180
00C180
00C180
00C180
00C180
00C180
00C180
00E300
009C00
000000
000000
000000
000000
000000
ENDCHAR

STARTCHAR A3E3
ENCODING 41955
SWIDTH 960 0
DWIDTH 24 0
BBX 24 24 0 -6
BITMAP
000000
000000
000000
000000
000000
000000
000000
003C00
00C300
018300
018000
018000
018000
018000
018000
018000
018100
00C200
003C00
000000
000000
000000
000000
000000
ENDCHAR

STARTCHAR A3E4
ENCODING 41956
SWIDTH 960 0
DWIDTH 24 0
BBX 24 24 0 -6
BITMAP
000000
000100
000700
000300
000300
000300
000300
003B00
00C700
018300
018300
018300
018300
018300
018300
018300
018300
00C780
003A00
000000
000000
000000
000000
000000
ENDCHAR

STARTCHAR A3E5
ENCODING 41957
SWIDTH 960 0
DWIDTH 24 0
BBX 24 24 0 -6
BITMAP
000000
000000
000000
000000
000000
000000
000000
007C00
00C200
018300
018300
018300
01FF00
018000
018000
018100
018100
00C200
003C00
000000
000000
000000
000000
000000
ENDCHAR

STARTCHAR A3E6
ENCODING 41958
SWIDTH 960 0
DWIDTH 24 0
BBX 24 24 0 -6
BITMAP
000000
000700
000D80
001980
001800
001800
001800
007E00
001800
001800
001800
001800
001800
001800
001800
001800
001800
001800
007E00
000000
000000
000000
000000
000000
ENDCHAR

STARTCHAR A3E7
ENCODING 41959
SWIDTH 960 0
DWIDTH 24 0
BBX 24 24 0 -6
BITMAP
000000
000000
000000
000000
000000
000000
000000
003C80
006380
00C180
00C180
00C180
00C180
00C180
00C180
00C180
006380
003D80
000180
00C180
00C180
006300
003E00
000000
ENDCHAR

STARTCHAR A3E8
ENCODING 41960
SWIDTH 960 0
DWIDTH 24 0
BBX 24 24 0 -6
BITMAP
000000
004000
01C000
00C000
00C000
00C000
00C000
00CF00
00D180
00E180
00C180
00C180
00C180
00C180
00C180
00C180
00C180
00C180
03E3E0
000000
000000
000000
000000
000000
ENDCHAR

STARTCHAR A3E9
ENCODING 41961
SWIDTH 960 0
DWIDTH 24 0
BBX 24 24 0 -6
BITMAP
000000
001800
003C00
001800
000000
000000
000000
000800
003800
001800
001800
001800
001800
001800
001800
001800
001800
001800
007E00
000000
000000
000000
000000
000000
ENDCHAR

STARTCHAR A3EA
ENCODING 41962
SWIDTH 960 0
DWIDTH 24 0
BBX 24 24 0 -6
BITMAP
000000
001800
003C00
001800
000000
000000
000000
000800
003800
001800
001800
001800
001800
001800
001800
001800
001800
001800
001800
009800
01D800
019800
00F000
000000
ENDCHAR

STARTCHAR A3EB
ENCODING 41963
SWIDTH 960 0
DWIDTH 24 0
BBX 24 24 0 -6
BITMAP
000000
002000
00E000
006000
006000
006000
006000
0063E0
006180
006300
006600
006C00
007800
006C00
006600
006300
006180
0060C0
01F1F0
000000
000000
000000
000000
000000
ENDCHAR

STARTCHAR A3EC
ENCODING 41964
SWIDTH 960 0
DWIDTH 24 0
BBX 24 24 0 -6
BITMAP
000000
000800
001800
003800
001800
001800
001800
001800
001800
001800
001800
001800
001800
001800
001800
001800
001800
001900
000E00
000000
000000
000000
000000
000000
ENDCHAR

STARTCHAR A3ED
ENCODING 41965
SWIDTH 960 0
DWIDTH 24 0
BBX 24 24 0 -6
BITMAP
000000
000000
000000
000000
000000
000000
000000
0271C0
0E9A60
071C60
061860
061860
061860
061860
061860
061860
061860
061860
0F3CF0
000000
000000
000000
000000
000000
ENDCHAR

STARTCHAR A3EE
ENCODING 41966
SWIDTH 960 0
DWIDTH 24 0
BBX 24 24 0 -6
BITMAP
000000
000000
000000
000000
000000
000000
000000
009E00
03A300
01C300
018300
018300
018300
018300
018300
018300
018300
018300
07C7C0
000000
000000
000000
000000
000000
ENDCHAR

STARTCHAR A3EF
ENCODING 41967
SWIDTH 960 0
DWIDTH 24 0
BBX 24 24 0 -6
BITMAP
000000
000000
000000
000000
000000
000000
000000
007C00
018300
010100
030180
030180
030180
030180
030180
030180
010100
018300
007C00
000000
000000
000000
000000
000000
ENDCHAR

STARTCHAR A3F0
ENCODING 41968
SWIDTH 960 0
DWIDTH 24 0
BBX 24 24 0 -6
BITMAP
000000
000000
000000
000000
000000
000000
000000
00BC00
00C300
00C180
00C180
00C180
00C180
00C180
00C180
00C180
00C180
00E300
00DC00
00C000
00C000
00C000
03F000
000000
ENDCHAR

STARTCHAR A3F1
ENCODING 41969
SWIDTH 960 0
DWIDTH 24 0
BBX 24 24 0 -6
BITMAP
000000
000000
000000
000000
000000
000000
000000
003D00
00C300
018300
018300
018300
018300
018300
018300
018300
008300
00C700
003B00
000300
000300
000300
000F80
000000
ENDCHAR

STARTCHAR A3F2
ENCODING 41970
SWIDTH 960 0
DWIDTH 24 0
BBX 24 24 0 -6
BITMAP
000000
000000
000000
000000
000000
000000
000000
001300
007780
003800
003000
003000
003000
003000
003000
003000
003000
003000
00FC00
000000
000000
000000
000000
000000
ENDCHAR

STARTCHAR A3F3
ENCODING 41971
SWIDTH 960 0
DWIDTH 24 0
BBX 24 24 0 -6
BITMAP
000000
000000
000000
000000
000000
000000
000000
003D00
006300
00C100
00C000
006000
003800
000E00
000300
000300
008300
00C600
00BC00
000000
000000
000000
000000
000000
ENDCHAR

STARTCHAR A3F4
ENCODING 41972
SWIDTH 960 0
DWIDTH 24 0
BBX 24 24 0 -6
BITMAP
000000
000000
000000
003000
003000
003000
003000
00FC00
003000
003000
003000
003000
003000
003000
003000
003000
003000
003200
001C00
000000
000000
000000
000000
000000
ENDCHAR

STARTCHAR A3F5
ENCODING 41973
SWIDTH 960 0
DWIDTH 24 0
BBX 24 24 0 -6
BITMAP
000000
000000
000000
000000
000000
000000
000000
038700
018300
018300
018300
018300
018300
018300
018300
018300
018700
018BC0
00F300
000000
000000
000000
000000
000000
ENDCHAR

STARTCHAR A3F6
ENCODING 41974
SWIDTH 960 0
DWIDTH 24 0
BBX 24 24 0 -6
BITMAP
000000
000000
000000
000000
000000
000000
000000
03C1E0
018080
018080
00C100
00C100
006100
006200
003200
003200
001C00
001C00
000800
000000
000000
000000
000000
000000
ENDCHAR

STARTCHAR A3F7
ENCODING 41975
SWIDTH 960 0
DWIDTH 24 0
BBX 24 24 0 -6
BITMAP
000000
000000
000000
000000
000000
000000
000000
0E3CE0
061840
061840
021840
032880
032C80
032C80
034D00
01C700
01C700
008200
008200
000000
000000
000000
000000
000000
ENDCHAR

STARTCHAR A3F8
ENCODING 41976
SWIDTH 960 0
DWIDTH 24 0
BBX 24 24 0 -6
BITMAP
000000
000000
000000
000000
000000
000000
000000
03C3C0
018080
00C100
006200
003400
001800
002C00
004600
008300
010180
0200C0
0781E0
000000
000000
000000
000000
000000
ENDCHAR

STARTCHAR A3F9
ENCODING 41977
SWIDTH 960 0
DWIDTH 24 0
BBX 24 24 0 -6
BITMAP
000000
000000
000000
000000
000000
000000
000000
03C1E0
018080
00C080
00C180
006100
006300
003200
003600
001C00
001C00
000800
001800
031000
033000
026000
01C000
000000
ENDCHAR

STARTCHAR A3FA
ENCODING 41978
SWIDTH 960 0
DWIDTH 24 0
BBX 24 24 0 -6
BITMAP
000000
000000
000000
000000
000000
000000
000000
01FF00
018300
010600
000C00
000C00
001800
003000
006000
006000
00C100
018300
01FF00
000000
000000
000000
000000
000000
ENDCHAR

STARTCHAR A3FB
ENCODING 41979
SWIDTH 960 0
DWIDTH 24 0
BBX 24 24 0 -6
BITMAP
000000
000010
000020
000040
0000C0
0000C0
0000C0
0000C0
0000C0
0000C0
000180
000300
000180
0000C0
0000C0
0000C0
0000C0
0000C0
0000C0
000040
000020
000010
000000
000000
ENDCHAR

STARTCHAR A3FC
ENCODING 41980
SWIDTH 960 0
DWIDTH 24 0
BBX 24 24 0 -6
BITMAP
000000
001000
001000
001000
001000
001000
001000
001000
001000
001000
001000
001000
001000
001000
001000
001000
001000
001000
001000
001000
001000
001000
001000
000000
ENDCHAR

STARTCHAR A3FD
ENCODING 41981
SWIDTH 960 0
DWIDTH 24 0
BBX 24 24 0 -6
BITMAP
000000
080000
040000
020000
030000
030000
030000
030000
030000
030000
018000
00C000
018000
030000
030000
030000
030000
030000
030000
020000
040000
080000
000000
000000
ENDCHAR

STARTCHAR A3FE
ENCODING 41982
SWIDTH 960 0
DWIDTH 24 0
BBX 24 24 0 -6
BITMAP
000000
7FFFFE
000000
000000
000000
000000
000000
000000
000000
000000
000000
000000
000000
000000
000000
000000
000000
000000
000000
000000
000000
000000
000000
000000
ENDCHAR

STARTCHAR A4A1
ENCODING 42145
SWIDTH 960 0
DWIDTH 24 0
BBX 24 24 0 -6
BITMAP
000000
000000
000000
000000
000000
000000
000000
000000
004000
006000
003200
023F00
01E000
002400
003F00
00E580
01A8C0
0330C0
0270C0
02D180
030300
000E00
000000
000000
ENDCHAR

STARTCHAR A4A2
ENCODING 42146
SWIDTH 960 0
DWIDTH 24 0
BBX 24 24 0 -6
BITMAP
000000
000000
004000
003000
003000
002180
0C27C0
07FE00
01E000
004400
005F80
00F4E0
034470
064C38
0C7818
083018
186018
18F018
199030
0F0060
0C00C0
000380
007E00
000000
ENDCHAR

STARTCHAR A4A3
ENCODING 42147
SWIDTH 960 0
DWIDTH 24 0
BBX 24 24 0 -6
BITMAP
000000
000000
000000
000000
000000
000000
000000
000000
000000
000000
000000
020000
030100
018180
0180C0
0180C0
018860
019860
00F060
00E000
007000
003000
000000
000000
ENDCHAR

STARTCHAR A4A4
ENCODING 42148
SWIDTH 960 0
DWIDTH 24 0
BBX 24 24 0 -6
BITMAP
000000
000000
000000
000000
180000
0C0000
0E0180
0E00C0
0C0060
0C0030
0C0030
0C0018
0C2018
0C2018
0C6038
064038
06C010
038000
01C000
00C000
000000
000000
000000
000000
ENDCHAR

STARTCHAR A4A5
ENCODING 42149
SWIDTH 960 0
DWIDTH 24 0
BBX 24 24 0 -6
BITMAP
000000
000000
000000
000000
000000
000000
000000
000000
004000
003C00
001800
002000
010000
033C00
03E600
018300
000300
000300
000300
000600
000C00
007800
000000
000000
ENDCHAR

STARTCHAR A4A6
ENCODING 42150
SWIDTH 960 0
DWIDTH 24 0
BBX 24 24 0 -6
BITMAP
000000
000000
007000
001F00
000600
001C00
000000
000000
011F00
027180
06C0C0
0780C0
0300C0
0000C0
0000C0
0000C0
0000C0
000180
000300
000600
001C00
007000
000000
000000
ENDCHAR

STARTCHAR A4A7
ENCODING 42151
SWIDTH 960 0
DWIDTH 24 0
BBX 24 24 0 -6
BITMAP
000000
000000
000000
000000
000000
000000
000000
000000
000000
004000
003C00
001800
002000
010600
03FE00
018C00
001800
007800
00C800
018800
030980
060FC0
000000
000000
ENDCHAR

STARTCHAR A4A8
ENCODING 42152
SWIDTH 960 0
DWIDTH 24 0
BBX 24 24 0 -6
BITMAP
000000
000000
018000
00FC00
001E00
003000
006000
000C00
047F00
0FC700
060600
000C00
001800
003000
007800
00CC00
018C00
030C00
060C00
0C0C30
0C0FF8
0007F8
000000
000000
ENDCHAR

STARTCHAR A4A9
ENCODING 42153
SWIDTH 960 0
DWIDTH 24 0
BBX 24 24 0 -6
BITMAP
000000
000000
000000
000000
000000
000000
000000
000000
008000
00C000
004700
005180
047200
03C000
004F00
007980
00C0C0
0340C0
0658C0
05CF80
00C700
004000
000000
000000
ENDCHAR

STARTCHAR A4AA
ENCODING 42154
SWIDTH 960 0
DWIDTH 24 0
BBX 24 24 0 -6
BITMAP
000000
000000
010000
00C000
00E000
00C060
00CC38
00DE1C
11F03C
0FC060
00C000
00C7C0
00DC60
00F030
01C018
07C018
0CD018
1CD038
1BD870
01CFE0
018380
008000
000000
000000
ENDCHAR

STARTCHAR A4AB
ENCODING 42155
SWIDTH 960 0
DWIDTH 24 0
BBX 24 24 0 -6
BITMAP
000000
000000
018000
00C000
00E000
00C000
008000
008000
23F8C0
3F8C60
190630
030618
030618
030618
06061C
060C3C
0C0CE0
0D0C00
199800
38F800
307000
006000
000000
000000
ENDCHAR

STARTCHAR A4AC
ENCODING 42156
SWIDTH 960 0
DWIDTH 24 0
BBX 24 24 0 -6
BITMAP
000000
000000
018000
00C018
00E00C
00C060
008030
008000
23F8C0
3F8C60
190630
030618
030618
030618
06061C
060C3C
0C0CE0
0D0C00
199800
38F800
307000
006000
000000
000000
ENDCHAR

STARTCHAR A4AD
ENCODING 42157
SWIDTH 960 0
DWIDTH 24 0
BBX 24 24 0 -6
BITMAP
000000
000000
00E000
007000
003000
0011C0
081F80
07FC00
01F800
000C60
0807F0
07FF80
01F300
000180
0000C0
01FEC0
0303E0
060060
060000
070000
03FF80
00FFC0
000000
000000
ENDCHAR

STARTCHAR A4AE
ENCODING 42158
SWIDTH 960 0
DWIDTH 24 0
BBX 24 24 0 -6
BITMAP
000000
000000
00E008
00700C
003024
0011B0
081F90
07FC00
01F800
000C60
0807F0
07FF80
01F300
000180
0000C0
01FEC0
0303E0
060060
060000
070000
03FF80
00FFC0
000000
000000
ENDCHAR

STARTCHAR A4AF
ENCODING 42159
SWIDTH 960 0
DWIDTH 24 0
BBX 24 24 0 -6
BITMAP
000000
000000
000600
000300
000700
000E00
001C00
001800
003000
006000
00C000
018000
018000
00C000
006000
003800
001C00
000E00
000700
000380
000380
000180
000000
000000
ENDCHAR

STARTCHAR A4B0
ENCODING 42160
SWIDTH 960 0
DWIDTH 24 0
BBX 24 24 0 -6
BITMAP
000000
000000
000600
000300
000700
000E10
001C18
001888
0030C0
006040
00C000
018000
018000
00C000
006000
003800
001C00
000E00
000700
000380
000380
000180
000000
000000
ENDCHAR

STARTCHAR A4B1
ENCODING 42161
SWIDTH 960 0
DWIDTH 24 0
BBX 24 24 0 -6
BITMAP
000000
000000
000300
080180
0C01C0
060180
060180
0C41B8
0C7FFC
183F80
180180
180180
190180
190180
1B0180
1E0180
0C0300
0E0300
060600
000C00
003800
00E000
000000
000000
ENDCHAR

STARTCHAR A4B2
ENCODING 42162
SWIDTH 960 0
DWIDTH 24 0
BBX 24 24 0 -6
BITMAP
000000
000010
000618
100328
1803B0
0C0310
0C0300
188370
18FFF8
307F00
300300
300300
320300
320300
360300
3C0300
180600
1C0600
0C0C00
001800
007000
01C000
000000
000000
ENDCHAR

STARTCHAR A4B3
ENCODING 42163
SWIDTH 960 0
DWIDTH 24 0
BBX 24 24 0 -6
BITMAP
000000
000000
000000
000000
060600
03FF00
00FE00
000C00
001000
000000
000000
020000
060000
0C0000
080000
080000
0C0000
0E0180
07FFC0
01FF80
000000
000000
000000
000000
ENDCHAR

STARTCHAR A4B4
ENCODING 42164
SWIDTH 960 0
DWIDTH 24 0
BBX 24 24 0 -6
BITMAP
000000
000000
000008
00004C
060664
03FF20
00FE00
000C00
001000
000000
000000
020000
060000
0C0000
080000
080000
0C0000
0E0180
07FFC0
01FF80
000000
000000
000000
000000
ENDCHAR

STARTCHAR A4B5
ENCODING 42165
SWIDTH 960 0
DWIDTH 24 0
BBX 24 24 0 -6
BITMAP
000000
000000
001800
003000
003000
001800
081870
060BE0
03FF00
000400
000600
000300
000180
00FCC0
0387C0
0601E0
060060
060000
060000
03C000
01FF80
003F00
000000
000000
ENDCHAR

STARTCHAR A4B6
ENCODING 42166
SWIDTH 960 0
DWIDTH 24 0
BBX 24 24 0 -6
BITMAP
000000
000008
00304C
006064
006020
003000
1030E0
0C17C0
07FE00
000800
000C00
000600
000300
01F980
070F80
0C03C0
0C00C0
0C0000
0C0000
078000
03FF00
007E00
000000
000000
ENDCHAR

STARTCHAR A4B7
ENCODING 42167
SWIDTH 960 0
DWIDTH 24 0
BBX 24 24 0 -6
BITMAP
000000
000000
040000
030000
038000
038000
030000
030000
030000
030000
030000
030000
030000
030000
030010
030010
030030
030060
0300C0
01C380
00FF00
007C00
000000
000000
ENDCHAR

STARTCHAR A4B8
ENCODING 42168
SWIDTH 960 0
DWIDTH 24 0
BBX 24 24 0 -6
BITMAP
000000
000000
040000
030000
038080
0380C0
030440
030600
030200
030000
030000
030000
030000
030000
030010
030010
030030
030060
0300C0
01C380
00FF00
007C00
000000
000000
ENDCHAR

STARTCHAR A4B9
ENCODING 42169
SWIDTH 960 0
DWIDTH 24 0
BBX 24 24 0 -6
BITMAP
000000
000000
001800
000C00
000C00
000800
200818
3FFFFC
180800
000800
00F800
019800
030C00
030C00
030C00
019C00
00E800
000800
001800
003000
00E000
078000
000000
000000
ENDCHAR

STARTCHAR A4BA
ENCODING 42170
SWIDTH 960 0
DWIDTH 24 0
BBX 24 24 0 -6
BITMAP
000000
000000
001848
000C6C
000C24
000800
200818
3FFFFC
180800
000800
00F800
019800
030C00
030C00
030C00
019C00
00E800
000800
001800
003000
00E000
078000
000000
000000
ENDCHAR

STARTCHAR A4BB
ENCODING 42171
SWIDTH 960 0
DWIDTH 24 0
BBX 24 24 0 -6
BITMAP
000000
000000
000000
000300
060180
030180
038300
030300
030318
2303FC
3FFF00
1F0300
030300
033300
031B00
030F00
030600
030000
038000
01FFC0
007FE0
000000
000000
000000
ENDCHAR

STARTCHAR A4BC
ENCODING 42172
SWIDTH 960 0
DWIDTH 24 0
BBX 24 24 0 -6
BITMAP
000000
000000
000018
00030C
060180
0301B0
038398
030300
030318
2303FC
3FFF00
1F0300
030300
033300
031B00
030F00
030600
030000
038000
01FFC0
007FE0
000000
000000
000000
ENDCHAR

STARTCHAR A4BD
ENCODING 42173
SWIDTH 960 0
DWIDTH 24 0
BBX 24 24 0 -6
BITMAP
000000
000000
000300
020780
033F00
03E600
018C00
001800
007000
00C070
018FF8
07FF00
1F9C00
0E3000
006000
006000
006000
006000
003000
001FC0
000FE0
000000
000000
000000
ENDCHAR

STARTCHAR A4BE
ENCODING 42174
SWIDTH 960 0
DWIDTH 24 0
BBX 24 24 0 -6
BITMAP
000000
000000
000610
040F18
067E48
07CC60
031820
003000
00E000
0180E0
031FF0
0FFE00
3F3800
1C6000
00C000
00C000
00C000
00C000
006000
003F80
001FC0
000000
000000
000000
ENDCHAR

STARTCHAR A4BF
ENCODING 42175
SWIDTH 960 0
DWIDTH 24 0
BBX 24 24 0 -6
BITMAP
000000
000000
008000
01C000
00E000
00C000
00D800
00F800
11E1E0
1F8370
0D8460
0180C0
030000
030000
030000
060400
060800
061800
0C1830
180FF8
1807F0
000000
000000
000000
ENDCHAR

STARTCHAR A4C0
ENCODING 42176
SWIDTH 960 0
DWIDTH 24 0
BBX 24 24 0 -6
BITMAP
000000
000000
008008
01C04C
00E064
00C020
00D800
00F800
11E1E0
1F8370
0D8460
0180C0
030000
030000
030000
060400
060800
061800
0C1830
180FF8
1807F0
000000
000000
000000
ENDCHAR

STARTCHAR A4C1
ENCODING 42177
SWIDTH 960 0
DWIDTH 24 0
BBX 24 24 0 -6
BITMAP
000000
000000
018000
00C000
00E180
00C7C0
10FE00
0FF000
06C000
00C000
00C000
0083C0
008E60
01B830
01E018
03C018
030018
000018
000030
0001E0
000F80
01F800
000000
000000
ENDCHAR

STARTCHAR A4C2
ENCODING 42178
SWIDTH 960 0
DWIDTH 24 0
BBX 24 24 0 -6
BITMAP
000000
000000
030000
018000
01C310
018F98
21FC08
1FE040
0D8060
018020
018000
010780
011CC0
037060
03C030
078030
060030
000030
000060
0003C0
001F00
03F000
000000
000000
ENDCHAR

STARTCHAR A4C3
ENCODING 42179
SWIDTH 960 0
DWIDTH 24 0
BBX 24 24 0 -6
BITMAP
000000
000000
000000
000000
000000
000000
000000
000000
000000
000000
000000
000000
000000
001F00
047180
07C0C0
030060
000060
000060
0000C0
000180
001F00
000000
000000
ENDCHAR

STARTCHAR A4C4
ENCODING 42180
SWIDTH 960 0
DWIDTH 24 0
BBX 24 24 0 -6
BITMAP
000000
000000
000000
000000
000000
000000
000780
003FE0
11F878
1FC018
0E001C
00000C
00000C
000018
000018
000030
0000F0
0007C0
007C00
000000
000000
000000
000000
000000
ENDCHAR

STARTCHAR A4C5
ENCODING 42181
SWIDTH 960 0
DWIDTH 24 0
BBX 24 24 0 -6
BITMAP
000000
000000
000018
00000C
000060
000030
000000
000F00
007FC0
23F0F0
3F8030
1C0038
000018
000018
000030
000030
000060
0001E0
000F80
00F800
000000
000000
000000
000000
ENDCHAR

STARTCHAR A4C6
ENCODING 42182
SWIDTH 960 0
DWIDTH 24 0
BBX 24 24 0 -6
BITMAP
000000
000000
000000
000000
0000F8
30FFFC
1F8300
0E0600
001C00
003000
002000
006000
00C000
00C000
00C000
00E000
006000
003000
003FE0
000FF0
000000
000000
000000
000000
ENDCHAR

STARTCHAR A4C7
ENCODING 42183
SWIDTH 960 0
DWIDTH 24 0
BBX 24 24 0 -6
BITMAP
000000
000000
000000
00000C
0007B6
30FFDA
1F8C08
0E1800
003000
003000
006000
006000
00C000
00C000
00C000
00C000
006000
007000
003F80
000FC0
000000
000000
000000
000000
ENDCHAR

STARTCHAR A4C8
ENCODING 42184
SWIDTH 960 0
DWIDTH 24 0
BBX 24 24 0 -6
BITMAP
000000
000000
006000
003000
003800
003000
003000
003000
003000
0030C0
0013E0
001F00
00F000
018000
030000
060000
0C0000
0C0000
0E0000
070060
01FFF0
00FFF0
000000
000000
ENDCHAR

STARTCHAR A4C9
ENCODING 42185
SWIDTH 960 0
DWIDTH 24 0
BBX 24 24 0 -6
BITMAP
000000
000000
006000
003010
003818
003048
003060
003020
003000
0030C0
0013E0
001F00
00F000
018000
030000
060000
0C0000
0C0000
0E0000
070060
01FFF0
00FFF0
000000
000000
ENDCHAR

STARTCHAR A4CA
ENCODING 42186
SWIDTH 960 0
DWIDTH 24 0
BBX 24 24 0 -6
BITMAP
000000
000000
000000
018000
00C000
00C000
0099F0
11F838
0F8070
078100
018200
030200
030300
030180
060180
0600C0
0C1EC0
0C33C0
0860F0
0061B8
003F18
000E00
000000
000000
ENDCHAR

STARTCHAR A4CB
ENCODING 42187
SWIDTH 960 0
DWIDTH 24 0
BBX 24 24 0 -6
BITMAP
000000
000000
000000
0C0000
060000
030000
0320F0
031FF8
0600C0
060180
060300
0C0000
0C0000
0D1000
091000
0B3000
0A3000
0E1818
060FFC
0707F8
030000
000000
000000
000000
ENDCHAR

STARTCHAR A4CC
ENCODING 42188
SWIDTH 960 0
DWIDTH 24 0
BBX 24 24 0 -6
BITMAP
000000
000000
000000
000000
000800
080C00
040C00
060F80
0278E0
02C830
039818
071018
053018
0DA018
19E018
18C018
30E3D8
31F470
3B3438
1E03EC
0C01CC
000000
000000
000000
ENDCHAR

STARTCHAR A4CD
ENCODING 42189
SWIDTH 960 0
DWIDTH 24 0
BBX 24 24 0 -6
BITMAP
000000
000000
000000
030000
01C000
00C000
0083C0
008660
11CC30
1F9818
0CB018
01E018
03C018
028018
068018
048018
0C83D8
1E8678
1B8438
01866C
0183CC
010000
000000
000000
ENDCHAR

STARTCHAR A4CE
ENCODING 42190
SWIDTH 960 0
DWIDTH 24 0
BBX 24 24 0 -6
BITMAP
000000
000000
000000
000000
003F00
00F1C0
018860
030830
060818
0C1818
0C180C
18180C
18300C
18300C
186018
18C018
0D8030
078060
0301C0
001F00
000000
000000
000000
000000
ENDCHAR

STARTCHAR A4CF
ENCODING 42191
SWIDTH 960 0
DWIDTH 24 0
BBX 24 24 0 -6
BITMAP
000000
000000
000000
060180
0300E0
0300E0
0300C0
0600F8
0623FC
061FC0
0600C0
0C00C0
0C00C0
0C80C0
0C80C0
0D80C0
0D0FE0
0718F8
0610DC
061FCC
020780
000000
000000
000000
ENDCHAR

STARTCHAR A4D0
ENCODING 42192
SWIDTH 960 0
DWIDTH 24 0
BBX 24 24 0 -6
BITMAP
000000
000000
000004
000006
0C0312
0601D8
0601C8
060180
0C01F0
0C47F8
0C3F80
0C0180
180180
180180
190180
190180
1B0180
1A1FC0
0E31F0
0C21B8
0C3F98
040F00
000000
000000
ENDCHAR

STARTCHAR A4D1
ENCODING 42193
SWIDTH 960 0
DWIDTH 24 0
BBX 24 24 0 -6
BITMAP
000000
000000
00000C
000012
0C0332
0601D2
0601CC
060180
0C01F0
0C47F8
0C3F80
0C0180
180180
180180
190180
190180
1B0180
1A1FC0
0E31F0
0C21B8
0C3F98
040F00
000000
000000
ENDCHAR

STARTCHAR A4D2
ENCODING 42194
SWIDTH 960 0
DWIDTH 24 0
BBX 24 24 0 -6
BITMAP
000000
000000
000000
003000
087180
0FF180
0661C0
00C1C0
0180E0
0300A0
0600B0
0C0098
0C008C
0C009C
0C01BC
0C018C
0C0180
060300
060E00
03FC00
01F000
000000
000000
000000
ENDCHAR

STARTCHAR A4D3
ENCODING 42195
SWIDTH 960 0
DWIDTH 24 0
BBX 24 24 0 -6
BITMAP
000000
000000
00000C
000006
003030
087198
0FF180
0661C0
00C1C0
0180E0
0300A0
0600B0
0C0098
0C008C
0C009C
0C01BC
0C018C
0C0180
060300
060E00
03FC00
01F000
000000
000000
ENDCHAR

STARTCHAR A4D4
ENCODING 42196
SWIDTH 960 0
DWIDTH 24 0
BBX 24 24 0 -6
BITMAP
000000
000018
000024
000066
003024
087198
0FF180
0661C0
00C1C0
0180E0
0300A0
0600B0
0C0098
0C008C
0C009C
0C01BC
0C018C
0C0180
060300
060E00
03FC00
01F000
000000
000000
ENDCHAR

STARTCHAR A4D5
ENCODING 42197
SWIDTH 960 0
DWIDTH 24 0
BBX 24 24 0 -6
BITMAP
000000
000000
000000
002000
003000
001C00
000E00
000E00
003800
006000
00C000
006000
003000
0018C0
000C60
00C638
01860C
16060E
3F063E
39FC46
107800
000000
000000
000000
ENDCHAR

STARTCHAR A4D6
ENCODING 42198
SWIDTH 960 0
DWIDTH 24 0
BBX 24 24 0 -6
BITMAP
000000
000000
000000
002000
003000
001C00
000E18
000E0C
003866
006030
00C018
006000
003000
0018C0
000C60
00C638
01860C
16060E
3F063E
39FC46
107800
000000
000000
000000
ENDCHAR

STARTCHAR A4D7
ENCODING 42199
SWIDTH 960 0
DWIDTH 24 0
BBX 24 24 0 -6
BITMAP
000000
000000
000000
002000
003000
001C00
000E18
000E24
003866
006024
00C018
006000
003000
0018C0
000C60
00C638
01860C
16060E
3F063E
39FC46
107800
000000
000000
000000
ENDCHAR

STARTCHAR A4D8
ENCODING 42200
SWIDTH 960 0
DWIDTH 24 0
BBX 24 24 0 -6
BITMAP
000000
000000
000000
000000
000000
000000
000000
006000
00F800
018C00
030600
260300
3E0180
1C00C0
080070
00003C
00001E
00000E
000000
000000
000000
000000
000000
000000
ENDCHAR

STARTCHAR A4D9
ENCODING 42201
SWIDTH 960 0
DWIDTH 24 0
BBX 24 24 0 -6
BITMAP
000000
000000
000000
000000
000000
000000
000018
00600C
00F860
018C30
030600
260300
3E0180
1C00C0
080070
00003C
00001E
00000E
000000
000000
000000
000000
000000
000000
ENDCHAR

STARTCHAR A4DA
ENCODING 42202
SWIDTH 960 0
DWIDTH 24 0
BBX 24 24 0 -6
BITMAP
000000
000000
000000
000000
000000
000030
000048
0000CC
006048
00F830
018C00
030600
260300
3E0180
1C00C0
080070
00003C
00001E
00000E
000000
000000
000000
000000
000000
ENDCHAR

STARTCHAR A4DB
ENCODING 42203
SWIDTH 960 0
DWIDTH 24 0
BBX 24 24 0 -6
BITMAP
000000
000000
000000
080000
0420F0
061FE0
070D80
070180
060180
0601B0
0C41F8
0C3FC0
0C1980
0C0180
090180
090180
0B1F80
0A31E0
0E21F0
0E31B8
061F98
040F00
000000
000000
ENDCHAR

STARTCHAR A4DC
ENCODING 42204
SWIDTH 960 0
DWIDTH 24 0
BBX 24 24 0 -6
BITMAP
000000
000000
000000
200000
1083CC
187F86
1C3600
1C0618
18060C
1806C0
3107E0
30FF00
306600
300600
240600
240600
2C7E00
28C780
3887C0
38C6E0
187E60
103C00
000000
000000
ENDCHAR

STARTCHAR A4DD
ENCODING 42205
SWIDTH 960 0
DWIDTH 24 0
BBX 24 24 0 -6
BITMAP
000000
000000
000000
200000
1083CC
187F92
1C3632
1C0612
18060C
1806C0
3107E0
30FF00
306600
300600
240600
240600
2C7E00
28C780
3887C0
38C6E0
187E60
103C00
000000
000000
ENDCHAR

STARTCHAR A4DE
ENCODING 42206
SWIDTH 960 0
DWIDTH 24 0
BBX 24 24 0 -6
BITMAP
000000
000000
003800
001C00
000C00
000C60
000FF0
087FC0
07FC00
000C00
000C60
020FF0
01FFE0
00FC00
000C00
000C00
00FC00
018F00
020DC0
030CE0
01FC60
00F800
000000
000000
ENDCHAR

STARTCHAR A4DF
ENCODING 42207
SWIDTH 960 0
DWIDTH 24 0
BBX 24 24 0 -6
BITMAP
000000
000000
000000
010600
01FF00
00C600
000C00
001800
001880
0030E0
002070
03F860
064F60
0CC1E0
188078
19807C
1B00CC
0E00C0
000180
000700
003C00
000000
000000
000000
ENDCHAR

STARTCHAR A4E0
ENCODING 42208
SWIDTH 960 0
DWIDTH 24 0
BBX 24 24 0 -6
BITMAP
000000
000000
030000
018000
00C000
008000
20B8C0
3FF060
1F8038
01001C
01003C
070060
1F0000
130080
330080
260080
3600C0
1C0040
040060
0601E0
07FF80
01FE00
000000
000000
ENDCHAR

STARTCHAR A4E1
ENCODING 42209
SWIDTH 960 0
DWIDTH 24 0
BBX 24 24 0 -6
BITMAP
000000
000000
000000
000600
000300
0C0380
060300
030600
033F00
0165C0
01CC70
038818
06980C
04D00C
0C700C
08600C
08700C
08F818
0D9830
0700E0
000780
003C00
000000
000000
ENDCHAR

STARTCHAR A4E2
ENCODING 42210
SWIDTH 960 0
DWIDTH 24 0
BBX 24 24 0 -6
BITMAP
000000
000000
007000
001800
001800
001000
001000
00FC00
039E00
003000
006000
00AE00
012380
0260C0
03F860
01FC30
004010
004018
004018
006070
003FE0
001F80
000000
000000
ENDCHAR

STARTCHAR A4E3
ENCODING 42211
SWIDTH 960 0
DWIDTH 24 0
BBX 24 24 0 -6
BITMAP
000000
000000
000000
000000
000000
000000
000000
000000
001000
000C00
004600
00DF80
00CCC0
047860
07E060
032860
0027C0
003180
001800
001800
001800
001800
000000
000000
ENDCHAR

STARTCHAR A4E4
ENCODING 42212
SWIDTH 960 0
DWIDTH 24 0
BBX 24 24 0 -6
BITMAP
000000
000000
001000
000800
000C00
018600
031FF0
030618
033C0C
21E00C
33C00C
1EC00C
0E6818
006738
0031F0
003000
003000
001800
001800
001800
001800
000800
000000
000000
ENDCHAR

STARTCHAR A4E5
ENCODING 42213
SWIDTH 960 0
DWIDTH 24 0
BBX 24 24 0 -6
BITMAP
000000
000000
000000
000000
000000
000000
000000
000000
000C00
001E00
060600
030E00
031F00
023580
0664C0
04C4C0
04A4C0
07B580
031F00
010C00
003800
00E000
000000
000000
ENDCHAR

STARTCHAR A4E6
ENCODING 42214
SWIDTH 960 0
DWIDTH 24 0
BBX 24 24 0 -6
BITMAP
000000
000000
000000
000700
000B80
000180
1803E0
0C0FB0
061998
06318C
06618C
0CC18C
0CA18C
0DA18C
0D318C
0F1998
0E0DF0
0607C0
020300
000600
000C00
003800
000000
000000
ENDCHAR

STARTCHAR A4E7
ENCODING 42215
SWIDTH 960 0
DWIDTH 24 0
BBX 24 24 0 -6
BITMAP
000000
000000
000000
000000
000000
000000
000000
000000
000000
001800
000C00
000800
000980
000F80
000800
000800
000800
00F800
018E00
030B80
0199C0
00F0C0
000000
000000
ENDCHAR

STARTCHAR A4E8
ENCODING 42216
SWIDTH 960 0
DWIDTH 24 0
BBX 24 24 0 -6
BITMAP
000000
000000
000000
003000
001800
001C00
001800
001800
0019E0
001FC0
001800
001800
001800
001800
001800
01F800
071E00
0C1B80
0819E0
0E3870
03F030
000000
000000
000000
ENDCHAR

STARTCHAR A4E9
ENCODING 42217
SWIDTH 960 0
DWIDTH 24 0
BBX 24 24 0 -6
BITMAP
000000
000000
00C000
007C00
000F00
000700
001C00
003000
010000
010000
010000
0307C0
030C60
031830
033018
036018
03C018
010030
000060
0001C0
000F00
007800
000000
000000
ENDCHAR

STARTCHAR A4EA
ENCODING 42218
SWIDTH 960 0
DWIDTH 24 0
BBX 24 24 0 -6
BITMAP
000000
000000
010000
018000
00C600
00CF00
019980
0190C0
0330C0
0360C0
0240C0
0240C0
02C0C0
0380C0
0380C0
01C0C0
00C180
000180
000300
000600
001C00
00F000
000000
000000
ENDCHAR

STARTCHAR A4EB
ENCODING 42219
SWIDTH 960 0
DWIDTH 24 0
BBX 24 24 0 -6
BITMAP
000000
000000
000000
010300
01FF80
00E380
000600
000C00
001800
003000
006000
00CF80
00F8C0
01C060
030030
060030
060030
003C30
004E60
0046C0
003F80
001E00
000000
000000
ENDCHAR

STARTCHAR A4EC
ENCODING 42220
SWIDTH 960 0
DWIDTH 24 0
BBX 24 24 0 -6
BITMAP
000000
000000
018000
00C000
00C000
008000
008780
11CCC0
1FD860
0CB060
01E060
01C060
038060
068060
0480C0
0C80C2
1880C2
1480C6
0380EC
018078
018030
008000
000000
000000
ENDCHAR

STARTCHAR A4ED
ENCODING 42221
SWIDTH 960 0
DWIDTH 24 0
BBX 24 24 0 -6
BITMAP
000000
000000
000000
000300
031F80
01F300
000600
000C00
001800
003000
006000
00CF80
0198E0
03F030
070018
0E0018
0C0018
0C0030
000060
0001C0
000F00
007800
000000
000000
ENDCHAR

STARTCHAR A4EE
ENCODING 42222
SWIDTH 960 0
DWIDTH 24 0
BBX 24 24 0 -6
BITMAP
000000
000000
000000
000000
000000
000000
000000
000000
00C000
006000
004000
004000
04EF80
0778C0
026060
00C060
014060
034060
0640C0
05C180
00C700
004000
000000
000000
ENDCHAR

STARTCHAR A4EF
ENCODING 42223
SWIDTH 960 0
DWIDTH 24 0
BBX 24 24 0 -6
BITMAP
000000
000000
018000
008000
008000
008000
008000
00C000
03C7C0
1E9C70
0CB038
01E018
03C00C
03800C
06800C
0C8018
188018
1E8030
138060
0181C0
008700
008000
000000
000000
ENDCHAR

STARTCHAR A4F0
ENCODING 42224
SWIDTH 960 0
DWIDTH 24 0
BBX 24 24 0 -6
BITMAP
000000
000000
000600
021F00
03F700
01C600
000C00
001800
001F00
0071C0
01E060
032030
066018
0C4018
0CC018
18C018
199E18
19B330
1F3370
0E19E0
0C0F80
000000
000000
000000
ENDCHAR

STARTCHAR A4F1
ENCODING 42225
SWIDTH 960 0
DWIDTH 24 0
BBX 24 24 0 -6
BITMAP
000000
000000
000600
031F00
01F700
00C600
001C00
007000
00FF80
0180C0
030060
063060
0648C0
004F80
00FE00
018000
0701E0
0FE738
1C7C1C
18387C
0011C0
000000
000000
000000
ENDCHAR

STARTCHAR A4F2
ENCODING 42226
SWIDTH 960 0
DWIDTH 24 0
BBX 24 24 0 -6
BITMAP
000000
000000
001000
003800
001800
0C1180
063FC0
03F800
006000
00C000
018030
033818
07CC3C
0C0CF8
180F80
183C00
006C00
00CC00
018C00
018000
01FFE0
007FF0
000000
000000
ENDCHAR

STARTCHAR A4F3
ENCODING 42227
SWIDTH 960 0
DWIDTH 24 0
BBX 24 24 0 -6
BITMAP
000000
000000
000000
003800
000C00
000C00
001800
003000
006000
004000
00C000
019800
013C04
03CC04
070C0C
060C08
0C0C18
180C30
380E60
3007C0
100380
000000
000000
000000
ENDCHAR

STARTCHAR A5A1
ENCODING 42401
SWIDTH 960 0
DWIDTH 24 0
BBX 24 24 0 -6
BITMAP
000000
000000
000000
000000
000000
000000
000000
000000
000000
000000
020180
03FFC0
018180
001300
001E00
001800
001800
001800
003000
003000
006000
00C000
000000
000000
ENDCHAR

STARTCHAR A5A2
ENCODING 42402
SWIDTH 960 0
DWIDTH 24 0
BBX 24 24 0 -6
BITMAP
000000
000000
000000
000000
080060
0FFFF0
070070
0000C0
003380
001E00
001800
001800
001800
001800
003000
003000
006000
006000
00C000
018000
020000
000000
000000
000000
ENDCHAR

STARTCHAR A5A3
ENCODING 42403
SWIDTH 960 0
DWIDTH 24 0
BBX 24 24 0 -6
BITMAP
000000
000000
000000
000000
000000
000000
000000
000000
000000
000000
000180
0001C0
000380
000700
000E00
001E00
007600
01C600
000600
000600
000600
000600
000000
000000
ENDCHAR

STARTCHAR A5A4
ENCODING 42404
SWIDTH 960 0
DWIDTH 24 0
BBX 24 24 0 -6
BITMAP
000000
000000
000000
0000C0
000060
0000E0
0001C0
000380
000700
000E00
001E00
003600
006600
01C600
070600
000600
000600
000600
000E00
000E00
000600
000200
000000
000000
ENDCHAR

STARTCHAR A5A5
ENCODING 42405
SWIDTH 960 0
DWIDTH 24 0
BBX 24 24 0 -6
BITMAP
000000
000000
000000
000000
000000
000000
000000
000000
000000
000000
003800
001800
031980
01FFC0
018180
018180
018180
010300
000300
000600
000C00
003800
000000
000000
ENDCHAR

STARTCHAR A5A6
ENCODING 42406
SWIDTH 960 0
DWIDTH 24 0
BBX 24 24 0 -6
BITMAP
000000
000000
000000
003800
001C00
001800
061860
03FFF0
030060
030060
0300C0
0300C0
030180
010180
000300
000300
000600
000C00
003800
00E000
000000
000000
000000
000000
ENDCHAR

STARTCHAR A5A7
ENCODING 42407
SWIDTH 960 0
DWIDTH 24 0
BBX 24 24 0 -6
BITMAP
000000
000000
000000
000000
000000
000000
000000
000000
000000
000000
000000
018300
00FF80
001800
001800
001800
001800
001800
041980
07FFC0
030000
000000
000000
000000
ENDCHAR

STARTCHAR A5A8
ENCODING 42408
SWIDTH 960 0
DWIDTH 24 0
BBX 24 24 0 -6
BITMAP
000000
000000
000000
000000
000000
000000
0201C0
03FFE0
019800
001800
001800
001800
001800
001800
001800
081870
0FFFF8
060000
000000
000000
000000
000000
000000
000000
ENDCHAR

STARTCHAR A5A9
ENCODING 42409
SWIDTH 960 0
DWIDTH 24 0
BBX 24 24 0 -6
BITMAP
000000
000000
000000
000000
000000
000000
000000
000000
000000
000C00
000600
000480
0207C0
01FC00
009C00
003400
006400
00C400
018400
033C00
000C00
000400
000000
000000
ENDCHAR

STARTCHAR A5AA
ENCODING 42410
SWIDTH 960 0
DWIDTH 24 0
BBX 24 24 0 -6
BITMAP
000000
000000
000000
000600
000F00
000600
000600
000630
0807F8
0FFE00
061E00
003E00
003600
006600
00C600
018600
030600
062600
0C1E00
100E00
000400
000000
000000
000000
ENDCHAR

STARTCHAR A5AB
ENCODING 42411
SWIDTH 960 0
DWIDTH 24 0
BBX 24 24 0 -6
BITMAP
000000
000000
000000
003000
001800
001C00
001800
001860
041FF0
07F060
033060
003060
006060
0060C0
00C0C0
00C0C0
0180C0
019980
030F80
060700
080200
000000
000000
000000
ENDCHAR

STARTCHAR A5AC
ENCODING 42412
SWIDTH 960 0
DWIDTH 24 0
BBX 24 24 0 -6
BITMAP
000000
000000
000018
00600C
003060
003830
003000
0030C0
083FE0
0FE0C0
0660C0
0060C0
00C0C0
00C180
018180
018180
030180
033300
061F00
0C0E00
100400
000000
000000
000000
ENDCHAR

STARTCHAR A5AD
ENCODING 42413
SWIDTH 960 0
DWIDTH 24 0
BBX 24 24 0 -6
BITMAP
000000
000000
000000
006000
003000
003000
003000
003180
043FC0
07F800
031800
001800
001860
101FF0
1FF800
0C1800
001800
001C00
000C00
000C00
000C00
000400
000000
000000
ENDCHAR

STARTCHAR A5AE
ENCODING 42414
SWIDTH 960 0
DWIDTH 24 0
BBX 24 24 0 -6
BITMAP
000000
000000
000018
00600C
003060
003030
003000
003180
043FC0
07F800
031800
001800
001860
101FF0
1FF800
0C1800
001800
001C00
000C00
000C00
000C00
000400
000000
000000
ENDCHAR

STARTCHAR A5AF
ENCODING 42415
SWIDTH 960 0
DWIDTH 24 0
BBX 24 24 0 -6
BITMAP
000000
000000
000000
000000
006000
003000
003180
007FC0
00C180
018300
018300
030600
060600
080C00
001800
001800
003000
006000
00C000
018000
070000
000000
000000
000000
ENDCHAR

STARTCHAR A5B0
ENCODING 42416
SWIDTH 960 0
DWIDTH 24 0
BBX 24 24 0 -6
BITMAP
000000
000000
000018
00000C
006060
003030
003180
007FC0
00C180
018300
018300
030600
060600
080C00
001800
001800
003000
006000
00C000
018000
070000
000000
000000
000000
ENDCHAR

STARTCHAR A5B1
ENCODING 42417
SWIDTH 960 0
DWIDTH 24 0
BBX 24 24 0 -6
BITMAP
000000
000000
000000
01C000
00E000
00C000
00C000
018030
01FFF8
030400
030600
060600
0C0C00
100C00
000C00
000C00
001800
001800
003000
006000
01C000
030000
000000
000000
ENDCHAR

STARTCHAR A5B2
ENCODING 42418
SWIDTH 960 0
DWIDTH 24 0
BBX 24 24 0 -6
BITMAP
000000
000000
000008
03804C
01C064
018020
018000
030060
03FFF0
060800
060C00
0C0C00
181800
201800
001800
001800
003000
003000
006000
00C000
038000
060000
000000
000000
ENDCHAR

STARTCHAR A5B3
ENCODING 42419
SWIDTH 960 0
DWIDTH 24 0
BBX 24 24 0 -6
BITMAP
000000
000000
000000
000000
000000
000000
0400C0
07FFE0
0300C0
0000C0
0000C0
0000C0
000180
000180
000180
040180
07FFC0
030000
000000
000000
000000
000000
000000
000000
ENDCHAR

STARTCHAR A5B4
ENCODING 42420
SWIDTH 960 0
DWIDTH 24 0
BBX 24 24 0 -6
BITMAP
000000
000000
000018
00000C
000060
000030
080180
0FFFC0
060180
000180
000180
000180
000300
000300
000300
080300
0FFF80
060000
000000
000000
000000
000000
000000
000000
ENDCHAR

STARTCHAR A5B5
ENCODING 42421
SWIDTH 960 0
DWIDTH 24 0
BBX 24 24 0 -6
BITMAP
000000
000000
000000
000600
000300
018300
00C300
00C300
10C330
1FFFF8
0CC300
00C300
00C300
00C300
008600
000600
000600
000C00
001800
003000
00E000
000000
000000
000000
ENDCHAR

STARTCHAR A5B6
ENCODING 42422
SWIDTH 960 0
DWIDTH 24 0
BBX 24 24 0 -6
BITMAP
000000
000000
000018
00060C
000360
018330
00C300
00C300
10C330
1FFFF8
0CC300
00C300
00C300
00C300
008600
000600
000600
000C00
001800
003000
00E000
000000
000000
000000
ENDCHAR

STARTCHAR A5B7
ENCODING 42423
SWIDTH 960 0
DWIDTH 24 0
BBX 24 24 0 -6
BITMAP
000000
000000
000000
000000
000000
018000
00C000
006010
006030
0C0060
0600C0
030180
030300
000600
000C00
003800
007000
06E000
03C000
018000
000000
000000
000000
000000
ENDCHAR

STARTCHAR A5B8
ENCODING 42424
SWIDTH 960 0
DWIDTH 24 0
BBX 24 24 0 -6
BITMAP
000000
000000
000060
000030
000300
018180
00C000
006010
006030
0C0060
0600C0
030180
030300
000600
000C00
003800
007000
06E000
03C000
018000
000000
000000
000000
000000
ENDCHAR

STARTCHAR A5B9
ENCODING 42425
SWIDTH 960 0
DWIDTH 24 0
BBX 24 24 0 -6
BITMAP
000000
000000
000000
000000
000000
020180
03FFC0
018180
000300
000600
000600
000C00
001800
003600
006300
00C1C0
0180E0
070070
1C0030
000000
000000
000000
000000
000000
ENDCHAR

STARTCHAR A5BA
ENCODING 42426
SWIDTH 960 0
DWIDTH 24 0
BBX 24 24 0 -6
BITMAP
000000
000000
000004
000026
000032
020190
03FFC0
018180
000300
000600
000600
000C00
001800
003600
006300
00C1C0
0180E0
070070
1C0030
000000
000000
000000
000000
000000
ENDCHAR

STARTCHAR A5BB
ENCODING 42427
SWIDTH 960 0
DWIDTH 24 0
BBX 24 24 0 -6
BITMAP
000000
000000
000000
000000
00C000
006000
007000
006000
006030
0063F8
107E30
1FE060
0E60C0
006180
006300
006000
006000
007060
003FF0
001FE0
000000
000000
000000
000000
ENDCHAR

STARTCHAR A5BC
ENCODING 42428
SWIDTH 960 0
DWIDTH 24 0
BBX 24 24 0 -6
BITMAP
000000
000000
000018
00000C
00C060
006030
007000
006000
006030
0063F8
107E30
1FE060
0E60C0
006180
006300
006000
006000
007060
003FF0
001FE0
000000
000000
000000
000000
ENDCHAR

STARTCHAR A5BD
ENCODING 42429
SWIDTH 960 0
DWIDTH 24 0
BBX 24 24 0 -6
BITMAP
000000
000000
000000
000000
000000
0000C0
020060
030070
018060
0180C0
0000C0
000180
000180
000300
000600
000C00
001800
003000
006000
01C000
070000
000000
000000
000000
ENDCHAR

STARTCHAR A5BE
ENCODING 42430
SWIDTH 960 0
DWIDTH 24 0
BBX 24 24 0 -6
BITMAP
000000
000000
000018
00000C
000060
000030
000300
080180
0C01C0
060180
060300
000300
000600
000600
000C00
001800
003000
006000
00C000
018000
070000
000000
000000
000000
ENDCHAR

STARTCHAR A5BF
ENCODING 42431
SWIDTH 960 0
DWIDTH 24 0
BBX 24 24 0 -6
BITMAP
000000
000000
000000
003000
001800
001860
003FF0
006060
0060C0
00C180
018180
036300
063B00
001E00
000C00
000C00
001800
003000
006000
01C000
070000
000000
000000
000000
ENDCHAR

STARTCHAR A5C0
ENCODING 42432
SWIDTH 960 0
DWIDTH 24 0
BBX 24 24 0 -6
BITMAP
000000
00000C
000006
006030
003018
0030C0
007FE0
00C0C0
00C180
018300
030300
06C600
0C7600
003C00
001800
001800
003000
006000
00C000
038000
0E0000
000000
000000
000000
ENDCHAR

STARTCHAR A5C1
ENCODING 42433
SWIDTH 960 0
DWIDTH 24 0
BBX 24 24 0 -6
BITMAP
000000
000000
000000
000000
000380
003FC0
07FC00
000C00
000C00
100C30
1FFFF8
0E0C00
000C00
000C00
001800
001800
003000
006000
00C000
018000
030000
000000
000000
000000
ENDCHAR

STARTCHAR A5C2
ENCODING 42434
SWIDTH 960 0
DWIDTH 24 0
BBX 24 24 0 -6
BITMAP
000000
000000
000004
000026
000732
007F90
0FF800
001800
001800
201860
3FFFF0
1C1800
001800
001800
003000
003000
006000
00C000
018000
030000
060000
000000
000000
000000
ENDCHAR

STARTCHAR A5C3
ENCODING 42435
SWIDTH 960 0
DWIDTH 24 0
BBX 24 24 0 -6
BITMAP
000000
000000
000000
000000
000000
000000
000000
000000
000000
000000
000000
012180
01B0C0
01B180
009180
000180
000300
000300
000600
000C00
001800
007000
000000
000000
ENDCHAR

STARTCHAR A5C4
ENCODING 42436
SWIDTH 960 0
DWIDTH 24 0
BBX 24 24 0 -6
BITMAP
000000
000000
000000
000000
000000
002000
043070
061830
031830
030060
000060
0000C0
0000C0
000180
000300
000600
000C00
001800
003000
00E000
000000
000000
000000
000000
ENDCHAR

STARTCHAR A5C5
ENCODING 42437
SWIDTH 960 0
DWIDTH 24 0
BBX 24 24 0 -6
BITMAP
000000
000000
000018
00000C
000060
010030
118180
18C0C0
0CC0C0
0C0180
000180
000300
000300
000600
000C00
001800
003000
006000
00C000
038000
000000
000000
000000
000000
ENDCHAR

STARTCHAR A5C6
ENCODING 42438
SWIDTH 960 0
DWIDTH 24 0
BBX 24 24 0 -6
BITMAP
000000
000000
000000
010180
01FFC0
00E000
000000
000000
100030
1FFFF8
0F0800
000C00
000C00
001800
001800
003000
003000
006000
00C000
038000
000000
000000
000000
000000
ENDCHAR

STARTCHAR A5C7
ENCODING 42439
SWIDTH 960 0
DWIDTH 24 0
BBX 24 24 0 -6
BITMAP
000000
000000
000004
020326
03FFB2
01C010
000000
000000
200060
3FFFF0
1E1000
001800
001800
003000
003000
006000
006000
00C000
018000
070000
000000
000000
000000
000000
ENDCHAR

STARTCHAR A5C8
ENCODING 42440
SWIDTH 960 0
DWIDTH 24 0
BBX 24 24 0 -6
BITMAP
000000
000000
000000
00C000
006000
007000
006000
006000
006000
006000
007C00
006F00
006380
006180
006000
006000
006000
00E000
00E000
006000
002000
000000
000000
000000
ENDCHAR

STARTCHAR A5C9
ENCODING 42441
SWIDTH 960 0
DWIDTH 24 0
BBX 24 24 0 -6
BITMAP
000000
000000
000000
00C040
006060
007020
006100
006180
006080
006000
007C00
006F00
006380
006180
006000
006000
006000
00E000
00E000
006000
002000
000000
000000
000000
ENDCHAR

STARTCHAR A5CA
ENCODING 42442
SWIDTH 960 0
DWIDTH 24 0
BBX 24 24 0 -6
BITMAP
000000
000000
001000
003800
001C00
001800
001800
001800
101830
1FFFF8
0E1800
001800
001800
001800
003000
003000
006000
006000
00C000
018000
070000
000000
000000
000000
ENDCHAR

STARTCHAR A5CB
ENCODING 42443
SWIDTH 960 0
DWIDTH 24 0
BBX 24 24 0 -6
BITMAP
000000
000000
000000
000000
000000
000000
000000
010300
01FF80
00C000
000000
000000
000000
000000
080070
0FFFF8
070000
000000
000000
000000
000000
000000
000000
000000
ENDCHAR

STARTCHAR A5CC
ENCODING 42444
SWIDTH 960 0
DWIDTH 24 0
BBX 24 24 0 -6
BITMAP
000000
000000
000000
000000
000000
020180
03FFC0
018180
000180
000300
01C300
007600
001C00
001E00
001B80
0031C0
0060E0
00C060
038000
0E0000
000000
000000
000000
000000
ENDCHAR

STARTCHAR A5CD
ENCODING 42445
SWIDTH 960 0
DWIDTH 24 0
BBX 24 24 0 -6
BITMAP
000000
000000
003000
001800
000C00
000C00
000180
020FC0
03F980
018300
000600
000C00
001800
007B00
00D9C0
0198E0
071860
081800
001800
001800
001800
000800
000000
000000
ENDCHAR

STARTCHAR A5CE
ENCODING 42446
SWIDTH 960 0
DWIDTH 24 0
BBX 24 24 0 -6
BITMAP
000000
000000
000000
000000
000200
000300
000180
0001C0
000380
000300
000600
000C00
000C00
001800
003000
006000
00C000
018000
030000
060000
0C0000
000000
000000
000000
ENDCHAR

STARTCHAR A5CF
ENCODING 42447
SWIDTH 960 0
DWIDTH 24 0
BBX 24 24 0 -6
BITMAP
000000
000000
000000
000000
000000
000000
010000
008600
00C300
01C1C0
0180E0
030060
030030
060038
0C0018
180018
300000
000000
000000
000000
000000
000000
000000
000000
ENDCHAR

STARTCHAR A5D0
ENCODING 42448
SWIDTH 960 0
DWIDTH 24 0
BBX 24 24 0 -6
BITMAP
000000
000000
000000
000000
00000C
000006
010030
008618
00C300
01C1C0
0180E0
030060
030030
060038
0C0018
180018
300000
000000
000000
000000
000000
000000
000000
000000
ENDCHAR

STARTCHAR A5D1
ENCODING 42449
SWIDTH 960 0
DWIDTH 24 0
BBX 24 24 0 -6
BITMAP
000000
000000
000030
000048
0000CC
000048
010030
008600
00C300
01C1C0
0180E0
030060
030030
060038
0C0018
180018
300000
000000
000000
000000
000000
000000
000000
000000
ENDCHAR

STARTCHAR A5D2
ENCODING 42450
SWIDTH 960 0
DWIDTH 24 0
BBX 24 24 0 -6
BITMAP
000000
000000
000000
000000
030000
018000
01C000
018000
018180
0187C0
019F00
01F800
018000
018000
018000
018000
018000
01C0C0
00FFE0
003FC0
000000
000000
000000
000000
ENDCHAR

STARTCHAR A5D3
ENCODING 42451
SWIDTH 960 0
DWIDTH 24 0
BBX 24 24 0 -6
BITMAP
000000
000000
000000
000008
03000C
018024
01C030
018010
018180
0187C0
019F00
01F800
018000
018000
018000
018000
018000
01C0C0
00FFE0
003FC0
000000
000000
000000
000000
ENDCHAR

STARTCHAR A5D4
ENCODING 42452
SWIDTH 960 0
DWIDTH 24 0
BBX 24 24 0 -6
BITMAP
000000
000000
000030
000048
0300CC
018048
01C030
018000
018180
0187C0
019F00
01F800
018000
018000
018000
018000
018000
01C0C0
00FFE0
003FC0
000000
000000
000000
000000
ENDCHAR

STARTCHAR A5D5
ENCODING 42453
SWIDTH 960 0
DWIDTH 24 0
BBX 24 24 0 -6
BITMAP
000000
000000
000000
000000
000000
0400C0
07FFE0
0380C0
0000C0
000180
000180
000300
000300
000600
000C00
001800
003000
006000
01C000
020000
000000
000000
000000
000000
ENDCHAR

STARTCHAR A5D6
ENCODING 42454
SWIDTH 960 0
DWIDTH 24 0
BBX 24 24 0 -6
BITMAP
000000
000000
00000C
000006
000030
000018
0400C0
07FFE0
0380C0
0000C0
000180
000180
000300
000300
000600
000C00
001800
003000
006000
01C000
020000
000000
000000
000000
ENDCHAR

STARTCHAR A5D7
ENCODING 42455
SWIDTH 960 0
DWIDTH 24 0
BBX 24 24 0 -6
BITMAP
000000
000000
000018
000024
000066
000024
0400D8
07FFE0
0380C0
0000C0
000180
000180
000300
000300
000600
000C00
001800
003000
006000
01C000
020000
000000
000000
000000
ENDCHAR

STARTCHAR A5D8
ENCODING 42456
SWIDTH 960 0
DWIDTH 24 0
BBX 24 24 0 -6
BITMAP
000000
000000
000000
000000
000000
000000
002000
007000
00D800
018E00
130300
1F0180
0E00E0
000070
000038
00001C
00000C
000000
000000
000000
000000
000000
000000
000000
ENDCHAR

STARTCHAR A5D9
ENCODING 42457
SWIDTH 960 0
DWIDTH 24 0
BBX 24 24 0 -6
BITMAP
000000
000000
000000
000000
000030
000018
0020C0
007060
00D800
018E00
130300
1F0180
0E00E0
000070
000038
00001C
00000C
000000
000000
000000
000000
000000
000000
000000
ENDCHAR

STARTCHAR A5DA
ENCODING 42458
SWIDTH 960 0
DWIDTH 24 0
BBX 24 24 0 -6
BITMAP
000000
000000
000000
000030
000048
0000CC
002048
007030
00D800
018E00
130300
1F0180
0E00E0
000070
000038
00001C
00000C
000000
000000
000000
000000
000000
000000
000000
ENDCHAR

STARTCHAR A5DB
ENCODING 42459
SWIDTH 960 0
DWIDTH 24 0
BBX 24 24 0 -6
BITMAP
000000
000000
000000
003000
001800
001C00
001800
001800
081860
0FFFF0
071800
001800
001800
0118C0
031860
061830
0E1830
0CD830
007800
003800
001000
000000
000000
000000
ENDCHAR

STARTCHAR A5DC
ENCODING 42460
SWIDTH 960 0
DWIDTH 24 0
BBX 24 24 0 -6
BITMAP
000000
000000
000000
003008
00184C
001C64
001820
001800
081860
0FFFF0
071800
001800
001800
0118C0
031860
061830
0E1830
0CD830
007800
003800
001000
000000
000000
000000
ENDCHAR

STARTCHAR A5DD
ENCODING 42461
SWIDTH 960 0
DWIDTH 24 0
BBX 24 24 0 -6
BITMAP
000000
000000
000030
003048
0018CC
001C48
001830
001800
081860
0FFFF0
071800
001800
001800
0118C0
031860
061830
0E1830
0CD830
007800
003800
001000
000000
000000
000000
ENDCHAR

STARTCHAR A5DE
ENCODING 42462
SWIDTH 960 0
DWIDTH 24 0
BBX 24 24 0 -6
BITMAP
000000
000000
000000
000000
000000
000000
000000
080030
0FFFF8
060030
000060
0000C0
000180
00E300
003E00
001800
000E00
000700
000300
000000
000000
000000
000000
000000
ENDCHAR

STARTCHAR A5DF
ENCODING 42463
SWIDTH 960 0
DWIDTH 24 0
BBX 24 24 0 -6
BITMAP
000000
000000
000000
000000
003800
000C00
000700
000300
000000
007000
001800
000E00
000600
000000
000000
00C000
007800
001E00
000700
000300
000000
000000
000000
000000
ENDCHAR

STARTCHAR A5E0
ENCODING 42464
SWIDTH 960 0
DWIDTH 24 0
BBX 24 24 0 -6
BITMAP
000000
000000
000000
000000
003000
001800
001C00
001800
001800
003000
003000
006000
006300
00C180
0180C0
010060
09FFF0
0FE030
070030
000000
000000
000000
000000
000000
ENDCHAR

STARTCHAR A5E1
ENCODING 42465
SWIDTH 960 0
DWIDTH 24 0
BBX 24 24 0 -6
BITMAP
000000
000000
000000
000000
000200
000300
000180
000300
000600
018600
00EC00
003C00
001E00
003700
003300
006300
00C000
018000
030000
0E0000
000000
000000
000000
000000
ENDCHAR

STARTCHAR A5E2
ENCODING 42466
SWIDTH 960 0
DWIDTH 24 0
BBX 24 24 0 -6
BITMAP
000000
000000
000000
000000
000000
060700
03FF80
01B000
003000
003000
003070
103FF8
0FF000
063000
003000
003000
003000
003060
003FF0
001FF0
000000
000000
000000
000000
ENDCHAR

STARTCHAR A5E3
ENCODING 42467
SWIDTH 960 0
DWIDTH 24 0
BBX 24 24 0 -6
BITMAP
000000
000000
000000
000000
000000
000000
000000
000000
000000
00E000
006000
002180
043FC0
07E180
032300
002200
003000
001000
001000
001800
001800
001800
000000
000000
ENDCHAR

STARTCHAR A5E4
ENCODING 42468
SWIDTH 960 0
DWIDTH 24 0
BBX 24 24 0 -6
BITMAP
000000
000000
000000
000000
00C000
007000
006000
006030
0021F8
103F30
1FE060
0E20C0
003180
003300
003000
001800
001800
001800
001800
001800
000800
000000
000000
000000
ENDCHAR

STARTCHAR A5E5
ENCODING 42469
SWIDTH 960 0
DWIDTH 24 0
BBX 24 24 0 -6
BITMAP
000000
000000
000000
000000
000000
000000
000000
000000
000000
000000
000000
000000
010600
01FF00
00C600
000600
000600
000600
000400
0804C0
0FFFE0
060000
000000
000000
ENDCHAR

STARTCHAR A5E6
ENCODING 42470
SWIDTH 960 0
DWIDTH 24 0
BBX 24 24 0 -6
BITMAP
000000
000000
000000
000000
000000
000000
000000
020300
03FF80
018300
000300
000300
000600
000600
000600
100630
1FFFF8
0C0000
000000
000000
000000
000000
000000
000000
ENDCHAR

STARTCHAR A5E7
ENCODING 42471
SWIDTH 960 0
DWIDTH 24 0
BBX 24 24 0 -6
BITMAP
000000
000000
000000
000000
000000
000000
000000
000000
000000
000000
000000
000180
01FFC0
00C180
000180
000180
01FF00
00C300
000300
000300
01FF80
00C000
000000
000000
ENDCHAR

STARTCHAR A5E8
ENCODING 42472
SWIDTH 960 0
DWIDTH 24 0
BBX 24 24 0 -6
BITMAP
000000
000000
000000
000000
000000
000000
020060
03FFF0
018060
000060
000060
020060
03FFC0
0180C0
0000C0
0000C0
0200C0
03FFE0
018000
000000
000000
000000
000000
000000
ENDCHAR

STARTCHAR A5E9
ENCODING 42473
SWIDTH 960 0
DWIDTH 24 0
BBX 24 24 0 -6
BITMAP
000000
000000
000000
000000
000000
018380
00FFC0
006000
000000
000000
0600C0
03FFE0
0180C0
0000C0
000180
000180
000300
000600
000C00
001800
007000
01C000
000000
000000
ENDCHAR

STARTCHAR A5EA
ENCODING 42474
SWIDTH 960 0
DWIDTH 24 0
BBX 24 24 0 -6
BITMAP
000000
000000
000000
000200
010300
00C180
00E1C0
00C180
00C180
00C180
00C180
00C180
00C180
00C180
00C180
000300
000300
000600
000600
000C00
001800
003000
000000
000000
ENDCHAR

STARTCHAR A5EB
ENCODING 42475
SWIDTH 960 0
DWIDTH 24 0
BBX 24 24 0 -6
BITMAP
000000
000000
000000
000000
000000
000C00
010600
00C700
00E600
00C602
00C602
00C606
01860C
018618
030630
0306E0
0607C0
0C0F80
180700
000200
000000
000000
000000
000000
ENDCHAR

STARTCHAR A5EC
ENCODING 42476
SWIDTH 960 0
DWIDTH 24 0
BBX 24 24 0 -6
BITMAP
000000
000000
000000
000000
000000
030000
018000
01C000
018000
018008
018018
018030
018060
0180C0
018180
018700
019E00
01F800
01E000
00C000
000000
000000
000000
000000
ENDCHAR

STARTCHAR A5ED
ENCODING 42477
SWIDTH 960 0
DWIDTH 24 0
BBX 24 24 0 -6
BITMAP
000000
000000
000000
000000
000000
000000
000000
040060
07FFF0
030060
030060
030060
030060
0180C0
0180C0
0180C0
01FFE0
018000
018000
000000
000000
000000
000000
000000
ENDCHAR

STARTCHAR A5EE
ENCODING 42478
SWIDTH 960 0
DWIDTH 24 0
BBX 24 24 0 -6
BITMAP
000000
000000
000000
000000
000000
000000
000000
000000
000000
000000
000000
030180
01FFC0
018180
018180
018180
018300
008300
000600
000C00
001800
007000
000000
000000
ENDCHAR

STARTCHAR A5EF
ENCODING 42479
SWIDTH 960 0
DWIDTH 24 0
BBX 24 24 0 -6
BITMAP
000000
000000
000000
000000
000000
000000
0600C0
07FFE0
0300C0
0300C0
0300C0
0300C0
030180
030180
000300
000300
000600
000600
000C00
001800
003000
006000
000000
000000
ENDCHAR

STARTCHAR A5F0
ENCODING 42480
SWIDTH 960 0
DWIDTH 24 0
BBX 24 24 0 -6
BITMAP
000000
000000
001800
000C00
000E00
000C00
000CC0
0C0FE0
07FC00
018C00
018C00
018C00
318C30
1FFFF8
0C0C00
000C00
000C00
000C00
000C00
000C00
000C00
000400
000000
000000
ENDCHAR

STARTCHAR A5F1
ENCODING 42481
SWIDTH 960 0
DWIDTH 24 0
BBX 24 24 0 -6
BITMAP
000000
000000
000000
000000
000000
000180
061FC0
03F1E0
000380
003600
001C00
001800
001800
001800
001830
31FFF8
1F803C
0C0000
000000
000000
000000
000000
000000
000000
ENDCHAR

STARTCHAR A5F2
ENCODING 42482
SWIDTH 960 0
DWIDTH 24 0
BBX 24 24 0 -6
BITMAP
000000
000000
000000
000000
000000
0400C0
07FFE0
03C0C0
0000C0
0000C0
0000C0
1FFF80
0C0180
000300
000300
000600
000C00
001800
003000
006000
01C000
020000
000000
000000
ENDCHAR

STARTCHAR A5F3
ENCODING 42483
SWIDTH 960 0
DWIDTH 24 0
BBX 24 24 0 -6
BITMAP
000000
000000
000000
000000
000000
030000
018004
00E008
006018
000030
000060
0000C0
000180
000700
000E00
001C00
027000
03E000
01C000
008000
000000
000000
000000
000000
ENDCHAR

STARTCHAR A5F4
ENCODING 42484
SWIDTH 960 0
DWIDTH 24 0
BBX 24 24 0 -6
BITMAP
000000
000000
000008
00004C
003064
001820
001800
0C18C0
07FFE0
0600C0
0600C0
0600C0
0600C0
060180
020180
000300
000600
000C00
001800
007000
01C000
000000
000000
000000
ENDCHAR

STARTCHAR A5F5
ENCODING 42485
SWIDTH 960 0
DWIDTH 24 0
BBX 24 24 0 -6
BITMAP
000000
000000
000000
000000
000000
000000
000000
000000
000000
000000
001800
000C00
010C80
01FFC0
00D980
001980
003180
003180
006180
00C180
018F00
030600
000000
000000
ENDCHAR

STARTCHAR A5F6
ENCODING 42486
SWIDTH 960 0
DWIDTH 24 0
BBX 24 24 0 -6
BITMAP
000000
000000
000000
000000
000000
000000
000000
000000
000000
000000
00C000
006000
0060C0
00FFE0
00C600
018600
030600
000C00
000C00
001800
003000
006000
000000
000000
ENDCHAR

STARTCHAR A6A1
ENCODING 42657
SWIDTH 960 0
DWIDTH 24 0
BBX 24 24 0 -6
BITMAP
000000
001000
003000
003800
005800
004C00
004C00
008600
008600
008600
010300
01FF00
010300
020180
020180
020180
0400C0
0400C0
1F03F0
000000
000000
000000
000000
000000
ENDCHAR

STARTCHAR A6A2
ENCODING 42658
SWIDTH 960 0
DWIDTH 24 0
BBX 24 24 0 -6
BITMAP
000000
07FE00
018300
018180
018180
018180
018180
018180
018300
01FE00
018380
0181C0
0180C0
0180C0
0180C0
0180C0
0181C0
018380
07FF00
000000
000000
000000
000000
000000
ENDCHAR

STARTCHAR A6A3
ENCODING 42659
SWIDTH 960 0
DWIDTH 24 0
BBX 24 24 0 -6
BITMAP
000000
07FFE0
018060
018020
018020
018000
018000
018000
018000
018000
018000
018000
018000
018000
018000
018000
018000
018000
07E000
000000
000000
000000
000000
000000
ENDCHAR

STARTCHAR A6A4
ENCODING 42660
SWIDTH 960 0
DWIDTH 24 0
BBX 24 24 0 -6
BITMAP
000000
001800
002C00
002C00
004600
004600
004600
008300
008300
010180
010180
010180
0200C0
0200C0
040060
040060
040060
080030
0FFFF0
000000
000000
000000
000000
000000
ENDCHAR

STARTCHAR A6A5
ENCODING 42661
SWIDTH 960 0
DWIDTH 24 0
BBX 24 24 0 -6
BITMAP
000000
07FFE0
018060
018020
018020
018000
018100
018100
018300
01FF00
018300
018100
018100
018000
018000
018020
018020
018060
07FFE0
000000
000000
000000
000000
000000
ENDCHAR

STARTCHAR A6A6
ENCODING 42662
SWIDTH 960 0
DWIDTH 24 0
BBX 24 24 0 -6
BITMAP
000000
03FFC0
0300C0
020180
020300
000600
000600
000C00
001800
001800
003000
006000
006000
00C000
018020
018020
030020
060060
07FFE0
000000
000000
000000
000000
000000
ENDCHAR

STARTCHAR A6A7
ENCODING 42663
SWIDTH 960 0
DWIDTH 24 0
BBX 24 24 0 -6
BITMAP
000000
0FC3F0
0300C0
0300C0
0300C0
0300C0
0300C0
0300C0
0300C0
03FFC0
0300C0
0300C0
0300C0
0300C0
0300C0
0300C0
0300C0
0300C0
0FC3F0
000000
000000
000000
000000
000000
ENDCHAR

STARTCHAR A6A8
ENCODING 42664
SWIDTH 960 0
DWIDTH 24 0
BBX 24 24 0 -6
BITMAP
000000
003C00
00C300
0300C0
060060
060060
0C0030
0C8130
0C8130
0CFF30
0CFF30
0C8130
0C8130
0C0030
060060
060060
0300C0
00C300
003C00
000000
000000
000000
000000
000000
ENDCHAR

STARTCHAR A6A9
ENCODING 42665
SWIDTH 960 0
DWIDTH 24 0
BBX 24 24 0 -6
BITMAP
000000
007E00
001800
001800
001800
001800
001800
001800
001800
001800
001800
001800
001800
001800
001800
001800
001800
001800
007E00
000000
000000
000000
000000
000000
ENDCHAR

STARTCHAR A6AA
ENCODING 42666
SWIDTH 960 0
DWIDTH 24 0
BBX 24 24 0 -6
BITMAP
000000
0FC3F0
030080
030100
030200
030400
030800
031000
033800
034C00
038C00
030600
030300
030300
030180
0300C0
0300C0
030060
0FC1F8
000000
000000
000000
000000
000000
ENDCHAR

STARTCHAR A6AB
ENCODING 42667
SWIDTH 960 0
DWIDTH 24 0
BBX 24 24 0 -6
BITMAP
000000
003000
003000
003800
005800
004C00
004C00
008600
008600
008600
010300
010300
010300
020180
020180
020180
0400C0
0400C0
1F03F0
000000
000000
000000
000000
000000
ENDCHAR

STARTCHAR A6AC
ENCODING 42668
SWIDTH 960 0
DWIDTH 24 0
BBX 24 24 0 -6
BITMAP
000000
3E007C
0E00E0
0B00E0
0B00E0
0B0160
098160
098160
098260
08C260
08C260
08C460
086460
086460
082860
083860
083060
081060
3E01F8
000000
000000
000000
000000
000000
ENDCHAR

STARTCHAR A6AD
ENCODING 42669
SWIDTH 960 0
DWIDTH 24 0
BBX 24 24 0 -6
BITMAP
000000
0F01F0
038040
038040
02C040
026040
026040
023040
021840
020C40
020C40
020640
020640
020340
0201C0
0201C0
0200C0
0200C0
0F8040
000000
000000
000000
000000
000000
ENDCHAR

STARTCHAR A6AE
ENCODING 42670
SWIDTH 960 0
DWIDTH 24 0
BBX 24 24 0 -6
BITMAP
000000
0FFFF0
0FFFF0
080010
080010
000000
000000
010080
010080
01FF80
01FF80
010080
010080
000000
000000
080010
080010
0FFFF0
0FFFF0
000000
000000
000000
000000
000000
ENDCHAR

STARTCHAR A6AF
ENCODING 42671
SWIDTH 960 0
DWIDTH 24 0
BBX 24 24 0 -6
BITMAP
000000
003C00
00C300
0300C0
060060
060060
0C0030
0C0030
0C0030
0C0030
0C0030
0C0030
0C0030
0C0030
060060
060060
0300C0
00C300
003C00
000000
000000
000000
000000
000000
ENDCHAR

STARTCHAR A6B0
ENCODING 42672
SWIDTH 960 0
DWIDTH 24 0
BBX 24 24 0 -6
BITMAP
000000
0FFFF0
0300C0
0300C0
0300C0
0300C0
0300C0
0300C0
0300C0
0300C0
0300C0
0300C0
0300C0
0300C0
0300C0
0300C0
0300C0
0300C0
0F83F0
000000
000000
000000
000000
000000
ENDCHAR

STARTCHAR A6B1
ENCODING 42673
SWIDTH 960 0
DWIDTH 24 0
BBX 24 24 0 -6
BITMAP
000000
07FF00
018180
0180C0
0180C0
0180C0
0180C0
0180C0
018180
01FF00
018000
018000
018000
018000
018000
018000
018000
018000
07E000
000000
000000
000000
000000
000000
ENDCHAR

STARTCHAR A6B2
ENCODING 42674
SWIDTH 960 0
DWIDTH 24 0
BBX 24 24 0 -6
BITMAP
000000
0FFFE0
0E0060
070020
038020
01C000
00E000
007000
003800
001C00
001800
003000
006000
00C000
018000
030020
060020
0FFFE0
0FFFE0
000000
000000
000000
000000
000000
ENDCHAR

STARTCHAR A6B3
ENCODING 42675
SWIDTH 960 0
DWIDTH 24 0
BBX 24 24 0 -6
BITMAP
000000
0FFFF0
0C1830
081810
081810
001800
001800
001800
001800
001800
001800
001800
001800
001800
001800
001800
001800
001800
007E00
000000
000000
000000
000000
000000
ENDCHAR

STARTCHAR A6B4
ENCODING 42676
SWIDTH 960 0
DWIDTH 24 0
BBX 24 24 0 -6
BITMAP
000000
000300
01C4C0
032860
031860
001800
001800
001800
001800
001800
001800
001800
001800
001800
001800
001800
001800
001800
007E00
000000
000000
000000
000000
000000
ENDCHAR

STARTCHAR A6B5
ENCODING 42677
SWIDTH 960 0
DWIDTH 24 0
BBX 24 24 0 -6
BITMAP
000000
007E00
001800
001800
00FF00
0318C0
061860
0C1830
0C1830
0C1830
0C1830
0C1830
0C1830
061860
0318C0
00FF00
001800
001800
007E00
000000
000000
000000
000000
000000
ENDCHAR

STARTCHAR A6B6
ENCODING 42678
SWIDTH 960 0
DWIDTH 24 0
BBX 24 24 0 -6
BITMAP
000000
0FC3F8
030080
018100
00C200
006200
006400
003400
001800
001800
002C00
002600
004600
004300
008180
008180
0100C0
020060
1F81F8
000000
000000
000000
000000
000000
ENDCHAR

STARTCHAR A6B7
ENCODING 42679
SWIDTH 960 0
DWIDTH 24 0
BBX 24 24 0 -6
BITMAP
000000
007E00
181818
0C1830
0C1830
061860
061860
061860
061860
061860
0318C0
019980
00FF00
001800
001800
001800
001800
001800
007E00
000000
000000
000000
000000
000000
ENDCHAR

STARTCHAR A6B8
ENCODING 42680
SWIDTH 960 0
DWIDTH 24 0
BBX 24 24 0 -6
BITMAP
000000
007E00
018180
060060
060030
0C0030
0C0030
0C0030
0C0030
0C0030
0C0030
060060
060060
018180
00E700
002400
042420
07E7E0
07E7E0
000000
000000
000000
000000
000000
ENDCHAR

STARTCHAR A6C1
ENCODING 42689
SWIDTH 960 0
DWIDTH 24 0
BBX 24 24 0 -6
BITMAP
000000
000000
000000
000000
000000
000000
000000
003980
006580
00C380
018300
018300
018300
018300
018300
018300
018500
00C900
007180
000000
000000
000000
000000
000000
ENDCHAR

STARTCHAR A6C2
ENCODING 42690
SWIDTH 960 0
DWIDTH 24 0
BBX 24 24 0 -6
BITMAP
000000
000000
000000
000000
003800
004600
00C300
018300
018300
018300
018600
01FC00
018600
018380
018180
018180
018180
01C300
01BC00
018000
018000
018000
018000
000000
ENDCHAR

STARTCHAR A6C3
ENCODING 42691
SWIDTH 960 0
DWIDTH 24 0
BBX 24 24 0 -6
BITMAP
000000
000000
000000
000000
000000
000000
000000
030300
078300
048300
004200
004200
004400
002400
002800
001000
001000
001000
003000
003000
003000
003000
003000
000000
ENDCHAR

STARTCHAR A6C4
ENCODING 42692
SWIDTH 960 0
DWIDTH 24 0
BBX 24 24 0 -6
BITMAP
000000
000000
007C00
00C600
00C300
006000
003000
003800
00CE00
018300
030180
030180
030180
030180
030180
030180
018300
00C600
003800
000000
000000
000000
000000
000000
ENDCHAR

STARTCHAR A6C5
ENCODING 42693
SWIDTH 960 0
DWIDTH 24 0
BBX 24 24 0 -6
BITMAP
000000
000000
000000
000000
000000
000000
000000
003E00
00C180
008180
018000
01C000
007C00
00C000
018000
018000
018040
00C180
003E00
000000
000000
000000
000000
000000
ENDCHAR

STARTCHAR A6C6
ENCODING 42694
SWIDTH 960 0
DWIDTH 24 0
BBX 24 24 0 -6
BITMAP
000000
004000
008000
018000
018000
018600
00CE00
007800
006000
00C000
018000
038000
030000
030000
030000
018000
00FF00
007F80
000180
000180
000180
00C300
00FE00
000000
ENDCHAR

STARTCHAR A6C7
ENCODING 42695
SWIDTH 960 0
DWIDTH 24 0
BBX 24 24 0 -6
BITMAP
000000
000000
000000
000000
000000
000000
000000
00CE00
01D300
00E300
00C300
00C300
00C300
00C300
00C300
00C300
00C300
00C300
00C300
000300
000300
000300
000300
000000
ENDCHAR

STARTCHAR A6C8
ENCODING 42696
SWIDTH 960 0
DWIDTH 24 0
BBX 24 24 0 -6
BITMAP
000000
000000
003C00
006600
00C300
018180
018180
018180
018180
018180
01FF80
018180
018180
018180
018180
018180
00C300
006600
003C00
000000
000000
000000
000000
000000
ENDCHAR

STARTCHAR A6C9
ENCODING 42697
SWIDTH 960 0
DWIDTH 24 0
BBX 24 24 0 -6
BITMAP
000000
000000
000000
000000
000000
000000
000000
000800
007800
001800
001800
001800
001800
001800
001800
001800
001800
001900
000E00
000000
000000
000000
000000
000000
ENDCHAR

STARTCHAR A6CA
ENCODING 42698
SWIDTH 960 0
DWIDTH 24 0
BBX 24 24 0 -6
BITMAP
000000
000000
000000
000000
000000
000000
000000
006070
0060B0
006100
006600
007800
007800
006C00
006600
006300
006180
0060C0
0061F0
000000
000000
000000
000000
000000
ENDCHAR

STARTCHAR A6CB
ENCODING 42699
SWIDTH 960 0
DWIDTH 24 0
BBX 24 24 0 -6
BITMAP
000000
000000
00C000
012000
011000
001000
001000
001800
000800
003800
002C00
006400
006400
00C600
00C200
018300
030100
030120
0600C0
000000
000000
000000
000000
000000
ENDCHAR

STARTCHAR A6CC
ENCODING 42700
SWIDTH 960 0
DWIDTH 24 0
BBX 24 24 0 -6
BITMAP
000000
000000
000000
000000
000000
000000
000000
018180
018180
018180
018180
018180
018180
018180
018180
018180
01C390
01FDA0
01B8C0
018000
018000
018000
018000
000000
ENDCHAR

STARTCHAR A6CD
ENCODING 42701
SWIDTH 960 0
DWIDTH 24 0
BBX 24 24 0 -6
BITMAP
000000
000000
000000
000000
000000
000000
000000
018180
02C180
00C080
00C080
00C100
00C100
00C200
00C200
00C400
00C800
00D000
006000
000000
000000
000000
000000
000000
ENDCHAR

STARTCHAR A6CE
ENCODING 42702
SWIDTH 960 0
DWIDTH 24 0
BBX 24 24 0 -6
BITMAP
000000
001800
006000
004000
006600
003E00
006000
00C000
00C000
007E00
008E00
018000
030000
030000
030000
018000
00FE00
007F00
000180
000180
000180
00C300
00FE00
000000
ENDCHAR

STARTCHAR A6CF
ENCODING 42703
SWIDTH 960 0
DWIDTH 24 0
BBX 24 24 0 -6
BITMAP
000000
000000
000000
000000
000000
000000
000000
003800
00C600
018300
030180
030180
030180
030180
030180
030180
018300
00C600
003800
000000
000000
000000
000000
000000
ENDCHAR

STARTCHAR A6D0
ENCODING 42704
SWIDTH 960 0
DWIDTH 24 0
BBX 24 24 0 -6
BITMAP
000000
000000
000000
000000
000000
000000
000000
01FFC0
03FFC0
044200
004200
004200
004200
004200
004200
004200
008220
038340
030180
000000
000000
000000
000000
000000
ENDCHAR

STARTCHAR A6D1
ENCODING 42705
SWIDTH 960 0
DWIDTH 24 0
BBX 24 24 0 -6
BITMAP
000000
000000
000000
000000
000000
000000
000000
001C00
002300
006180
004180
00C180
00C180
00C180
00C180
00C180
00C100
00E300
00DC00
00C000
00C000
00C000
00C000
000000
ENDCHAR

STARTCHAR A6D2
ENCODING 42706
SWIDTH 960 0
DWIDTH 24 0
BBX 24 24 0 -6
BITMAP
000000
000000
000000
000000
000000
000000
000000
003FE0
00C7E0
018300
030180
030180
030180
030180
030180
030180
018300
00C600
003800
000000
000000
000000
000000
000000
ENDCHAR

STARTCHAR A6D3
ENCODING 42707
SWIDTH 960 0
DWIDTH 24 0
BBX 24 24 0 -6
BITMAP
000000
000000
000000
000000
000000
000000
000000
00FF80
01FF80
021800
001800
001800
001800
001800
001800
001800
001800
001900
000E00
000000
000000
000000
000000
000000
ENDCHAR

STARTCHAR A6D4
ENCODING 42708
SWIDTH 960 0
DWIDTH 24 0
BBX 24 24 0 -6
BITMAP
000000
000000
000000
000000
000000
000000
000000
030180
0781C0
0780C0
0180C0
018080
018080
018100
018100
018200
018200
018C00
00F000
000000
000000
000000
000000
000000
ENDCHAR

STARTCHAR A6D5
ENCODING 42709
SWIDTH 960 0
DWIDTH 24 0
BBX 24 24 0 -6
BITMAP
000000
000000
001000
001000
001000
001000
001000
007C00
019300
031180
0610C0
0610C0
0610C0
0610C0
0610C0
0610C0
031180
019300
007C00
001000
001000
001000
001000
000000
ENDCHAR

STARTCHAR A6D6
ENCODING 42710
SWIDTH 960 0
DWIDTH 24 0
BBX 24 24 0 -6
BITMAP
000000
000000
000000
000000
000000
000000
000000
0180C0
024180
004300
002300
002600
001600
001C00
001800
001800
003800
006400
006400
00C200
00C200
018120
0300C0
000000
ENDCHAR

STARTCHAR A6D7
ENCODING 42711
SWIDTH 960 0
DWIDTH 24 0
BBX 24 24 0 -6
BITMAP
000000
000000
000000
000800
000800
000800
000800
030980
0589C0
0188C0
0188C0
0188C0
0188C0
0188C0
0188C0
0188C0
0188C0
00C980
003E00
000800
000800
000800
000800
000000
ENDCHAR

STARTCHAR A6D8
ENCODING 42712
SWIDTH 960 0
DWIDTH 24 0
BBX 24 24 0 -6
BITMAP
000000
000000
000000
000000
000000
000000
000000
01C380
0300C0
0300C0
060060
060060
061860
061860
061860
061860
061860
0324C0
01C380
000000
000000
000000
000000
000000
ENDCHAR

STARTCHAR A7A1
ENCODING 42913
SWIDTH 960 0
DWIDTH 24 0
BBX 24 24 0 -6
BITMAP
000000
000000
000000
000000
001000
003000
003800
004800
004C00
00C400
008600
008600
010300
01FF00
010300
020180
020180
020180
0400C0
0400C0
1F03F0
000000
000000
000000
ENDCHAR

STARTCHAR A7A2
ENCODING 42914
SWIDTH 960 0
DWIDTH 24 0
BBX 24 24 0 -6
BITMAP
000000
000000
000000
000000
07FF80
018180
018080
018080
018000
018000
018000
018000
01FE00
018300
018180
018180
018180
018180
018180
018300
07FE00
000000
000000
000000
ENDCHAR

STARTCHAR A7A3
ENCODING 42915
SWIDTH 960 0
DWIDTH 24 0
BBX 24 24 0 -6
BITMAP
000000
000000
000000
000000
07FE00
018300
018180
018180
018180
018180
018180
018300
01FE00
018380
0181C0
0180C0
0180C0
0180C0
0181C0
018380
07FF80
000000
000000
000000
ENDCHAR

STARTCHAR A7A4
ENCODING 42916
SWIDTH 960 0
DWIDTH 24 0
BBX 24 24 0 -6
BITMAP
000000
000000
000000
000000
07FFF0
018030
018010
018010
018000
018000
018000
018000
018000
018000
018000
018000
018000
018000
018000
018000
07E000
000000
000000
000000
ENDCHAR

STARTCHAR A7A5
ENCODING 42917
SWIDTH 960 0
DWIDTH 24 0
BBX 24 24 0 -6
BITMAP
000000
000000
000000
000000
03FFE0
008180
008180
008180
008180
010180
010180
010180
010180
010180
020180
020180
020180
020180
040180
080180
1FFFF0
300030
200010
000000
ENDCHAR

STARTCHAR A7A6
ENCODING 42918
SWIDTH 960 0
DWIDTH 24 0
BBX 24 24 0 -6
BITMAP
000000
000000
000000
000000
07FFE0
018060
018020
018020
018000
018100
018100
018300
01FF00
018300
018100
018100
018000
018020
018020
018060
07FFE0
000000
000000
000000
ENDCHAR

STARTCHAR A7A7
ENCODING 42919
SWIDTH 960 0
DWIDTH 24 0
BBX 24 24 0 -6
BITMAP
000000
008200
01C700
008200
000000
07FFE0
018060
018020
018000
018100
018100
018300
01FF00
018300
018100
018100
018000
018020
018020
018060
07FFE0
000000
000000
000000
ENDCHAR

STARTCHAR A7A8
ENCODING 42920
SWIDTH 960 0
DWIDTH 24 0
BBX 24 24 0 -6
BITMAP
000000
000000
000000
000000
1C7E38
1A1858
021840
011880
011880
009900
009900
005A00
007E00
00DB00
019980
019980
0318C0
061860
061860
0C1830
3C7E3C
000000
000000
000000
ENDCHAR

STARTCHAR A7A9
ENCODING 42921
SWIDTH 960 0
DWIDTH 24 0
BBX 24 24 0 -6
BITMAP
000000
000000
000000
000000
027C00
038600
030300
020300
020300
000300
000600
000C00
007800
000C00
000600
000300
040300
040300
060300
030600
01F800
000000
000000
000000
ENDCHAR

STARTCHAR A7AA
ENCODING 42922
SWIDTH 960 0
DWIDTH 24 0
BBX 24 24 0 -6
BITMAP
000000
000000
000000
000000
0FC3F0
0300C0
0300C0
0301C0
0302C0
0302C0
0304C0
0308C0
0308C0
0310C0
0320C0
0340C0
0340C0
0380C0
0300C0
0300C0
0FC3F0
000000
000000
000000
ENDCHAR

STARTCHAR A7AB
ENCODING 42923
SWIDTH 960 0
DWIDTH 24 0
BBX 24 24 0 -6
BITMAP
000000
00C300
004200
003C00
0F81F0
0300C0
0300C0
0301C0
0302C0
0302C0
0304C0
0308C0
0308C0
0310C0
0320C0
0340C0
0340C0
0380C0
0300C0
0300C0
0FC3F0
000000
000000
000000
ENDCHAR

STARTCHAR A7AC
ENCODING 42924
SWIDTH 960 0
DWIDTH 24 0
BBX 24 24 0 -6
BITMAP
000000
000000
000000
000000
0FC0E0
030160
030200
030400
030800
031000
032000
036000
03E000
033000
031800
030C00
030600
030300
030180
0300C0
0FC0F0
000000
000000
000000
ENDCHAR

STARTCHAR A7AD
ENCODING 42925
SWIDTH 960 0
DWIDTH 24 0
BBX 24 24 0 -6
BITMAP
000000
000000
000000
000000
07FFE0
010180
010180
010180
010180
010180
010180
010180
010180
010180
010180
010180
010180
010180
190180
1A0180
0C07E0
000000
000000
000000
ENDCHAR

STARTCHAR A7AE
ENCODING 42926
SWIDTH 960 0
DWIDTH 24 0
BBX 24 24 0 -6
BITMAP
000000
000000
000000
000000
3E007C
0B00E0
0B00E0
0B0160
098160
098160
098260
08C260
08C260
08C460
086460
086460
086860
083860
083060
081060
3E01F8
000000
000000
000000
ENDCHAR

STARTCHAR A7AF
ENCODING 42927
SWIDTH 960 0
DWIDTH 24 0
BBX 24 24 0 -6
BITMAP
000000
000000
000000
000000
0FC3F0
0300C0
0300C0
0300C0
0300C0
0300C0
0300C0
0300C0
03FFC0
0300C0
0300C0
0300C0
0300C0
0300C0
0300C0
0300C0
0FC3F0
000000
000000
000000
ENDCHAR

STARTCHAR A7B0
ENCODING 42928
SWIDTH 960 0
DWIDTH 24 0
BBX 24 24 0 -6
BITMAP
000000
000000
000000
000000
003800
00C600
030180
0600C0
040060
0C0060
0C0060
0C0060
0C0060
0C0060
0C0060
0C0060
040040
0600C0
030180
00C600
003800
000000
000000
000000
ENDCHAR

STARTCHAR A7B1
ENCODING 42929
SWIDTH 960 0
DWIDTH 24 0
BBX 24 24 0 -6
BITMAP
000000
000000
000000
000000
0FFFF0
0300C0
0300C0
0300C0
0300C0
0300C0
0300C0
0300C0
0300C0
0300C0
0300C0
0300C0
0300C0
0300C0
0300C0
0300C0
0FC3F0
000000
000000
000000
ENDCHAR

STARTCHAR A7B2
ENCODING 42930
SWIDTH 960 0
DWIDTH 24 0
BBX 24 24 0 -6
BITMAP
000000
000000
000000
000000
07FF00
018180
0180C0
0180C0
0180C0
0180C0
0180C0
018180
01FF00
018000
018000
018000
018000
018000
018000
018000
07E000
000000
000000
000000
ENDCHAR

STARTCHAR A7B3
ENCODING 42931
SWIDTH 960 0
DWIDTH 24 0
BBX 24 24 0 -6
BITMAP
000000
000000
000000
000000
003F20
00C0E0
018060
030020
030020
060000
060000
060000
060000
060000
060000
060030
030030
030020
018060
00C0C0
003F00
000000
000000
000000
ENDCHAR

STARTCHAR A7B4
ENCODING 42932
SWIDTH 960 0
DWIDTH 24 0
BBX 24 24 0 -6
BITMAP
000000
000000
000000
000000
0FFFF0
0C1830
081810
081810
001800
001800
001800
001800
001800
001800
001800
001800
001800
001800
001800
001800
007E00
000000
000000
000000
ENDCHAR

STARTCHAR A7B5
ENCODING 42933
SWIDTH 960 0
DWIDTH 24 0
BBX 24 24 0 -6
BITMAP
000000
000000
000000
000000
0FC1F0
030040
018080
018080
00C100
00C100
006200
006200
003400
003400
001800
000800
001000
001000
062000
064000
038000
000000
000000
000000
ENDCHAR

STARTCHAR A7B6
ENCODING 42934
SWIDTH 960 0
DWIDTH 24 0
BBX 24 24 0 -6
BITMAP
000000
000000
000000
000000
007E00
001800
001800
00FF00
0318C0
061860
0C1830
0C1830
0C1830
0C1830
0C1830
061860
0318C0
00FF00
001800
001800
007E00
000000
000000
000000
ENDCHAR

STARTCHAR A7B7
ENCODING 42935
SWIDTH 960 0
DWIDTH 24 0
BBX 24 24 0 -6
BITMAP
000000
000000
000000
000000
0F80F8
030020
018040
00C080
006100
006200
003400
001800
001800
001C00
002600
004600
008300
010180
0200C0
040060
1F01F8
000000
000000
000000
ENDCHAR

STARTCHAR A7B8
ENCODING 42936
SWIDTH 960 0
DWIDTH 24 0
BBX 24 24 0 -6
BITMAP
000000
000000
000000
000000
0FC3F0
0300C0
0300C0
0300C0
0300C0
0300C0
0300C0
0300C0
0300C0
0300C0
0300C0
0300C0
0300C0
0300C0
0300C0
0300C0
0FFFF8
000018
000008
000000
ENDCHAR

STARTCHAR A7B9
ENCODING 42937
SWIDTH 960 0
DWIDTH 24 0
BBX 24 24 0 -6
BITMAP
000000
000000
000000
000000
07C3E0
018180
018180
018180
018180
018180
018180
018380
008580
007980
000180
000180
000180
000180
000180
000180
0007E0
000000
000000
000000
ENDCHAR

STARTCHAR A7BA
ENCODING 42938
SWIDTH 960 0
DWIDTH 24 0
BBX 24 24 0 -6
BITMAP
000000
000000
000000
000000
1F3CF8
061860
061860
061860
061860
061860
061860
061860
061860
061860
061860
061860
061860
061860
061860
061860
1FFFF8
000000
000000
000000
ENDCHAR

STARTCHAR A7BB
ENCODING 42939
SWIDTH 960 0
DWIDTH 24 0
BBX 24 24 0 -6
BITMAP
000000
000000
000000
000000
1F3CF8
061860
061860
061860
061860
061860
061860
061860
061860
061860
061860
061860
061860
061860
061860
061860
1FFFFC
00000C
000004
000000
ENDCHAR

STARTCHAR A7BC
ENCODING 42940
SWIDTH 960 0
DWIDTH 24 0
BBX 24 24 0 -6
BITMAP
000000
000000
000000
000000
1FFC00
183000
103000
103000
003000
003000
003000
003000
003FE0
003030
003018
003018
003018
003018
003018
003030
00FFE0
000000
000000
000000
ENDCHAR

STARTCHAR A7BD
ENCODING 42941
SWIDTH 960 0
DWIDTH 24 0
BBX 24 24 0 -6
BITMAP
000000
000000
000000
000000
3F00FC
0C0030
0C0030
0C0030
0C0030
0C0030
0C0030
0C0030
0FF830
0C0C30
0C0630
0C0630
0C0630
0C0630
0C0630
0C0C30
3FF8FC
000000
000000
000000
ENDCHAR

STARTCHAR A7BE
ENCODING 42942
SWIDTH 960 0
DWIDTH 24 0
BBX 24 24 0 -6
BITMAP
000000
000000
000000
000000
07E000
018000
018000
018000
018000
018000
018000
018000
01FF00
018180
0180C0
0180C0
0180C0
0180C0
0180C0
018180
07FF00
000000
000000
000000
ENDCHAR

STARTCHAR A7BF
ENCODING 42943
SWIDTH 960 0
DWIDTH 24 0
BBX 24 24 0 -6
BITMAP
000000
000000
000000
000000
04FC00
070300
060180
0400C0
0400C0
000060
000060
000060
007FE0
000060
000060
000060
0800C0
0800C0
0C0180
070300
01FC00
000000
000000
000000
ENDCHAR

STARTCHAR A7C0
ENCODING 42944
SWIDTH 960 0
DWIDTH 24 0
BBX 24 24 0 -6
BITMAP
000000
000000
000000
000000
3F0780
0C1860
0C3030
0C3030
0C6018
0C6018
0C6018
0C6018
0FE018
0C6018
0C6018
0C6018
0C6018
0C3030
0C3030
0C1860
3F0780
000000
000000
000000
ENDCHAR

STARTCHAR A7C1
ENCODING 42945
SWIDTH 960 0
DWIDTH 24 0
BBX 24 24 0 -6
BITMAP
000000
000000
000000
000000
00FFE0
018180
030180
030180
030180
030180
018180
00FF80
001980
003180
003180
006180
00C180
00C180
018180
030180
0F87E0
000000
000000
000000
ENDCHAR

STARTCHAR A7D1
ENCODING 42961
SWIDTH 960 0
DWIDTH 24 0
BBX 24 24 0 -6
BITMAP
000000
000000
000000
000000
000000
000000
000000
000000
000000
000000
007800
00C600
00C300
008300
000F00
007300
00C300
018300
018700
019B40
00E380
000000
000000
000000
ENDCHAR

STARTCHAR A7D2
ENCODING 42962
SWIDTH 960 0
DWIDTH 24 0
BBX 24 24 0 -6
BITMAP
000000
000000
000000
000000
000000
000000
000200
001C00
007000
00C000
018000
018000
01B800
01C600
018300
018300
018300
018300
018300
00C600
003800
000000
000000
000000
ENDCHAR

STARTCHAR A7D3
ENCODING 42963
SWIDTH 960 0
DWIDTH 24 0
BBX 24 24 0 -6
BITMAP
000000
000000
000000
000000
000000
000000
000000
000000
000000
000000
01FE00
00C700
00C300
00C300
00C300
00FE00
00C300
00C180
00C180
00C380
01FF00
000000
000000
000000
ENDCHAR

STARTCHAR A7D4
ENCODING 42964
SWIDTH 960 0
DWIDTH 24 0
BBX 24 24 0 -6
BITMAP
000000
000000
000000
000000
000000
000000
000000
000000
000000
000000
01FF80
00C180
00C080
00C000
00C000
00C000
00C000
00C000
00C000
00C000
01E000
000000
000000
000000
ENDCHAR

STARTCHAR A7D5
ENCODING 42965
SWIDTH 960 0
DWIDTH 24 0
BBX 24 24 0 -6
BITMAP
000000
000000
000000
000000
000000
000000
000000
000000
000000
000000
00FF00
004600
004600
004600
008600
008600
008600
010600
010600
010600
03FFC0
0600C0
040040
000000
ENDCHAR

STARTCHAR A7D6
ENCODING 42966
SWIDTH 960 0
DWIDTH 24 0
BBX 24 24 0 -6
BITMAP
000000
000000
000000
000000
000000
000000
000000
000000
000000
000000
003E00
006100
00C180
00C180
00FF80
00C000
00C000
00C080
00C080
006100
003E00
000000
000000
000000
ENDCHAR

STARTCHAR A7D7
ENCODING 42967
SWIDTH 960 0
DWIDTH 24 0
BBX 24 24 0 -6
BITMAP
000000
000000
000000
000000
000000
000000
002200
007700
002200
000000
003E00
006100
00C180
00C180
00FF80
00C000
00C000
00C080
00C080
006100
003E00
000000
000000
000000
ENDCHAR

STARTCHAR A7D8
ENCODING 42968
SWIDTH 960 0
DWIDTH 24 0
BBX 24 24 0 -6
BITMAP
000000
000000
000000
000000
000000
000000
000000
000000
000000
000000
073CE0
069960
009900
005A00
005A00
003C00
00DB00
019980
019980
0318C0
0F3CF0
000000
000000
000000
ENDCHAR

STARTCHAR A7D9
ENCODING 42969
SWIDTH 960 0
DWIDTH 24 0
BBX 24 24 0 -6
BITMAP
000000
000000
000000
000000
000000
000000
000000
000000
000000
000000
017C00
018600
018300
010300
000600
003C00
000600
018300
018300
00C600
007C00
000000
000000
000000
ENDCHAR

STARTCHAR A7DA
ENCODING 42970
SWIDTH 960 0
DWIDTH 24 0
BBX 24 24 0 -6
BITMAP
000000
000000
000000
000000
000000
000000
000000
000000
000000
000000
01E780
00C300
00C700
00CB00
00CB00
00D300
00D300
00E300
00E300
00C300
01E780
000000
000000
000000
ENDCHAR

STARTCHAR A7DB
ENCODING 42971
SWIDTH 960 0
DWIDTH 24 0
BBX 24 24 0 -6
BITMAP
000000
000000
000000
000000
000000
006600
004200
002400
001800
000000
01E780
00C300
00C700
00CB00
00CB00
00D300
00D300
00E300
00E300
00C300
01E780
000000
000000
000000
ENDCHAR

STARTCHAR A7DC
ENCODING 42972
SWIDTH 960 0
DWIDTH 24 0
BBX 24 24 0 -6
BITMAP
000000
000000
000000
000000
000000
000000
000000
000000
000000
000000
01E180
00C380
00C400
00C800
00F000
00F000
00D800
00CC00
00C600
00C300
01E3C0
000000
000000
000000
ENDCHAR

STARTCHAR A7DD
ENCODING 42973
SWIDTH 960 0
DWIDTH 24 0
BBX 24 24 0 -6
BITMAP
000000
000000
000000
000000
000000
000000
000000
000000
000000
000000
00FFC0
002300
002300
002300
002300
004300
004300
004300
068300
068300
030780
000000
000000
000000
ENDCHAR

STARTCHAR A7DE
ENCODING 42974
SWIDTH 960 0
DWIDTH 24 0
BBX 24 24 0 -6
BITMAP
000000
000000
000000
000000
000000
000000
000000
000000
000000
000000
03C0E0
01C1C0
0161C0
0162C0
0162C0
0162C0
0134C0
0134C0
0118C0
0118C0
0391E0
000000
000000
000000
ENDCHAR

STARTCHAR A7DF
ENCODING 42975
SWIDTH 960 0
DWIDTH 24 0
BBX 24 24 0 -6
BITMAP
000000
000000
000000
000000
000000
000000
000000
000000
000000
000000
01E780
00C300
00C300
00C300
00C300
00FF00
00C300
00C300
00C300
00C300
01E780
000000
000000
000000
ENDCHAR

STARTCHAR A7E0
ENCODING 42976
SWIDTH 960 0
DWIDTH 24 0
BBX 24 24 0 -6
BITMAP
000000
000000
000000
000000
000000
000000
000000
000000
000000
000000
003C00
00C300
018180
018180
018180
018180
018180
018180
018180
00C300
003C00
000000
000000
000000
ENDCHAR

STARTCHAR A7E1
ENCODING 42977
SWIDTH 960 0
DWIDTH 24 0
BBX 24 24 0 -6
BITMAP
000000
000000
000000
000000
000000
000000
000000
000000
000000
000000
01FF80
00C300
00C300
00C300
00C300
00C300
00C300
00C300
00C300
00C300
01E780
000000
000000
000000
ENDCHAR

STARTCHAR A7E2
ENCODING 42978
SWIDTH 960 0
DWIDTH 24 0
BBX 24 24 0 -6
BITMAP
000000
000000
000000
000000
000000
000000
000000
000000
000000
000000
013800
01C600
018300
018300
018300
018300
018300
018300
01C600
01BC00
018000
018000
03C000
000000
ENDCHAR

STARTCHAR A7E3
ENCODING 42979
SWIDTH 960 0
DWIDTH 24 0
BBX 24 24 0 -6
BITMAP
000000
000000
000000
000000
000000
000000
000000
000000
000000
000000
003E00
006300
00C300
00C000
00C000
00C000
00C000
00C000
00C100
006100
003E00
000000
000000
000000
ENDCHAR

STARTCHAR A7E4
ENCODING 42980
SWIDTH 960 0
DWIDTH 24 0
BBX 24 24 0 -6
BITMAP
000000
000000
000000
000000
000000
000000
000000
000000
000000
000000
01FF80
019980
011880
011880
001800
001800
001800
001800
001800
001800
003C00
000000
000000
000000
ENDCHAR

STARTCHAR A7E5
ENCODING 42981
SWIDTH 960 0
DWIDTH 24 0
BBX 24 24 0 -6
BITMAP
000000
000000
000000
000000
000000
000000
000000
000000
000000
000000
03C380
018100
00C100
00C200
006200
006400
003400
003800
001800
001000
031000
032000
01C000
000000
ENDCHAR

STARTCHAR A7E6
ENCODING 42982
SWIDTH 960 0
DWIDTH 24 0
BBX 24 24 0 -6
BITMAP
000000
000000
000000
000000
000800
003800
001800
001800
001800
001800
00FF00
019980
0318C0
061860
061860
061860
061860
0318C0
019980
00FF00
001800
001800
003C00
000000
ENDCHAR

STARTCHAR A7E7
ENCODING 42983
SWIDTH 960 0
DWIDTH 24 0
BBX 24 24 0 -6
BITMAP
000000
000000
000000
000000
000000
000000
000000
000000
000000
000000
03C780
010300
008600
004C00
003800
001800
003800
006400
00C200
018100
07C3C0
000000
000000
000000
ENDCHAR

STARTCHAR A7E8
ENCODING 42984
SWIDTH 960 0
DWIDTH 24 0
BBX 24 24 0 -6
BITMAP
000000
000000
000000
000000
000000
000000
000000
000000
000000
000000
01E780
00C300
00C300
00C300
00C300
00C300
00C300
00C300
00C300
00C300
01FFC0
0000C0
000040
000000
ENDCHAR

STARTCHAR A7E9
ENCODING 42985
SWIDTH 960 0
DWIDTH 24 0
BBX 24 24 0 -6
BITMAP
000000
000000
000000
000000
000000
000000
000000
000000
000000
000000
01E780
00C300
00C300
00C300
00C300
006700
003B00
000300
000300
000300
000780
000000
000000
000000
ENDCHAR

STARTCHAR A7EA
ENCODING 42986
SWIDTH 960 0
DWIDTH 24 0
BBX 24 24 0 -6
BITMAP
000000
000000
000000
000000
000000
000000
000000
000000
000000
000000
07BDE0
0318C0
0318C0
0318C0
0318C0
0318C0
0318C0
0318C0
0318C0
0318C0
07FFE0
000000
000000
000000
ENDCHAR

STARTCHAR A7EB
ENCODING 42987
SWIDTH 960 0
DWIDTH 24 0
BBX 24 24 0 -6
BITMAP
000000
000000
000000
000000
000000
000000
000000
000000
000000
000000
07BDE0
0318C0
0318C0
0318C0
0318C0
0318C0
0318C0
0318C0
0318C0
0318C0
07FFF0
000030
000010
000000
ENDCHAR

STARTCHAR A7EC
ENCODING 42988
SWIDTH 960 0
DWIDTH 24 0
BBX 24 24 0 -6
BITMAP
000000
000000
000000
000000
000000
000000
000000
000000
000000
000000
03F800
033000
023000
003000
003F00
003180
0030C0
0030C0
0030C0
003180
007F00
000000
000000
000000
ENDCHAR

STARTCHAR A7ED
ENCODING 42989
SWIDTH 960 0
DWIDTH 24 0
BBX 24 24 0 -6
BITMAP
000000
000000
000000
000000
000000
000000
000000
000000
000000
000000
0783C0
030180
030180
030180
03F180
031980
030D80
030D80
030D80
031980
07F3C0
000000
000000
000000
ENDCHAR

STARTCHAR A7EE
ENCODING 42990
SWIDTH 960 0
DWIDTH 24 0
BBX 24 24 0 -6
BITMAP
000000
000000
000000
000000
000000
000000
000000
000000
000000
000000
01E000
00C000
00C000
00C000
00FC00
00C600
00C300
00C300
00C300
00C600
01FC00
000000
000000
000000
ENDCHAR

STARTCHAR A7EF
ENCODING 42991
SWIDTH 960 0
DWIDTH 24 0
BBX 24 24 0 -6
BITMAP
000000
000000
000000
000000
000000
000000
000000
000000
000000
000000
007800
008600
008300
000300
000300
003F00
000300
000300
00C300
00C600
007C00
000000
000000
000000
ENDCHAR

STARTCHAR A7F0
ENCODING 42992
SWIDTH 960 0
DWIDTH 24 0
BBX 24 24 0 -6
BITMAP
000000
000000
000000
000000
000000
000000
000000
000000
000000
000000
03C700
018880
0198C0
0198C0
0198C0
01F8C0
0198C0
0198C0
0198C0
018880
07C700
000000
000000
000000
ENDCHAR

STARTCHAR A7F1
ENCODING 42993
SWIDTH 960 0
DWIDTH 24 0
BBX 24 24 0 -6
BITMAP
000000
000000
000000
000000
000000
000000
000000
000000
000000
000000
007F80
00C300
00C300
00C300
00C300
007F00
001B00
003300
003300
006300
01E780
000000
000000
000000
ENDCHAR

STARTCHAR A8A1
ENCODING 43169
SWIDTH 960 0
DWIDTH 24 0
BBX 24 24 0 -6
BITMAP
000000
000000
000000
01FF00
000000
000000
000000
007900
008700
018300
018300
018300
018300
018300
018300
018300
018300
008700
007900
000000
000000
000000
000000
000000
ENDCHAR

STARTCHAR A8A2
ENCODING 43170
SWIDTH 960 0
DWIDTH 24 0
BBX 24 24 0 -6
BITMAP
000000
000000
000800
001000
002000
004000
000000
007900
008700
018300
018300
018300
018300
018300
018300
018300
018300
008700
007900
000000
000000
000000
000000
000000
ENDCHAR

STARTCHAR A8A3
ENCODING 43171
SWIDTH 960 0
DWIDTH 24 0
BBX 24 24 0 -6
BITMAP
000000
000000
008400
004800
003000
000000
000000
007900
008700
018300
018300
018300
018300
018300
018300
018300
018300
008700
007900
000000
000000
000000
000000
000000
ENDCHAR

STARTCHAR A8A4
ENCODING 43172
SWIDTH 960 0
DWIDTH 24 0
BBX 24 24 0 -6
BITMAP
000000
000000
004000
002000
001000
000800
000000
007900
008700
018300
018300
018300
018300
018300
018300
018300
018300
008700
007900
000000
000000
000000
000000
000000
ENDCHAR

STARTCHAR A8A5
ENCODING 43173
SWIDTH 960 0
DWIDTH 24 0
BBX 24 24 0 -6
BITMAP
000000
000000
000000
01FF00
000000
000000
000000
007C00
008200
018300
018300
018300
01FF00
018000
018000
018000
018300
00C200
007C00
000000
000000
000000
000000
000000
ENDCHAR

STARTCHAR A8A6
ENCODING 43174
SWIDTH 960 0
DWIDTH 24 0
BBX 24 24 0 -6
BITMAP
000000
000000
000800
001000
002000
004000
000000
007C00
008200
018300
018300
018300
01FF00
018000
018000
018000
018300
00C200
007C00
000000
000000
000000
000000
000000
ENDCHAR

STARTCHAR A8A7
ENCODING 43175
SWIDTH 960 0
DWIDTH 24 0
BBX 24 24 0 -6
BITMAP
000000
000000
008400
004800
003000
000000
000000
007C00
008200
018300
018300
018300
01FF00
018000
018000
018000
018300
00C200
007C00
000000
000000
000000
000000
000000
ENDCHAR

STARTCHAR A8A8
ENCODING 43176
SWIDTH 960 0
DWIDTH 24 0
BBX 24 24 0 -6
BITMAP
000000
000000
004000
002000
001000
000800
000000
007C00
008200
018300
018300
018300
01FF00
018000
018000
018000
018300
00C200
007C00
000000
000000
000000
000000
000000
ENDCHAR

STARTCHAR A8A9
ENCODING 43177
SWIDTH 960 0
DWIDTH 24 0
BBX 24 24 0 -6
BITMAP
000000
000000
000000
003C00
000000
000000
000000
001800
001800
001800
001800
001800
001800
001800
001800
001800
001800
001800
001800
000000
000000
000000
000000
000000
ENDCHAR

STARTCHAR A8AA
ENCODING 43178
SWIDTH 960 0
DWIDTH 24 0
BBX 24 24 0 -6
BITMAP
000000
000000
000400
000800
001000
002000
000000
001800
001800
001800
001800
001800
001800
001800
001800
001800
001800
001800
001800
000000
000000
000000
000000
000000
ENDCHAR

STARTCHAR A8AB
ENCODING 43179
SWIDTH 960 0
DWIDTH 24 0
BBX 24 24 0 -6
BITMAP
000000
000000
004200
002400
001800
000000
000000
001800
001800
001800
001800
001800
001800
001800
001800
001800
001800
001800
001800
000000
000000
000000
000000
000000
ENDCHAR

STARTCHAR A8AC
ENCODING 43180
SWIDTH 960 0
DWIDTH 24 0
BBX 24 24 0 -6
BITMAP
000000
000000
002000
001000
000800
000400
000000
001800
001800
001800
001800
001800
001800
001800
001800
001800
001800
001800
001800
000000
000000
000000
000000
000000
ENDCHAR

STARTCHAR A8AD
ENCODING 43181
SWIDTH 960 0
DWIDTH 24 0
BBX 24 24 0 -6
BITMAP
000000
000000
000000
01FF80
000000
000000
000000
003C00
00C300
008100
018180
018180
018180
018180
018180
018180
008100
00C300
003C00
000000
000000
000000
000000
000000
ENDCHAR

STARTCHAR A8AE
ENCODING 43182
SWIDTH 960 0
DWIDTH 24 0
BBX 24 24 0 -6
BITMAP
000000
000000
000400
000800
001000
002000
000000
003C00
00C300
008100
018180
018180
018180
018180
018180
018180
008100
00C300
003C00
000000
000000
000000
000000
000000
ENDCHAR

STARTCHAR A8AF
ENCODING 43183
SWIDTH 960 0
DWIDTH 24 0
BBX 24 24 0 -6
BITMAP
000000
000000
004200
002400
001800
000000
000000
003C00
00C300
008100
018180
018180
018180
018180
018180
018180
008100
00C300
003C00
000000
000000
000000
000000
000000
ENDCHAR

STARTCHAR A8B0
ENCODING 43184
SWIDTH 960 0
DWIDTH 24 0
BBX 24 24 0 -6
BITMAP
000000
000000
002000
001000
000800
000400
000000
003C00
00C300
008100
018180
018180
018180
018180
018180
018180
008100
00C300
003C00
000000
000000
000000
000000
000000
ENDCHAR

STARTCHAR A8B1
ENCODING 43185
SWIDTH 960 0
DWIDTH 24 0
BBX 24 24 0 -6
BITMAP
000000
000000
000000
01FF00
000000
000000
000000
018300
018300
018300
018300
018300
018300
018300
018300
018300
018300
008700
007900
000000
000000
000000
000000
000000
ENDCHAR

STARTCHAR A8B2
ENCODING 43186
SWIDTH 960 0
DWIDTH 24 0
BBX 24 24 0 -6
BITMAP
000000
000000
000400
000800
001000
002000
000000
018300
018300
018300
018300
018300
018300
018300
018300
018300
018300
008700
007900
000000
000000
000000
000000
000000
ENDCHAR

STARTCHAR A8B3
ENCODING 43187
SWIDTH 960 0
DWIDTH 24 0
BBX 24 24 0 -6
BITMAP
000000
000000
004200
002400
001800
000000
000000
018300
018300
018300
018300
018300
018300
018300
018300
018300
018300
008700
007900
000000
000000
000000
000000
000000
ENDCHAR

STARTCHAR A8B4
ENCODING 43188
SWIDTH 960 0
DWIDTH 24 0
BBX 24 24 0 -6
BITMAP
000000
000000
004000
002000
001000
000800
000000
018300
018300
018300
018300
018300
018300
018300
018300
018300
018300
008700
007900
000000
000000
000000
000000
000000
ENDCHAR

STARTCHAR A8B5
ENCODING 43189
SWIDTH 960 0
DWIDTH 24 0
BBX 24 24 0 -6
BITMAP
000000
000000
000000
01FF00
000000
00C600
000000
018300
018300
018300
018300
018300
018300
018300
018300
018300
018300
008700
007900
000000
000000
000000
000000
000000
ENDCHAR

STARTCHAR A8B6
ENCODING 43190
SWIDTH 960 0
DWIDTH 24 0
BBX 24 24 0 -6
BITMAP
000000
000400
000800
001000
000000
00C600
000000
018300
018300
018300
018300
018300
018300
018300
018300
018300
018300
008700
007900
000000
000000
000000
000000
000000
ENDCHAR

STARTCHAR A8B7
ENCODING 43191
SWIDTH 960 0
DWIDTH 24 0
BBX 24 24 0 -6
BITMAP
000000
004200
002400
001800
000000
00C600
000000
018300
018300
018300
018300
018300
018300
018300
018300
018300
018300
008700
007900
000000
000000
000000
000000
000000
ENDCHAR

STARTCHAR A8B8
ENCODING 43192
SWIDTH 960 0
DWIDTH 24 0
BBX 24 24 0 -6
BITMAP
000000
004000
002000
001000
000000
00C600
000000
018300
018300
018300
018300
018300
018300
018300
018300
018300
018300
008700
007900
000000
000000
000000
000000
000000
ENDCHAR

STARTCHAR A8B9
ENCODING 43193
SWIDTH 960 0
DWIDTH 24 0
BBX 24 24 0 -6
BITMAP
000000
000000
000000
000000
000000
00C600
000000
018300
018300
018300
018300
018300
018300
018300
018300
018300
018300
008700
007900
000000
000000
000000
000000
000000
ENDCHAR

STARTCHAR A8BA
ENCODING 43194
SWIDTH 960 0
DWIDTH 24 0
BBX 24 24 0 -6
BITMAP
000000
000000
003000
004800
008400
000000
000000
007C00
008200
018300
018300
018300
01FF00
018000
018000
018000
018300
00C200
007C00
000000
000000
000000
000000
000000
ENDCHAR

STARTCHAR A8C5
ENCODING 43205
SWIDTH 960 0
DWIDTH 24 0
BBX 24 24 0 -6
BITMAP
000000
000000
000000
010000
01C000
018000
030000
030060
020FF0
07F860
020060
000060
000060
000060
0000C0
0000C0
0000C0
0010C0
000D80
000780
000300
000000
000000
000000
ENDCHAR

STARTCHAR A8C6
ENCODING 43206
SWIDTH 960 0
DWIDTH 24 0
BBX 24 24 0 -6
BITMAP
000000
000000
000000
004000
007000
006000
00C000
00C0C0
008FE0
01F8C0
0080C0
0000C0
001180
000D80
000700
000700
000D80
0018C0
0030C0
00C040
070000
000000
000000
000000
ENDCHAR

STARTCHAR A8C7
ENCODING 43207
SWIDTH 960 0
DWIDTH 24 0
BBX 24 24 0 -6
BITMAP
000000
000000
000000
000000
000000
000060
041FF0
07F060
060060
060060
060060
060060
060060
060060
060060
060060
060060
060060
040040
000000
000000
000000
000000
000000
ENDCHAR

STARTCHAR A8C8
ENCODING 43208
SWIDTH 960 0
DWIDTH 24 0
BBX 24 24 0 -6
BITMAP
000000
000000
000000
000000
000180
07FFC0
030000
030000
030000
030000
030000
030000
030000
030000
030000
030000
038060
01FFF0
00FFF0
000000
000000
000000
000000
000000
ENDCHAR

STARTCHAR A8C9
ENCODING 43209
SWIDTH 960 0
DWIDTH 24 0
BBX 24 24 0 -6
BITMAP
000000
000000
000000
008000
00E000
00C000
008000
0180C0
010FE0
03F8C0
0130C0
0030C0
0060C0
0060C0
00C0C0
00C0C0
0180C0
019180
030D80
060700
080200
000000
000000
000000
ENDCHAR

STARTCHAR A8CA
ENCODING 43210
SWIDTH 960 0
DWIDTH 24 0
BBX 24 24 0 -6
BITMAP
000000
000000
000000
001000
001C00
001800
001800
001860
001FF0
0FF000
063000
006000
006000
00C200
00C180
0180C0
030FE0
07F060
038060
000040
000000
000000
000000
000000
ENDCHAR

STARTCHAR A8CB
ENCODING 43211
SWIDTH 960 0
DWIDTH 24 0
BBX 24 24 0 -6
BITMAP
000000
000000
000000
000000
000600
007F00
0FC600
060600
000C00
000C00
0018C0
003FE0
0010C0
0000C0
0000C0
0000C0
0000C0
001180
000D80
000700
000200
000000
000000
000000
ENDCHAR

STARTCHAR A8CC
ENCODING 43212
SWIDTH 960 0
DWIDTH 24 0
BBX 24 24 0 -6
BITMAP
000000
000000
000000
000400
000700
008600
00C600
008600
018C00
010C60
010FF0
03F860
011860
001860
003060
0030C0
0060C0
00C0C0
018D80
020700
000200
000000
000000
000000
ENDCHAR

STARTCHAR A8CD
ENCODING 43213
SWIDTH 960 0
DWIDTH 24 0
BBX 24 24 0 -6
BITMAP
000000
000000
000000
004100
006180
004100
00C300
008200
008200
010400
010400
020800
020800
010400
008200
00C300
006180
0030C0
0030C0
001040
000000
000000
000000
000000
ENDCHAR

STARTCHAR A8CE
ENCODING 43214
SWIDTH 960 0
DWIDTH 24 0
BBX 24 24 0 -6
BITMAP
000000
000000
000000
000000
0001C0
001FE0
1FF000
0CC000
00C000
018000
018300
03FF80
010300
000300
000300
000300
000300
004600
003600
001C00
000800
000000
000000
000000
ENDCHAR

STARTCHAR A8CF
ENCODING 43215
SWIDTH 960 0
DWIDTH 24 0
BBX 24 24 0 -6
BITMAP
000000
000000
000000
000000
000060
0007F0
03FC00
00C000
00C000
00C000
00C000
00C000
00C000
00C000
018000
018000
030000
030000
060000
0C0000
100000
000000
000000
000000
ENDCHAR

STARTCHAR A8D0
ENCODING 43216
SWIDTH 960 0
DWIDTH 24 0
BBX 24 24 0 -6
BITMAP
000000
000000
000000
000000
000200
000380
008300
00E300
00C300
00C300
00C300
018300
018300
018F00
01B300
03C300
010300
000300
000300
000300
000200
000000
000000
000000
ENDCHAR

STARTCHAR A8D1
ENCODING 43217
SWIDTH 960 0
DWIDTH 24 0
BBX 24 24 0 -6
BITMAP
000000
000000
000000
000000
000400
000600
000C00
000800
001000
002000
002000
004000
004000
003000
001800
000C00
000600
000300
000300
000100
000000
000000
000000
000000
ENDCHAR

STARTCHAR A8D2
ENCODING 43218
SWIDTH 960 0
DWIDTH 24 0
BBX 24 24 0 -6
BITMAP
000000
000000
000000
000000
000060
0FFFF0
061800
001800
001800
001800
001800
001800
001800
001800
001800
001800
001800
001800
001800
001800
001000
000000
000000
000000
ENDCHAR

STARTCHAR A8D3
ENCODING 43219
SWIDTH 960 0
DWIDTH 24 0
BBX 24 24 0 -6
BITMAP
000000
000000
000000
001000
001C00
001840
041870
071860
061860
061860
061860
061860
061FE0
0FF860
041840
001800
001800
001800
001830
1FFFF8
0C0000
000000
000000
000000
ENDCHAR

STARTCHAR A8D4
ENCODING 43220
SWIDTH 960 0
DWIDTH 24 0
BBX 24 24 0 -6
BITMAP
000000
000000
000000
000000
000400
000700
000C00
001900
0031C0
006300
00C600
030C00
001C00
003C00
00CC00
030C00
000C00
000C00
000C00
000C00
000800
000000
000000
000000
ENDCHAR

STARTCHAR A8D5
ENCODING 43221
SWIDTH 960 0
DWIDTH 24 0
BBX 24 24 0 -6
BITMAP
000000
000000
000000
0000C0
001FE0
01F0C0
0000C0
0000C0
0000C0
011FE0
01F000
018000
018000
018000
018000
030000
030000
020000
060000
0C0000
100000
000000
000000
000000
ENDCHAR

STARTCHAR A8D6
ENCODING 43222
SWIDTH 960 0
DWIDTH 24 0
BBX 24 24 0 -6
BITMAP
000000
000000
000000
000000
020180
03FFC0
030180
030180
030180
032180
033180
031980
031180
030180
030180
030180
031F80
03F180
030180
020100
000000
000000
000000
000000
ENDCHAR

STARTCHAR A8D7
ENCODING 43223
SWIDTH 960 0
DWIDTH 24 0
BBX 24 24 0 -6
BITMAP
000000
000000
000000
000180
001FC0
07F180
00C180
00C180
00C180
00C180
00C180
00DB00
00CE00
00C400
00C000
00C000
00C000
00C000
00C000
00C000
008000
000000
000000
000000
ENDCHAR

STARTCHAR A8D8
ENCODING 43224
SWIDTH 960 0
DWIDTH 24 0
BBX 24 24 0 -6
BITMAP
000000
000000
000000
001000
001C00
001800
001830
001FF8
0FF800
063000
003060
0063F0
00FE60
004060
000060
0000C0
0000C0
000180
000180
000300
000200
000000
000000
000000
ENDCHAR

STARTCHAR A8D9
ENCODING 43225
SWIDTH 960 0
DWIDTH 24 0
BBX 24 24 0 -6
BITMAP
000000
000000
000000
000000
002000
003800
003000
003000
006000
006000
00C000
00C000
018000
018200
030180
0600C0
0C1FE0
1FF060
0E0060
000040
000000
000000
000000
000000
ENDCHAR

STARTCHAR A8DA
ENCODING 43226
SWIDTH 960 0
DWIDTH 24 0
BBX 24 24 0 -6
BITMAP
000000
000000
000000
000080
0400E0
0301C0
01C180
00E300
007600
002400
001800
001800
001800
001800
001800
001800
001800
001800
001800
001800
001000
000000
000000
000000
ENDCHAR

STARTCHAR A8DB
ENCODING 43227
SWIDTH 960 0
DWIDTH 24 0
BBX 24 24 0 -6
BITMAP
000000
000000
000000
000000
0000E0
07FFF0
031800
001800
001800
001800
00F800
018000
030000
030000
030000
030000
030000
030000
018180
00FE00
000000
000000
000000
000000
ENDCHAR

STARTCHAR A8DC
ENCODING 43228
SWIDTH 960 0
DWIDTH 24 0
BBX 24 24 0 -6
BITMAP
000000
000000
000000
001000
001C00
001800
001800
001830
1FFFF8
0C1800
001800
001800
00F800
018000
030000
030000
030000
030000
0180C0
00FF00
000000
000000
000000
000000
ENDCHAR

STARTCHAR A8DD
ENCODING 43229
SWIDTH 960 0
DWIDTH 24 0
BBX 24 24 0 -6
BITMAP
000000
000000
000000
000200
020380
038300
030300
030320
0303F0
037F00
1FC600
030600
030C00
030C00
031800
031000
032000
0380C0
01FFE0
00FFE0
000000
000000
000000
000000
ENDCHAR

STARTCHAR A8DE
ENCODING 43230
SWIDTH 960 0
DWIDTH 24 0
BBX 24 24 0 -6
BITMAP
000000
000000
000000
000000
000060
0007F0
0FFC00
010C00
018C00
018C00
030C30
030FF8
07FC30
021830
001830
001860
003060
003060
0060C0
00C0C0
030180
000000
000000
000000
ENDCHAR

STARTCHAR A8DF
ENCODING 43231
SWIDTH 960 0
DWIDTH 24 0
BBX 24 24 0 -6
BITMAP
000000
000000
000000
003000
07F800
003000
003000
003000
003000
003000
003000
003000
003000
003000
001800
001800
000C00
000700
0003E0
000180
000000
000000
000000
000000
ENDCHAR

STARTCHAR A8E0
ENCODING 43232
SWIDTH 960 0
DWIDTH 24 0
BBX 24 24 0 -6
BITMAP
000000
000000
000000
002000
003800
003000
003000
006000
004200
00C380
018300
033E00
07CC00
021800
003000
006200
00C100
030F80
07F8C0
0200C0
000080
000000
000000
000000
ENDCHAR

STARTCHAR A8E1
ENCODING 43233
SWIDTH 960 0
DWIDTH 24 0
BBX 24 24 0 -6
BITMAP
000000
000000
000000
0000C0
03FFE0
0180C0
0000C0
0000C0
0000C0
0060C0
003980
000D80
000700
000380
0007C0
000CC0
0018E0
003060
00C040
030000
0C0000
000000
000000
000000
ENDCHAR

STARTCHAR A8E2
ENCODING 43234
SWIDTH 960 0
DWIDTH 24 0
BBX 24 24 0 -6
BITMAP
000000
000000
000000
000180
07FFC0
026180
006180
006300
00C300
00C660
019FF0
03F060
010060
000060
0000C0
0000C0
0000C0
000180
000180
000300
000200
000000
000000
000000
ENDCHAR

STARTCHAR A8E3
ENCODING 43235
SWIDTH 960 0
DWIDTH 24 0
BBX 24 24 0 -6
BITMAP
000000
000000
000000
020000
038000
030000
030000
030000
030000
060000
060060
060FF0
0FF860
040060
000060
000060
0000C0
0000C0
000180
000180
000300
000000
000000
000000
ENDCHAR

STARTCHAR A8E4
ENCODING 43236
SWIDTH 960 0
DWIDTH 24 0
BBX 24 24 0 -6
BITMAP
000000
000000
000000
002000
003800
003000
003000
003060
003FF0
0FF600
066600
006600
006600
00C600
00C600
00C600
018600
018730
0303F8
0601F8
180000
000000
000000
000000
ENDCHAR

STARTCHAR A8E5
ENCODING 43237
SWIDTH 960 0
DWIDTH 24 0
BBX 24 24 0 -6
BITMAP
000000
000000
000000
000000
004000
007000
006000
006000
006000
00C000
00C000
00C000
018000
018000
030000
030000
060060
0C0FF0
1FF800
0E0000
000000
000000
000000
000000
ENDCHAR

STARTCHAR A8E6
ENCODING 43238
SWIDTH 960 0
DWIDTH 24 0
BBX 24 24 0 -6
BITMAP
000000
000000
000000
008400
00E700
00C600
00C600
00C600
00C600
00C600
00C600
00C600
00C600
018610
018610
030610
030618
0607F8
0C03F0
100000
000000
000000
000000
000000
ENDCHAR

STARTCHAR A8E7
ENCODING 43239
SWIDTH 960 0
DWIDTH 24 0
BBX 24 24 0 -6
BITMAP
000000
000000
000000
001000
001C00
001800
001800
001800
001800
001800
001800
001800
001800
001800
001800
001800
001800
001800
001800
001800
001000
000000
000000
000000
ENDCHAR

STARTCHAR A8E8
ENCODING 43240
SWIDTH 960 0
DWIDTH 24 0
BBX 24 24 0 -6
BITMAP
000000
000000
000000
000000
000100
0001C0
000180
000180
000300
030300
00C600
003600
001C00
000E00
001F00
003380
006180
00C080
030000
0C0000
000000
000000
000000
000000
ENDCHAR

STARTCHAR A8E9
ENCODING 43241
SWIDTH 960 0
DWIDTH 24 0
BBX 24 24 0 -6
BITMAP
000000
000000
000000
000000
000000
000040
020070
038060
030060
030060
030060
030060
030060
070060
060060
061FE0
0FF060
040040
000000
000000
000000
000000
000000
000000
ENDCHAR

STARTCHAR A9A4
ENCODING 43428
SWIDTH 960 0
DWIDTH 24 0
BBX 24 24 0 -6
BITMAP
000000
000000
000000
000000
000000
000000
000000
000000
FFFFFF
FFFFFF
000000
000000
000000
000000
000000
000000
000000
000000
000000
000000
000000
000000
000000
000000
ENDCHAR

STARTCHAR A9A5
ENCODING 43429
SWIDTH 960 0
DWIDTH 24 0
BBX 24 24 0 -6
BITMAP
000000
000000
000000
000000
000000
000000
FFFFFF
FFFFFF
FFFFFF
FFFFFF
FFFFFF
FFFFFF
000000
000000
000000
000000
000000
000000
000000
000000
000000
000000
000000
000000
ENDCHAR

STARTCHAR A9A6
ENCODING 43430
SWIDTH 960 0
DWIDTH 24 0
BBX 24 24 0 -6
BITMAP
000300
000300
000300
000300
000300
000300
000300
000300
000300
000300
000300
000300
000300
000300
000300
000300
000300
000300
000300
000300
000300
000300
000300
000300
ENDCHAR

STARTCHAR A9A7
ENCODING 43431
SWIDTH 960 0
DWIDTH 24 0
BBX 24 24 0 -6
BITMAP
000FC0
000FC0
000FC0
000FC0
000FC0
000FC0
000FC0
000FC0
000FC0
000FC0
000FC0
000FC0
000FC0
000FC0
000FC0
000FC0
000FC0
000FC0
000FC0
000FC0
000FC0
000FC0
000FC0
000FC0
ENDCHAR

STARTCHAR A9A8
ENCODING 43432
SWIDTH 960 0
DWIDTH 24 0
BBX 24 24 0 -6
BITMAP
000000
000000
000000
000000
000000
000000
000000
000000
3C3C3C
3C3C3C
000000
000000
000000
000000
000000
000000
000000
000000
000000
000000
000000
000000
000000
000000
ENDCHAR

STARTCHAR A9A9
ENCODING 43433
SWIDTH 960 0
DWIDTH 24 0
BBX 24 24 0 -6
BITMAP
000000
000000
000000
000000
000000
000000
3C3C3C
3C3C3C
3C3C3C
3C3C3C
3C3C3C
3C3C3C
000000
000000
000000
000000
000000
000000
000000
000000
000000
000000
000000
000000
ENDCHAR

STARTCHAR A9AA
ENCODING 43434
SWIDTH 960 0
DWIDTH 24 0
BBX 24 24 0 -6
BITMAP
000000
000000
000300
000300
000300
000300
000000
000000
000000
000000
000300
000300
000300
000300
000000
000000
000000
000000
000300
000300
000300
000300
000000
000000
ENDCHAR

STARTCHAR A9AB
ENCODING 43435
SWIDTH 960 0
DWIDTH 24 0
BBX 24 24 0 -6
BITMAP
000000
000000
000FC0
000FC0
000FC0
000FC0
000000
000000
000000
000000
000FC0
000FC0
000FC0
000FC0
000000
000000
000000
000000
000FC0
000FC0
000FC0
000FC0
000000
000000
ENDCHAR

STARTCHAR A9AC
ENCODING 43436
SWIDTH 960 0
DWIDTH 24 0
BBX 24 24 0 -6
BITMAP
000000
000000
000000
000000
000000
000000
000000
000000
79E79E
79E79E
000000
000000
000000
000000
000000
000000
000000
000000
000000
000000
000000
000000
000000
000000
ENDCHAR

STARTCHAR A9AD
ENCODING 43437
SWIDTH 960 0
DWIDTH 24 0
BBX 24 24 0 -6
BITMAP
000000
000000
000000
000000
000000
000000
79E79E
79E79E
79E79E
79E79E
79E79E
79E79E
000000
000000
000000
000000
000000
000000
000000
000000
000000
000000
000000
000000
ENDCHAR

STARTCHAR A9AE
ENCODING 43438
SWIDTH 960 0
DWIDTH 24 0
BBX 24 24 0 -6
BITMAP
000000
000300
000300
000300
000300
000000
000000
000300
000300
000300
000300
000000
000000
000300
000300
000300
000300
000000
000000
000300
000300
000300
000300
000000
ENDCHAR

STARTCHAR A9AF
ENCODING 43439
SWIDTH 960 0
DWIDTH 24 0
BBX 24 24 0 -6
BITMAP
000000
000FC0
000FC0
000FC0
000FC0
000000
000000
000FC0
000FC0
000FC0
000FC0
000000
000000
000FC0
000FC0
000FC0
000FC0
000000
000000
000FC0
000FC0
000FC0
000FC0
000000
ENDCHAR

STARTCHAR A9B0
ENCODING 43440
SWIDTH 960 0
DWIDTH 24 0
BBX 24 24 0 -6
BITMAP
000000
000000
000000
000000
000000
000000
000000
000000
0003FF
0003FF
000300
000300
000300
000300
000300
000300
000300
000300
000300
000300
000300
000300
000300
000300
ENDCHAR

STARTCHAR A9B1
ENCODING 43441
SWIDTH 960 0
DWIDTH 24 0
BBX 24 24 0 -6
BITMAP
000000
000000
000000
000000
000000
000000
0003FF
0003FF
0003FF
0003FF
0003FF
0003FF
000300
000300
000300
000300
000300
000300
000300
000300
000300
000300
000300
000300
ENDCHAR

STARTCHAR A9B2
ENCODING 43442
SWIDTH 960 0
DWIDTH 24 0
BBX 24 24 0 -6
BITMAP
000000
000000
000000
000000
000000
000000
000000
000000
000FFF
000FFF
000FC0
000FC0
000FC0
000FC0
000FC0
000FC0
000FC0
000FC0
000FC0
000FC0
000FC0
000FC0
000FC0
000FC0
ENDCHAR

STARTCHAR A9B3
ENCODING 43443
SWIDTH 960 0
DWIDTH 24 0
BBX 24 24 0 -6
BITMAP
000000
000000
000000
000000
000000
000000
000FFF
000FFF
000FFF
000FFF
000FFF
000FFF
000FC0
000FC0
000FC0
000FC0
000FC0
000FC0
000FC0
000FC0
000FC0
000FC0
000FC0
000FC0
ENDCHAR

STARTCHAR A9B4
ENCODING 43444
SWIDTH 960 0
DWIDTH 24 0
BBX 24 24 0 -6
BITMAP
000000
000000
000000
000000
000000
000000
000000
000000
FFFF00
FFFF00
000300
000300
000300
000300
000300
000300
000300
000300
000300
000300
000300
000300
000300
000300
ENDCHAR

STARTCHAR A9B5
ENCODING 43445
SWIDTH 960 0
DWIDTH 24 0
BBX 24 24 0 -6
BITMAP
000000
000000
000000
000000
000000
000000
FFFF00
FFFF00
FFFF00
FFFF00
FFFF00
FFFF00
000300
000300
000300
000300
000300
000300
000300
000300
000300
000300
000300
000300
ENDCHAR

STARTCHAR A9B6
ENCODING 43446
SWIDTH 960 0
DWIDTH 24 0
BBX 24 24 0 -6
BITMAP
000000
000000
000000
000000
000000
000000
000000
000000
FFFFC0
FFFFC0
000FC0
000FC0
000FC0
000FC0
000FC0
000FC0
000FC0
000FC0
000FC0
000FC0
000FC0
000FC0
000FC0
000FC0
ENDCHAR

STARTCHAR A9B7
ENCODING 43447
SWIDTH 960 0
DWIDTH 24 0
BBX 24 24 0 -6
BITMAP
000000
000000
000000
000000
000000
000000
FFFFC0
FFFFC0
FFFFC0
FFFFC0
FFFFC0
FFFFC0
000FC0
000FC0
000FC0
000FC0
000FC0
000FC0
000FC0
000FC0
000FC0
000FC0
000FC0
000FC0
ENDCHAR

STARTCHAR A9B8
ENCODING 43448
SWIDTH 960 0
DWIDTH 24 0
BBX 24 24 0 -6
BITMAP
000300
000300
000300
000300
000300
000300
000300
000300
0003FF
0003FF
000000
000000
000000
000000
000000
000000
000000
000000
000000
000000
000000
000000
000000
000000
ENDCHAR

STARTCHAR A9B9
ENCODING 43449
SWIDTH 960 0
DWIDTH 24 0
BBX 24 24 0 -6
BITMAP
000300
000300
000300
000300
000300
000300
0003FF
0003FF
0003FF
0003FF
0003FF
0003FF
000000
000000
000000
000000
000000
000000
000000
000000
000000
000000
000000
000000
ENDCHAR

STARTCHAR A9BA
ENCODING 43450
SWIDTH 960 0
DWIDTH 24 0
BBX 24 24 0 -6
BITMAP
000FC0
000FC0
000FC0
000FC0
000FC0
000FC0
000FC0
000FC0
000FFF
000FFF
000000
000000
000000
000000
000000
000000
000000
000000
000000
000000
000000
000000
000000
000000
ENDCHAR

STARTCHAR A9BB
ENCODING 43451
SWIDTH 960 0
DWIDTH 24 0
BBX 24 24 0 -6
BITMAP
000FC0
000FC0
000FC0
000FC0
000FC0
000FC0
000FFF
000FFF
000FFF
000FFF
000FFF
000FFF
000000
000000
000000
000000
000000
000000
000000
000000
000000
000000
000000
000000
ENDCHAR

STARTCHAR A9BC
ENCODING 43452
SWIDTH 960 0
DWIDTH 24 0
BBX 24 24 0 -6
BITMAP
000300
000300
000300
000300
000300
000300
000300
000300
FFFF00
FFFF00
000000
000000
000000
000000
000000
000000
000000
000000
000000
000000
000000
000000
000000
000000
ENDCHAR

STARTCHAR A9BD
ENCODING 43453
SWIDTH 960 0
DWIDTH 24 0
BBX 24 24 0 -6
BITMAP
000300
000300
000300
000300
000300
000300
FFFF00
FFFF00
FFFF00
FFFF00
FFFF00
FFFF00
000000
000000
000000
000000
000000
000000
000000
000000
000000
000000
000000
000000
ENDCHAR

STARTCHAR A9BE
ENCODING 43454
SWIDTH 960 0
DWIDTH 24 0
BBX 24 24 0 -6
BITMAP
000FC0
000FC0
000FC0
000FC0
000FC0
000FC0
000FC0
000FC0
FFFFC0
FFFFC0
000000
000000
000000
000000
000000
000000
000000
000000
000000
000000
000000
000000
000000
000000
ENDCHAR

STARTCHAR A9BF
ENCODING 43455
SWIDTH 960 0
DWIDTH 24 0
BBX 24 24 0 -6
BITMAP
000FC0
000FC0
000FC0
000FC0
000FC0
000FC0
FFFFC0
FFFFC0
FFFFC0
FFFFC0
FFFFC0
FFFFC0
000000
000000
000000
000000
000000
000000
000000
000000
000000
000000
000000
000000
ENDCHAR

STARTCHAR A9C0
ENCODING 43456
SWIDTH 960 0
DWIDTH 24 0
BBX 24 24 0 -6
BITMAP
000300
000300
000300
000300
000300
000300
000300
000300
0003FF
0003FF
000300
000300
000300
000300
000300
000300
000300
000300
000300
000300
000300
000300
000300
000300
ENDCHAR

STARTCHAR A9C1
ENCODING 43457
SWIDTH 960 0
DWIDTH 24 0
BBX 24 24 0 -6
BITMAP
000300
000300
000300
000300
000300
000300
0003FF
0003FF
0003FF
0003FF
0003FF
0003FF
000300
000300
000300
000300
000300
000300
000300
000300
000300
000300
000300
000300
ENDCHAR

STARTCHAR A9C2
ENCODING 43458
SWIDTH 960 0
DWIDTH 24 0
BBX 24 24 0 -6
BITMAP
000FC0
000FC0
000FC0
000FC0
000FC0
000FC0
000FC0
000FC0
000FFF
000FFF
000300
000300
000300
000300
000300
000300
000300
000300
000300
000300
000300
000300
000300
000300
ENDCHAR

STARTCHAR A9C3
ENCODING 43459
SWIDTH 960 0
DWIDTH 24 0
BBX 24 24 0 -6
BITMAP
000300
000300
000300
000300
000300
000300
000300
000300
000FFF
000FFF
000FC0
000FC0
000FC0
000FC0
000FC0
000FC0
000FC0
000FC0
000FC0
000FC0
000FC0
000FC0
000FC0
000FC0
ENDCHAR

STARTCHAR A9C4
ENCODING 43460
SWIDTH 960 0
DWIDTH 24 0
BBX 24 24 0 -6
BITMAP
000FC0
000FC0
000FC0
000FC0
000FC0
000FC0
000FC0
000FC0
000FFF
000FFF
000FC0
000FC0
000FC0
000FC0
000FC0
000FC0
000FC0
000FC0
000FC0
000FC0
000FC0
000FC0
000FC0
000FC0
ENDCHAR

STARTCHAR A9C5
ENCODING 43461
SWIDTH 960 0
DWIDTH 24 0
BBX 24 24 0 -6
BITMAP
000FC0
000FC0
000FC0
000FC0
000FC0
000FC0
000FFF
000FFF
000FFF
000FFF
000FFF
000FFF
000300
000300
000300
000300
000300
000300
000300
000300
000300
000300
000300
000300
ENDCHAR

STARTCHAR A9C6
ENCODING 43462
SWIDTH 960 0
DWIDTH 24 0
BBX 24 24 0 -6
BITMAP
000300
000300
000300
000300
000300
000300
000FFF
000FFF
000FFF
000FFF
000FFF
000FFF
000FC0
000FC0
000FC0
000FC0
000FC0
000FC0
000FC0
000FC0
000FC0
000FC0
000FC0
000FC0
ENDCHAR

STARTCHAR A9C7
ENCODING 43463
SWIDTH 960 0
DWIDTH 24 0
BBX 24 24 0 -6
BITMAP
000FC0
000FC0
000FC0
000FC0
000FC0
000FC0
000FFF
000FFF
000FFF
000FFF
000FFF
000FFF
000FC0
000FC0
000FC0
000FC0
000FC0
000FC0
000FC0
000FC0
000FC0
000FC0
000FC0
000FC0
ENDCHAR

STARTCHAR A9C8
ENCODING 43464
SWIDTH 960 0
DWIDTH 24 0
BBX 24 24 0 -6
BITMAP
000300
000300
000300
000300
000300
000300
000300
000300
FFFF00
FFFF00
000300
000300
000300
000300
000300
000300
000300
000300
000300
000300
000300
000300
000300
000300
ENDCHAR

STARTCHAR A9C9
ENCODING 43465
SWIDTH 960 0
DWIDTH 24 0
BBX 24 24 0 -6
BITMAP
000300
000300
000300
000300
000300
000300
FFFF00
FFFF00
FFFF00
FFFF00
FFFF00
FFFF00
000300
000300
000300
000300
000300
000300
000300
000300
000300
000300
000300
000300
ENDCHAR

STARTCHAR A9CA
ENCODING 43466
SWIDTH 960 0
DWIDTH 24 0
BBX 24 24 0 -6
BITMAP
000FC0
000FC0
000FC0
000FC0
000FC0
000FC0
000FC0
000FC0
FFFFC0
FFFFC0
000300
000300
000300
000300
000300
000300
000300
000300
000300
000300
000300
000300
000300
000300
ENDCHAR

STARTCHAR A9CB
ENCODING 43467
SWIDTH 960 0
DWIDTH 24 0
BBX 24 24 0 -6
BITMAP
000300
000300
000300
000300
000300
000300
000300
000300
FFFFC0
FFFFC0
000FC0
000FC0
000FC0
000FC0
000FC0
000FC0
000FC0
000FC0
000FC0
000FC0
000FC0
000FC0
000FC0
000FC0
ENDCHAR

STARTCHAR A9CC
ENCODING 43468
SWIDTH 960 0
DWIDTH 24 0
BBX 24 24 0 -6
BITMAP
000FC0
000FC0
000FC0
000FC0
000FC0
000FC0
000FC0
000FC0
FFFFC0
FFFFC0
000FC0
000FC0
000FC0
000FC0
000FC0
000FC0
000FC0
000FC0
000FC0
000FC0
000FC0
000FC0
000FC0
000FC0
ENDCHAR

STARTCHAR A9CD
ENCODING 43469
SWIDTH 960 0
DWIDTH 24 0
BBX 24 24 0 -6
BITMAP
000FC0
000FC0
000FC0
000FC0
000FC0
000FC0
FFFFC0
FFFFC0
FFFFC0
FFFFC0
FFFFC0
FFFFC0
000300
000300
000300
000300
000300
000300
000300
000300
000300
000300
000300
000300
ENDCHAR

STARTCHAR A9CE
ENCODING 43470
SWIDTH 960 0
DWIDTH 24 0
BBX 24 24 0 -6
BITMAP
000300
000300
000300
000300
000300
000300
FFFFC0
FFFFC0
FFFFC0
FFFFC0
FFFFC0
FFFFC0
000FC0
000FC0
000FC0
000FC0
000FC0
000FC0
000FC0
000FC0
000FC0
000FC0
000FC0
000FC0
ENDCHAR

STARTCHAR A9CF
ENCODING 43471
SWIDTH 960 0
DWIDTH 24 0
BBX 24 24 0 -6
BITMAP
000FC0
000FC0
000FC0
000FC0
000FC0
000FC0
FFFFC0
FFFFC0
FFFFC0
FFFFC0
FFFFC0
FFFFC0
000FC0
000FC0
000FC0
000FC0
000FC0
000FC0
000FC0
000FC0
000FC0
000FC0
000FC0
000FC0
ENDCHAR

STARTCHAR A9D0
ENCODING 43472
SWIDTH 960 0
DWIDTH 24 0
BBX 24 24 0 -6
BITMAP
000000
000000
000000
000000
000000
000000
000000
000000
FFFFFF
FFFFFF
000300
000300
000300
000300
000300
000300
000300
000300
000300
000300
000300
000300
000300
000300
ENDCHAR

STARTCHAR A9D1
ENCODING 43473
SWIDTH 960 0
DWIDTH 24 0
BBX 24 24 0 -6
BITMAP
000000
000000
000000
000000
000000
000000
FFFF00
FFFF00
FFFFFF
FFFFFF
FFFF00
FFFF00
000300
000300
000300
000300
000300
000300
000300
000300
000300
000300
000300
000300
ENDCHAR

STARTCHAR A9D2
ENCODING 43474
SWIDTH 960 0
DWIDTH 24 0
BBX 24 24 0 -6
BITMAP
000000
000000
000000
000000
000000
000000
0003FF
0003FF
FFFFFF
FFFFFF
0003FF
0003FF
000300
000300
000300
000300
000300
000300
000300
000300
000300
000300
000300
000300
ENDCHAR

STARTCHAR A9D3
ENCODING 43475
SWIDTH 960 0
DWIDTH 24 0
BBX 24 24 0 -6
BITMAP
000000
000000
000000
000000
000000
000000
FFFFFF
FFFFFF
FFFFFF
FFFFFF
FFFFFF
FFFFFF
000300
000300
000300
000300
000300
000300
000300
000300
000300
000300
000300
000300
ENDCHAR

STARTCHAR A9D4
ENCODING 43476
SWIDTH 960 0
DWIDTH 24 0
BBX 24 24 0 -6
BITMAP
000000
000000
000000
000000
000000
000000
000000
000000
FFFFFF
FFFFFF
000FC0
000FC0
000FC0
000FC0
000FC0
000FC0
000FC0
000FC0
000FC0
000FC0
000FC0
000FC0
000FC0
000FC0
ENDCHAR

STARTCHAR A9D5
ENCODING 43477
SWIDTH 960 0
DWIDTH 24 0
BBX 24 24 0 -6
BITMAP
000000
000000
000000
000000
000000
000000
FFFFC0
FFFFC0
FFFFFF
FFFFFF
FFFFC0
FFFFC0
000FC0
000FC0
000FC0
000FC0
000FC0
000FC0
000FC0
000FC0
000FC0
000FC0
000FC0
000FC0
ENDCHAR

STARTCHAR A9D6
ENCODING 43478
SWIDTH 960 0
DWIDTH 24 0
BBX 24 24 0 -6
BITMAP
000000
000000
000000
000000
000000
000000
000FFF
000FFF
FFFFFF
FFFFFF
000FFF
000FFF
000FC0
000FC0
000FC0
000FC0
000FC0
000FC0
000FC0
000FC0
000FC0
000FC0
000FC0
000FC0
ENDCHAR

STARTCHAR A9D7
ENCODING 43479
SWIDTH 960 0
DWIDTH 24 0
BBX 24 24 0 -6
BITMAP
000000
000000
000000
000000
000000
000000
FFFFFF
FFFFFF
FFFFFF
FFFFFF
FFFFFF
FFFFFF
000FC0
000FC0
000FC0
000FC0
000FC0
000FC0
000FC0
000FC0
000FC0
000FC0
000FC0
000FC0
ENDCHAR

STARTCHAR A9D8
ENCODING 43480
SWIDTH 960 0
DWIDTH 24 0
BBX 24 24 0 -6
BITMAP
000300
000300
000300
000300
000300
000300
000300
000300
FFFFFF
FFFFFF
000000
000000
000000
000000
000000
000000
000000
000000
000000
000000
000000
000000
000000
000000
ENDCHAR

STARTCHAR A9D9
ENCODING 43481
SWIDTH 960 0
DWIDTH 24 0
BBX 24 24 0 -6
BITMAP
000300
000300
000300
000300
000300
000300
FFFF00
FFFF00
FFFFFF
FFFFFF
FFFF00
FFFF00
000000
000000
000000
000000
000000
000000
000000
000000
000000
000000
000000
000000
ENDCHAR

STARTCHAR A9DA
ENCODING 43482
SWIDTH 960 0
DWIDTH 24 0
BBX 24 24 0 -6
BITMAP
000300
000300
000300
000300
000300
000300
0003FF
0003FF
FFFFFF
FFFFFF
0003FF
0003FF
000000
000000
000000
000000
000000
000000
000000
000000
000000
000000
000000
000000
ENDCHAR

STARTCHAR A9DB
ENCODING 43483
SWIDTH 960 0
DWIDTH 24 0
BBX 24 24 0 -6
BITMAP
000300
000300
000300
000300
000300
000300
FFFFFF
FFFFFF
FFFFFF
FFFFFF
FFFFFF
FFFFFF
000000
000000
000000
000000
000000
000000
000000
000000
000000
000000
000000
000000
ENDCHAR

STARTCHAR A9DC
ENCODING 43484
SWIDTH 960 0
DWIDTH 24 0
BBX 24 24 0 -6
BITMAP
000FC0
000FC0
000FC0
000FC0
000FC0
000FC0
000FC0
000FC0
FFFFFF
FFFFFF
000000
000000
000000
000000
000000
000000
000000
000000
000000
000000
000000
000000
000000
000000
ENDCHAR

STARTCHAR A9DD
ENCODING 43485
SWIDTH 960 0
DWIDTH 24 0
BBX 24 24 0 -6
BITMAP
000FC0
000FC0
000FC0
000FC0
000FC0
000FC0
FFFFC0
FFFFC0
FFFFFF
FFFFFF
FFFFC0
FFFFC0
000000
000000
000000
000000
000000
000000
000000
000000
000000
000000
000000
000000
ENDCHAR

STARTCHAR A9DE
ENCODING 43486
SWIDTH 960 0
DWIDTH 24 0
BBX 24 24 0 -6
BITMAP
000FC0
000FC0
000FC0
000FC0
000FC0
000FC0
000FFF
000FFF
FFFFFF
FFFFFF
000FFF
000FFF
000000
000000
000000
000000
000000
000000
000000
000000
000000
000000
000000
000000
ENDCHAR

STARTCHAR A9DF
ENCODING 43487
SWIDTH 960 0
DWIDTH 24 0
BBX 24 24 0 -6
BITMAP
000FC0
000FC0
000FC0
000FC0
000FC0
000FC0
FFFFFF
FFFFFF
FFFFFF
FFFFFF
FFFFFF
FFFFFF
000000
000000
000000
000000
000000
000000
000000
000000
000000
000000
000000
000000
ENDCHAR

STARTCHAR A9E0
ENCODING 43488
SWIDTH 960 0
DWIDTH 24 0
BBX 24 24 0 -6
BITMAP
000300
000300
000300
000300
000300
000300
000300
000300
FFFFFF
FFFFFF
000300
000300
000300
000300
000300
000300
000300
000300
000300
000300
000300
000300
000300
000300
ENDCHAR

STARTCHAR A9E1
ENCODING 43489
SWIDTH 960 0
DWIDTH 24 0
BBX 24 24 0 -6
BITMAP
000300
000300
000300
000300
000300
000300
FFFF00
FFFF00
FFFFFF
FFFFFF
FFFF00
FFFF00
000300
000300
000300
000300
000300
000300
000300
000300
000300
000300
000300
000300
ENDCHAR

STARTCHAR A9E2
ENCODING 43490
SWIDTH 960 0
DWIDTH 24 0
BBX 24 24 0 -6
BITMAP
000300
000300
000300
000300
000300
000300
0003FF
0003FF
FFFFFF
FFFFFF
0003FF
0003FF
000300
000300
000300
000300
000300
000300
000300
000300
000300
000300
000300
000300
ENDCHAR

STARTCHAR A9E3
ENCODING 43491
SWIDTH 960 0
DWIDTH 24 0
BBX 24 24 0 -6
BITMAP
000300
000300
000300
000300
000300
000300
FFFFFF
FFFFFF
FFFFFF
FFFFFF
FFFFFF
FFFFFF
000300
000300
000300
000300
000300
000300
000300
000300
000300
000300
000300
000300
ENDCHAR

STARTCHAR A9E4
ENCODING 43492
SWIDTH 960 0
DWIDTH 24 0
BBX 24 24 0 -6
BITMAP
000FC0
000FC0
000FC0
000FC0
000FC0
000FC0
000FC0
000FC0
FFFFFF
FFFFFF
000300
000300
000300
000300
000300
000300
000300
000300
000300
000300
000300
000300
000300
000300
ENDCHAR

STARTCHAR A9E5
ENCODING 43493
SWIDTH 960 0
DWIDTH 24 0
BBX 24 24 0 -6
BITMAP
000300
000300
000300
000300
000300
000300
000300
000300
FFFFFF
FFFFFF
000FC0
000FC0
000FC0
000FC0
000FC0
000FC0
000FC0
000FC0
000FC0
000FC0
000FC0
000FC0
000FC0
000FC0
ENDCHAR

STARTCHAR A9E6
ENCODING 43494
SWIDTH 960 0
DWIDTH 24 0
BBX 24 24 0 -6
BITMAP
000FC0
000FC0
000FC0
000FC0
000FC0
000FC0
000FC0
000FC0
FFFFFF
FFFFFF
000FC0
000FC0
000FC0
000FC0
000FC0
000FC0
000FC0
000FC0
000FC0
000FC0
000FC0
000FC0
000FC0
000FC0
ENDCHAR

STARTCHAR A9E7
ENCODING 43495
SWIDTH 960 0
DWIDTH 24 0
BBX 24 24 0 -6
BITMAP
000FC0
000FC0
000FC0
000FC0
000FC0
000FC0
FFFFC0
FFFFC0
FFFFFF
FFFFFF
FFFF00
FFFF00
000300
000300
000300
000300
000300
000300
000300
000300
000300
000300
000300
000300
ENDCHAR

STARTCHAR A9E8
ENCODING 43496
SWIDTH 960 0
DWIDTH 24 0
BBX 24 24 0 -6
BITMAP
000FC0
000FC0
000FC0
000FC0
000FC0
000FC0
000FFF
000FFF
FFFFFF
FFFFFF
0003FF
0003FF
000300
000300
000300
000300
000300
000300
000300
000300
000300
000300
000300
000300
ENDCHAR

STARTCHAR A9E9
ENCODING 43497
SWIDTH 960 0
DWIDTH 24 0
BBX 24 24 0 -6
BITMAP
000300
000300
000300
000300
000300
000300
FFFF00
FFFF00
FFFFFF
FFFFFF
FFFFC0
FFFFC0
000FC0
000FC0
000FC0
000FC0
000FC0
000FC0
000FC0
000FC0
000FC0
000FC0
000FC0
000FC0
ENDCHAR

STARTCHAR A9EA
ENCODING 43498
SWIDTH 960 0
DWIDTH 24 0
BBX 24 24 0 -6
BITMAP
000300
000300
000300
000300
000300
000300
0003FF
0003FF
FFFFFF
FFFFFF
000FFF
000FFF
000FC0
000FC0
000FC0
000FC0
000FC0
000FC0
000FC0
000FC0
000FC0
000FC0
000FC0
000FC0
ENDCHAR

STARTCHAR A9EB
ENCODING 43499
SWIDTH 960 0
DWIDTH 24 0
BBX 24 24 0 -6
BITMAP
000FC0
000FC0
000FC0
000FC0
000FC0
000FC0
FFFFFF
FFFFFF
FFFFFF
FFFFFF
FFFFFF
FFFFFF
000300
000300
000300
000300
000300
000300
000300
000300
000300
000300
000300
000300
ENDCHAR

STARTCHAR A9EC
ENCODING 43500
SWIDTH 960 0
DWIDTH 24 0
BBX 24 24 0 -6
BITMAP
000300
000300
000300
000300
000300
000300
FFFFFF
FFFFFF
FFFFFF
FFFFFF
FFFFFF
FFFFFF
000FC0
000FC0
000FC0
000FC0
000FC0
000FC0
000FC0
000FC0
000FC0
000FC0
000FC0
000FC0
ENDCHAR

STARTCHAR A9ED
ENCODING 43501
SWIDTH 960 0
DWIDTH 24 0
BBX 24 24 0 -6
BITMAP
000FC0
000FC0
000FC0
000FC0
000FC0
000FC0
FFFFC0
FFFFC0
FFFFFF
FFFFFF
FFFFC0
FFFFC0
000FC0
000FC0
000FC0
000FC0
000FC0
000FC0
000FC0
000FC0
000FC0
000FC0
000FC0
000FC0
ENDCHAR

STARTCHAR A9EE
ENCODING 43502
SWIDTH 960 0
DWIDTH 24 0
BBX 24 24 0 -6
BITMAP
000FC0
000FC0
000FC0
000FC0
000FC0
000FC0
000FFF
000FFF
FFFFFF
FFFFFF
000FFF
000FFF
000FC0
000FC0
000FC0
000FC0
000FC0
000FC0
000FC0
000FC0
000FC0
000FC0
000FC0
000FC0
ENDCHAR

STARTCHAR A9EF
ENCODING 43503
SWIDTH 960 0
DWIDTH 24 0
BBX 24 24 0 -6
BITMAP
000FC0
000FC0
000FC0
000FC0
000FC0
000FC0
FFFFFF
FFFFFF
FFFFFF
FFFFFF
FFFFFF
FFFFFF
000FC0
000FC0
000FC0
000FC0
000FC0
000FC0
000FC0
000FC0
000FC0
000FC0
000FC0
000FC0
ENDCHAR

STARTCHAR B0A1
ENCODING 45217
SWIDTH 960 0
DWIDTH 24 0
BBX 24 24 0 -6
BITMAP
000000
000000
008404
00FE1E
42CDEC
7FC88C
32D80C
32D22C
36DBFC
34CD2C
34CD2C
3EED6C
30D94C
70C94C
30C1EC
10C30C
00C10C
00C00C
00C00C
00C04C
01C03C
00C01C
004008
000000
ENDCHAR

STARTCHAR B0A2
ENCODING 45218
SWIDTH 960 0
DWIDTH 24 0
BBX 24 24 0 -6
BITMAP
000000
208004
33C0FE
1DBFB0
199830
190030
1B0030
1A0130
1B27B0
19BD30
199930
1D9930
1B1930
1A1FB0
183C30
181830
180830
180030
180230
1801B0
3800F0
180070
080020
000000
ENDCHAR

STARTCHAR B0A3
ENCODING 45219
SWIDTH 960 0
DWIDTH 24 0
BBX 24 24 0 -6
BITMAP
000000
0C0200
060380
070700
060660
060C30
0609F8
06BF1C
07D008
3E0800
160C20
061BF0
061F00
063300
07A30C
0E47FE
18FE80
7046C0
200C40
001860
003070
006038
01803E
000000
ENDCHAR

STARTCHAR B0A4
ENCODING 45220
SWIDTH 960 0
DWIDTH 24 0
BBX 24 24 0 -6
BITMAP
000000
0C0400
060700
070640
060C30
060C18
0619FC
07BF8C
7E1408
260620
06CCF0
078F80
1E1B00
76230C
2603FE
06FF80
064680
0606C0
060C60
260C60
1E1830
0E303C
044000
000000
ENDCHAR

STARTCHAR B0A5
ENCODING 45221
SWIDTH 960 0
DWIDTH 24 0
BBX 24 24 0 -6
BITMAP
000000
003180
0018C0
001CC8
0018FC
437FC0
7F9980
331980
333940
331960
360870
366060
3F30C0
7810C0
301980
100D80
000700
000600
000F00
001980
0070E0
01C078
07003E
000000
ENDCHAR

STARTCHAR B0A6
ENCODING 45222
SWIDTH 960 0
DWIDTH 24 0
BBX 24 24 0 -6
BITMAP
000000
000200
000700
000600
000C60
421830
7F33F8
327E18
322008
323840
3633E0
377E00
7C6600
30C600
110608
000FFC
03FD00
010D80
001980
0018C0
0030E0
006070
01807C
000000
ENDCHAR

STARTCHAR B0A7
ENCODING 45223
SWIDTH 960 0
DWIDTH 24 0
BBX 24 24 0 -6
BITMAP
000000
006000
001830
001FF8
3FF000
1000C0
040FE0
07F8C0
0300C0
030180
030FC0
07F800
033010
017838
00EC70
01C6C0
03C380
06C180
18C8C0
60F070
00E03C
01C01E
008000
000000
ENDCHAR

STARTCHAR B0A8
ENCODING 45224
SWIDTH 960 0
DWIDTH 24 0
BBX 24 24 0 -6
BITMAP
000000
000300
020190
0331D8
03999C
071D98
065998
27D9F8
3CFF00
18D030
18C1F8
18DF30
1BC830
1EC060
18C060
18D1F0
18DF00
1BCC04
3ECC04
188C06
080C06
000FFE
0007FC
000000
ENDCHAR

STARTCHAR B0A9
ENCODING 45225
SWIDTH 960 0
DWIDTH 24 0
BBX 24 24 0 -6
BITMAP
000000
000C00
000618
0407FC
07FE00
030020
6323F0
3B3E60
1B18C0
0B1BE0
031E08
0304BC
0F4ED8
7B7490
332490
033DF8
067080
062610
0CC318
0C631C
1863F8
10FF18
206010
000000
ENDCHAR

STARTCHAR B0AA
ENCODING 45226
SWIDTH 960 0
DWIDTH 24 0
BBX 24 24 0 -6
BITMAP
000000
018200
00C308
00C7FC
3FFE00
10C420
20A3F0
183E60
0C1860
081F40
0218C0
071BE0
7E3E08
2611FC
063F18
066618
06A718
062D98
06B8B0
072730
0E7CB0
042070
000020
000000
ENDCHAR

STARTCHAR B0AB
ENCODING 45227
SWIDTH 960 0
DWIDTH 24 0
BBX 24 24 0 -6
BITMAP
000000
0800C0
0C03E0
0E0F00
0C3B08
1803FC
18BF80
3FCFC0
360F40
261B60
463338
07A53E
7E4600
268604
0C0E3E
0E7FE0
1F0CC0
1B98C0
319D80
210780
4006E0
001838
00E008
000000
ENDCHAR

STARTCHAR B0AC
ENCODING 45228
SWIDTH 960 0
DWIDTH 24 0
BBX 24 24 0 -6
BITMAP
000000
018600
00C300
00E318
00C7FC
3FFE00
18C600
00C600
01CD00
00CD80
004180
070300
018300
00C600
006600
003C00
001800
003C00
006600
00C300
0181C0
0600F0
38007C
000000
ENDCHAR

STARTCHAR B0AD
ENCODING 45229
SWIDTH 960 0
DWIDTH 24 0
BBX 24 24 0 -6
BITMAP
000000
000030
0091F8
03DF30
7E0C30
260FA0
060C60
0C0C60
0C0DF0
181F00
198808
3FC0FC
399FC0
5980C4
1900FE
1B3FC0
1B00C0
1F98C0
380CC0
1808C0
0803C0
0001C0
000080
000000
ENDCHAR

STARTCHAR B0AE
ENCODING 45230
SWIDTH 960 0
DWIDTH 24 0
BBX 24 24 0 -6
BITMAP
000000
0001C0
003FE0
0FC080
0020E0
0210C0
019980
00C90C
108FFE
1FF80C
306058
3067E0
77FC00
20C080
00CFC0
01F980
018300
033300
061E00
0C0C00
101E00
00F380
0781F8
000000
ENDCHAR

STARTCHAR B0AF
ENCODING 45231
SWIDTH 960 0
DWIDTH 24 0
BBX 24 24 0 -6
BITMAP
000000
000040
4130E0
7F98C0
330D80
330908
3203FC
36FE00
341880
361C60
323038
33201C
334034
3B83F8
367F30
346530
306530
306560
306560
30656C
7065FE
33FF00
110000
000000
ENDCHAR

STARTCHAR B0B0
ENCODING 45232
SWIDTH 960 0
DWIDTH 24 0
BBX 24 24 0 -6
BITMAP
000000
188180
0CC0C0
0CC884
7FE87E
2CDFCC
0D9818
0DB110
0F1180
03E1C0
3F6184
1B433E
1B5FF0
1BCB30
3F0630
134660
03EC60
7F1EC0
2303C0
030378
07061C
03380C
010000
000000
ENDCHAR

STARTCHAR B0B1
ENCODING 45233
SWIDTH 960 0
DWIDTH 24 0
BBX 24 24 0 -6
BITMAP
000000
020000
030020
0387F0
03FC00
030080
061FC0
07F000
0C0FE0
0BF8C0
1030C0
0012C0
047FC0
07C6C0
0C64C0
04C2C0
01FFC0
3F98C4
131864
07B064
00FC36
01CF1E
0F030C
000000
ENDCHAR

STARTCHAR B0B2
ENCODING 45234
SWIDTH 960 0
DWIDTH 24 0
BBX 24 24 0 -6
BITMAP
000000
003000
001800
081018
080FFC
1FF818
184030
386020
107000
006000
006008
00CFFC
3FFB00
10C300
018300
018600
030600
07CC00
00F800
003F00
0063C0
0380E0
1C0020
000000
ENDCHAR

STARTCHAR B0B3
ENCODING 45235
SWIDTH 960 0
DWIDTH 24 0
BBX 24 24 0 -6
BITMAP
000000
020800
030C00
078C20
071FF0
0EF900
0C3180
1C38C0
3C6C60
2CCC70
4D8FDC
0EFCCE
0CCCC0
0CCFC0
0CFD80
0D8D80
0D8FC0
0DFC10
0C8C10
0C0E18
1C0FFC
0C07F8
040000
000000
ENDCHAR

STARTCHAR B0B4
ENCODING 45236
SWIDTH 960 0
DWIDTH 24 0
BBX 24 24 0 -6
BITMAP
000000
0C0200
060300
071184
06117E
061FCC
07B018
7E7410
262600
060700
068604
0706FE
0EFF30
766C30
260C60
060860
0618C0
061CC0
060780
2603C0
1E0670
0E181C
04600C
000000
ENDCHAR

STARTCHAR B0B5
ENCODING 45237
SWIDTH 960 0
DWIDTH 24 0
BBX 24 24 0 -6
BITMAP
000000
000200
008110
21C3F8
3FBE40
199060
1990E0
1998C0
198D80
198918
1B83FC
1DFE00
198060
19A3F0
19BE60
199860
3F9A60
199F60
091860
0019E0
003E60
001860
000840
000000
ENDCHAR

STARTCHAR B0B6
ENCODING 45238
SWIDTH 960 0
DWIDTH 24 0
BBX 24 24 0 -6
BITMAP
000000
001820
030C30
018E38
01CC30
018FE0
03FC20
010000
000030
080FF8
0FF800
060040
0603E0
067E00
062610
0C07F8
0DFE00
0C8600
180600
180600
300E00
200600
400200
000000
ENDCHAR

STARTCHAR B0B7
ENCODING 45239
SWIDTH 960 0
DWIDTH 24 0
BBX 24 24 0 -6
BITMAP
000000
218300
3FC180
19910C
1991FE
19BF8C
19B018
19E210
1FA320
198380
198300
198604
1986FE
1FBFB0
198C30
198C60
319860
31BCC0
3187C0
3581F0
63833C
410E0C
003804
000000
ENDCHAR

STARTCHAR B0B8
ENCODING 45240
SWIDTH 960 0
DWIDTH 24 0
BBX 24 24 0 -6
BITMAP
000000
001800
020C08
0207FC
07FC18
0E2020
043804
0030FE
3FFF80
10C300
01E600
003F00
00F1F0
079C3C
7C184C
001FE4
1FFC00
08DB00
019980
0318E0
0E387C
381800
000800
000000
ENDCHAR

STARTCHAR B0B9
ENCODING 45241
SWIDTH 960 0
DWIDTH 24 0
BBX 24 24 0 -6
BITMAP
000000
218600
37C300
1D8180
19810C
1983FE
19FF00
19B000
1F8040
1991E0
199FC0
198CC0
1F8CC0
198CC0
198CC0
318CC0
318CC8
3198C8
3198CC
3190CC
65B0EE
63A07E
41403C
000000
ENDCHAR

STARTCHAR B0BA
ENCODING 45242
SWIDTH 960 0
DWIDTH 24 0
BBX 24 24 0 -6
BITMAP
000000
041FC0
07F0C0
0300C0
033EC0
03E180
030180
031FC0
07F000
020018
0098FC
23CF98
3E0C18
180C18
180C30
180C30
188F30
1B0DE0
1E0CE0
380C40
101C00
000C00
000400
000000
ENDCHAR

STARTCHAR B0BB
ENCODING 45243
SWIDTH 960 0
DWIDTH 24 0
BBX 24 24 0 -6
BITMAP
000000
001000
001C00
001840
041FE0
07F8C0
0330C0
033080
033184
037FFE
7FE700
20C1C0
038060
0E0FF8
1BFCDE
636CC0
036CC0
036CC0
036D80
036D80
036D88
036FFC
3FFC00
000000
ENDCHAR

STARTCHAR B0BC
ENCODING 45244
SWIDTH 960 0
DWIDTH 24 0
BBX 24 24 0 -6
BITMAP
000000
000000
000004
00223E
2073EC
3FE30C
18630C
18630C
18630C
186618
186618
186618
186F18
18F818
0C4018
0C0030
0C0030
0C0030
0C0030
0C0FF0
1FF860
0C0020
040000
000000
ENDCHAR

STARTCHAR B0BD
ENCODING 45245
SWIDTH 960 0
DWIDTH 24 0
BBX 24 24 0 -6
BITMAP
000000
060300
030180
0311C0
03F980
3F0180
130308
03F37C
1F03E0
032630
03F630
7F0460
264A60
07EB60
067140
0C61C0
0C6080
18C1C0
18C340
318360
258670
438C38
01303E
000000
ENDCHAR

STARTCHAR B0BE
ENCODING 45246
SWIDTH 960 0
DWIDTH 24 0
BBX 24 24 0 -6
BITMAP
000000
030200
01A300
01F380
3F8300
11A608
01F6FC
1F87A0
098C30
01FA30
7F0B60
231160
0621C0
07F1C0
0C6360
186638
32D81E
61C080
128040
111860
318C30
70C620
208400
000000
ENDCHAR

STARTCHAR B0BF
ENCODING 45247
SWIDTH 960 0
DWIDTH 24 0
BBX 24 24 0 -6
BITMAP
000000
020000
032000
12F30C
1FAF7E
0C232C
0DA30C
0F338C
0CEF4C
1F876C
0D033C
01A32C
03F70C
3F0F1C
065B6C
0D33CC
199B8C
31EB0C
5F830C
09934C
018F3C
01871C
008208
000000
ENDCHAR

STARTCHAR B0C0
ENCODING 45248
SWIDTH 960 0
DWIDTH 24 0
BBX 24 24 0 -6
BITMAP
000000
040010
030038
0180FC
0103C0
004F80
07E180
7CC180
218180
03418C
0763FE
07DFC0
0F8B40
1B4360
336360
432660
030630
030630
030C30
030C18
071818
03301E
016000
000000
ENDCHAR

STARTCHAR B0C1
ENCODING 45249
SWIDTH 960 0
DWIDTH 24 0
BBX 24 24 0 -6
BITMAP
000000
046080
0630C0
0738E0
0E30C0
0C3EC0
1BF0C4
18319E
383DF0
39F198
783118
583F18
1BE230
186530
187DB0
18CCA0
18CCE0
188CC0
1999E0
1919B0
3B5B38
1A361E
0C2800
000000
ENDCHAR

STARTCHAR B0C2
ENCODING 45250
SWIDTH 960 0
DWIDTH 24 0
BBX 24 24 0 -6
BITMAP
000000
008000
00C060
098FF0
0FF860
061260
069B60
065C60
065F60
07F860
067E60
06DB60
0E9960
071860
022824
0030FE
01FF80
7F6C00
206400
00C600
018300
0603C0
3801F8
000000
ENDCHAR

STARTCHAR B0C3
ENCODING 45251
SWIDTH 960 0
DWIDTH 24 0
BBX 24 24 0 -6
BITMAP
000000
181000
0C1810
0EB3F8
0CFE30
0C8930
0EEDB0
0DBD30
2D9FB0
2CFE30
6C9D30
6CADB0
4CCCB0
0D8410
0C8800
0C0E10
0C0DF8
0DFF00
0C9B00
0C1980
1C30C0
0C6070
05803C
000000
ENDCHAR

STARTCHAR B0C4
ENCODING 45252
SWIDTH 960 0
DWIDTH 24 0
BBX 24 24 0 -6
BITMAP
000000
000800
000C18
311BFC
1DFE18
0EC418
04E698
00D6D8
00CE98
60FFD8
3ACF18
1AD698
0AD6C8
06E280
064608
0407FC
0DFD00
0C8D80
580C80
3818C0
103060
006070
01C03C
000000
ENDCHAR

STARTCHAR B0C5
ENCODING 45253
SWIDTH 960 0
DWIDTH 24 0
BBX 24 24 0 -6
BITMAP
000000
000400
030600
018700
018630
01BFF8
7FEC00
318C00
008880
083FC0
0FF180
063180
063300
063300
063F80
07F000
060010
060010
060018
060018
07001C
03FFFC
01FFF8
000000
ENDCHAR

STARTCHAR B0C6
ENCODING 45254
SWIDTH 960 0
DWIDTH 24 0
BBX 24 24 0 -6
BITMAP
000000
0C0018
06430C
077F8E
06330C
06330C
0FB34C
7E366C
26377C
067C6C
07AC6C
0E0F6C
3EFB6C
765B6C
261B6C
06336C
06362C
06660C
06660C
26CC6C
1EAC3C
0F1C1C
040808
000000
ENDCHAR

STARTCHAR B0C7
ENCODING 45255
SWIDTH 960 0
DWIDTH 24 0
BBX 24 24 0 -6
BITMAP
000000
0C0700
060300
070300
060180
060180
069180
07D980
3E1CC0
1618C0
0658C0
0798C0
0730C0
1E3060
763060
263060
066060
066060
066030
26C030
1EC038
0E8038
05003E
000000
ENDCHAR

STARTCHAR B0C8
ENCODING 45256
SWIDTH 960 0
DWIDTH 24 0
BBX 24 24 0 -6
BITMAP
000000
000E00
000600
000600
002600
413300
63BB00
3F3300
333300
333180
323180
363180
3F60C0
3860C0
7060C0
30C060
10C060
018060
018030
030030
060018
04001E
080000
000000
ENDCHAR

STARTCHAR B0C9
ENCODING 45257
SWIDTH 960 0
DWIDTH 24 0
BBX 24 24 0 -6
BITMAP
000000
000010
000038
00C3F0
437E30
7F6630
336630
336660
336660
326660
366660
3667F0
3F7E00
706000
306000
106000
006008
006008
00600C
00600C
00700E
003FFE
001FFC
000000
ENDCHAR

STARTCHAR B0CA
ENCODING 45258
SWIDTH 960 0
DWIDTH 24 0
BBX 24 24 0 -6
BITMAP
000000
010200
018300
038308
0327FC
07F680
0D8CC0
18C860
305040
4000C0
083FE0
0FF0C0
0630C0
063180
063180
063FC0
07F000
060010
060010
060018
070018
03FFFC
01FFF8
000000
ENDCHAR

STARTCHAR B0CB
ENCODING 45259
SWIDTH 960 0
DWIDTH 24 0
BBX 24 24 0 -6
BITMAP
000000
003800
001800
001C00
000C00
010C00
018C00
01C600
018600
018600
030300
030300
030300
060180
060180
060180
0C00C0
0C00E0
180060
300078
20007E
400000
000000
000000
ENDCHAR

STARTCHAR B0CC
ENCODING 45260
SWIDTH 960 0
DWIDTH 24 0
BBX 24 24 0 -6
BITMAP
000000
001800
000C00
000418
040FFC
07FC00
030010
430038
3343F0
1B7E30
136630
036630
076620
1B6660
7367F0
267C00
066000
0C6008
0C6008
186008
30700C
203FFE
401FFC
000000
ENDCHAR

STARTCHAR B0CD
ENCODING 45261
SWIDTH 960 0
DWIDTH 24 0
BBX 24 24 0 -6
BITMAP
000000
000000
0800C0
0C1FE0
07F0C0
0630C0
0630C0
063180
063180
063180
0631C0
063FE0
07F000
060000
060000
060010
060010
060018
060018
07001C
03FFFC
01FFF8
000000
000000
ENDCHAR

STARTCHAR B0CE
ENCODING 45262
SWIDTH 960 0
DWIDTH 24 0
BBX 24 24 0 -6
BITMAP
000000
060C00
030660
038730
030618
030610
7F8CFC
337F80
030C00
038C30
070DF8
1F0F30
731830
231E60
031A60
031B40
0331C0
033180
0333C0
136360
0F4660
078C30
02103C
000000
ENDCHAR

STARTCHAR B0CF
ENCODING 45263
SWIDTH 960 0
DWIDTH 24 0
BBX 24 24 0 -6
BITMAP
000000
000C00
002600
23F760
3E6630
186618
18C610
18C6FE
19DF80
3F0C00
130C30
030DF8
330F30
1BD830
1F1E60
1B1B60
1B59C0
1BB0C0
1F31C0
3C6360
70C670
208C38
01103E
000000
ENDCHAR

STARTCHAR B0D0
ENCODING 45264
SWIDTH 960 0
DWIDTH 24 0
BBX 24 24 0 -6
BITMAP
000000
084000
0C6000
0C6018
0FF47C
7CC7D8
0CC658
1FE658
0B0658
033690
23FEB0
3F36B0
1B26F8
1BF780
3F0600
132600
03F608
7F0608
23060C
03070C
0703FE
0301FE
010000
000000
ENDCHAR

STARTCHAR B0D1
ENCODING 45265
SWIDTH 960 0
DWIDTH 24 0
BBX 24 24 0 -6
BITMAP
000000
0C0000
060030
0741F8
067F30
063330
063330
07B320
7E3360
263360
063340
06F3F0
073F00
1E3000
763000
263000
063008
063008
06300C
26300C
1E3FFE
0E1FFE
040000
000000
ENDCHAR

STARTCHAR B0D2
ENCODING 45266
SWIDTH 960 0
DWIDTH 24 0
BBX 24 24 0 -6
BITMAP
000000
060008
03101C
0318F8
03EF98
3F0C98
130C98
03EC98
1F0CB0
032CB0
03FCB0
7F0CB0
270CF8
078F80
0F4C00
0F6C08
1B4C08
330C0C
230C0C
430E0E
0707FE
0303FC
010000
000000
ENDCHAR

STARTCHAR B0D3
ENCODING 45267
SWIDTH 960 0
DWIDTH 24 0
BBX 24 24 0 -6
BITMAP
000000
0C0010
0643F8
077E30
063030
063030
063230
063330
07B3B0
7E3330
263330
063330
063330
063330
07B370
0F7330
3C3610
701680
200C60
000C38
00181C
00700C
01C004
000000
ENDCHAR

STARTCHAR B0D4
ENCODING 45268
SWIDTH 960 0
DWIDTH 24 0
BBX 24 24 0 -6
BITMAP
000000
000FE0
07F80C
081FFE
0FF80C
181BE8
3BD800
101BE0
03C818
0474FC
3FC798
048618
072698
01F7D8
1F2618
092618
09F698
1F07D8
01F618
7F0CD8
210C78
031838
011010
000000
ENDCHAR

STARTCHAR B0D5
ENCODING 45269
SWIDTH 960 0
DWIDTH 24 0
BBX 24 24 0 -6
BITMAP
000000
000060
0407F0
07FE60
032660
0326C0
0326C0
033FE0
07F000
031800
011860
001FF0
0FF800
041818
001BFC
01FE00
7F3000
206080
006060
00C3F0
019F38
07F018
030010
000000
ENDCHAR

STARTCHAR B0D6
ENCODING 45270
SWIDTH 960 0
DWIDTH 24 0
BBX 24 24 0 -6
BITMAP
000000
0040C0
00E070
00C130
018190
036300
063600
081C00
003600
006380
01C0E0
030078
061FDE
1BF8C0
7318C0
031980
031FC0
03F810
030010
030018
03801C
01FFFC
00FFF8
000000
ENDCHAR

STARTCHAR B0D7
ENCODING 45271
SWIDTH 960 0
DWIDTH 24 0
BBX 24 24 0 -6
BITMAP
000000
002000
003800
003000
006030
184FF8
1FF830
0C0030
0C0030
0C0030
0C0030
0C0630
0C3F30
0FE030
0C0030
0C0030
0C0030
0C01B0
0C3FF0
0FE070
1C0030
0C0020
040000
000000
ENDCHAR

STARTCHAR B0D8
ENCODING 45272
SWIDTH 960 0
DWIDTH 24 0
BBX 24 24 0 -6
BITMAP
000000
060200
030300
038380
030300
030618
0334FC
03DF98
7F1818
079818
07D818
0F7818
0F5898
1B1FD8
1B1818
331818
231818
431818
0318D8
031FF8
073E38
031810
010800
000000
ENDCHAR

STARTCHAR B0D9
ENCODING 45273
SWIDTH 960 0
DWIDTH 24 0
BBX 24 24 0 -6
BITMAP
000000
000000
000018
003FFC
3FF800
181C00
001800
0030C0
042FE0
07FCC0
0300C0
0300C0
0304C0
033EC0
03E0C0
0300C0
0300C0
0300C0
033FC0
03F180
070180
030080
010000
000000
ENDCHAR

STARTCHAR B0DA
ENCODING 45274
SWIDTH 960 0
DWIDTH 24 0
BBX 24 24 0 -6
BITMAP
000000
180008
0C83FC
0EFE98
0C6498
0C64B0
0F64B0
7C65F8
2CFF00
0C4300
0C0310
0D83F8
0F3F00
1C1300
7C0304
2C03FE
0DFF00
0CC600
0C0CC0
6C1860
3C33F0
1CFE38
086010
000000
ENDCHAR

STARTCHAR B0DB
ENCODING 45275
SWIDTH 960 0
DWIDTH 24 0
BBX 24 24 0 -6
BITMAP
000000
010000
018000
03C00C
0381FE
077F80
063300
0E0300
1E0630
3645F8
267F30
463030
063030
063030
063330
063FB0
063830
063030
063030
0633F0
0E7E70
063020
021000
000000
ENDCHAR

STARTCHAR B0DC
ENCODING 45276
SWIDTH 960 0
DWIDTH 24 0
BBX 24 24 0 -6
BITMAP
000000
000200
002300
23F380
3E6300
186300
186604
1A667E
1B67E0
1BE630
1B6C30
1B6C30
1B6E30
3B6A60
1B7360
0B21C0
0301C0
0681C0
06C360
0C6360
184630
300C38
40383E
000000
ENDCHAR

STARTCHAR B0DD
ENCODING 45277
SWIDTH 960 0
DWIDTH 24 0
BBX 24 24 0 -6
BITMAP
000000
004000
00E008
03F0FC
0F9F80
3D8990
0181F8
018F80
01E580
1F8190
0981F8
01AF80
01F580
078184
7D81FE
21BF80
031180
030180
060180
060180
0C0380
080180
100080
000000
ENDCHAR

STARTCHAR B0DE
ENCODING 45278
SWIDTH 960 0
DWIDTH 24 0
BBX 24 24 0 -6
BITMAP
000000
008200
01C304
03E60E
0F24FC
3B3F8C
03318C
0331EC
03FF18
7F3318
27337C
0F3FC0
0FA680
1B4CC0
1B48CC
3310FE
237FC0
4320C0
0300C0
0300C0
0701C0
0300C0
010040
000000
ENDCHAR

STARTCHAR B0DF
ENCODING 45279
SWIDTH 960 0
DWIDTH 24 0
BBX 24 24 0 -6
BITMAP
000000
002000
001800
000C08
00087C
07C3E0
7E0060
261F60
06F460
060660
060668
3FA67C
1617E0
061C60
060C60
061E60
06DB60
0F3160
783164
20607E
00C7C0
018200
020000
000000
ENDCHAR

STARTCHAR B0E0
ENCODING 45280
SWIDTH 960 0
DWIDTH 24 0
BBX 24 24 0 -6
BITMAP
000000
001800
000C08
000E7C
03CDE0
7E0C60
262C60
062C60
062C60
076C60
3E6C68
16CC7C
06CDE0
065860
061860
061860
07B060
1E3060
786064
20C07E
018FE0
030400
040000
000000
ENDCHAR

STARTCHAR B0E1
ENCODING 45281
SWIDTH 960 0
DWIDTH 24 0
BBX 24 24 0 -6
BITMAP
000000
182210
0C33F8
0E61B0
0DFDB0
0C89B0
0EC9B0
7CA9B0
2CBB3C
0CAA1E
0E8C00
1CF87C
7F8BD8
2CC818
0CBB10
0CA9B0
0C88A0
0C88E0
0C88E0
4D88B0
3D4998
1E391C
081A1E
000000
ENDCHAR

STARTCHAR B0E2
ENCODING 45282
SWIDTH 960 0
DWIDTH 24 0
BBX 24 24 0 -6
BITMAP
000000
060010
030038
0380FC
0333E0
031F00
03D800
7F1810
2318F8
031FB0
035830
039860
071860
1B3660
7332C0
2333C0
033180
033380
0363C0
136660
0F4C70
079838
02203E
000000
ENDCHAR

STARTCHAR B0E3
ENCODING 45283
SWIDTH 960 0
DWIDTH 24 0
BBX 24 24 0 -6
BITMAP
000000
020020
030C70
0627E0
15F660
1F6660
0C6660
0E6660
0D6C78
0DE83C
0D7000
0FE0FC
7C6F98
2E6030
0D6630
0DE260
0D6360
0C61C0
186180
1B61C0
31E360
20E638
40483E
000000
ENDCHAR

STARTCHAR B0E4
ENCODING 45284
SWIDTH 960 0
DWIDTH 24 0
BBX 24 24 0 -6
BITMAP
000000
020004
0900FE
0D9FC0
0CC8C0
186198
1831FC
302F18
20CC18
47ED18
3CCD98
0CCDD8
0CCD98
0CCD98
0CCD98
199DB8
198D98
3187C8
318360
298638
470C1C
02380C
00E004
000000
ENDCHAR

STARTCHAR B0E5
ENCODING 45285
SWIDTH 960 0
DWIDTH 24 0
BBX 24 24 0 -6
BITMAP
000000
0C0020
060070
0720F8
063380
061E00
061800
07D818
7E18FC
2E1F98
0F9818
1ED830
1E5830
365E60
363A60
263340
6631C0
466180
0663C0
06C360
0E8670
070C38
02303E
000000
ENDCHAR

STARTCHAR B0E6
ENCODING 45286
SWIDTH 960 0
DWIDTH 24 0
BBX 24 24 0 -6
BITMAP
000000
018000
30C018
18E07C
1CC9E0
18CF80
18C600
18C60C
18C67E
1FE7CC
18060C
184618
1FEC18
18CF18
18CDB0
18CCB0
18CCE0
30D860
30D8F0
30D0D0
61F198
40E30C
00460E
000000
ENDCHAR

STARTCHAR B0E7
ENCODING 45287
SWIDTH 960 0
DWIDTH 24 0
BBX 24 24 0 -6
BITMAP
000000
0C01C0
0608C0
070CC0
060E60
060C60
061C30
07D830
7E1818
263018
06203C
0641FE
07BF30
1E0630
760630
260630
060C30
060C60
061860
261860
1E32C0
0E61C0
04C080
000000
ENDCHAR

STARTCHAR B0E8
ENCODING 45288
SWIDTH 960 0
DWIDTH 24 0
BBX 24 24 0 -6
BITMAP
000000
060300
030180
0381C8
03119C
030998
03EDB0
3F05A0
1305C8
0301FC
033F80
03D180
0F0184
3B01FE
137F80
032180
030180
030180
030180
1B0180
0F0380
070180
020080
000000
ENDCHAR

STARTCHAR B0E9
ENCODING 45289
SWIDTH 960 0
DWIDTH 24 0
BBX 24 24 0 -6
BITMAP
000000
010600
018300
03C3A0
03A330
073360
061B40
0E0B80
1E0B10
3603F8
267F00
462300
060304
0603FE
06FF00
064300
060300
060300
060300
060300
0E0700
060300
020100
000000
ENDCHAR

STARTCHAR B0EA
ENCODING 45290
SWIDTH 960 0
DWIDTH 24 0
BBX 24 24 0 -6
BITMAP
000000
080040
040360
069E30
02F420
00543C
0FD5E0
795408
13548C
1A5450
07543E
7C56F0
2C5230
0C5230
0F523C
7CD3F0
0C9930
189530
199F30
3175B0
3221F0
600030
400010
000000
ENDCHAR

STARTCHAR B0EB
ENCODING 45291
SWIDTH 960 0
DWIDTH 24 0
BBX 24 24 0 -6
BITMAP
000000
003000
001800
001C80
0618E0
0319C0
019980
00D900
009A30
001FF8
1FF800
081800
001818
001FFC
3FF800
101800
001800
001800
001800
001800
003800
001800
000800
000000
ENDCHAR

STARTCHAR B0EC
ENCODING 45292
SWIDTH 960 0
DWIDTH 24 0
BBX 24 24 0 -6
BITMAP
000000
006000
003000
003800
003000
0030C0
003FE0
1FF0C0
0C30C0
0030C0
006180
0461A0
046190
0CC198
0CC30C
18C30C
098308
018600
030600
036600
063C00
0C1C00
100800
000000
ENDCHAR

STARTCHAR B0ED
ENCODING 45293
SWIDTH 960 0
DWIDTH 24 0
BBX 24 24 0 -6
BITMAP
000000
000300
040180
0621C0
071190
0E19B8
0C8DB0
18CDE0
3189C0
7F0190
2601F8
0C3F80
139184
7E01FE
307F80
002180
018180
070180
1C0180
700180
200380
000180
000080
000000
ENDCHAR

STARTCHAR B0EE
ENCODING 45294
SWIDTH 960 0
DWIDTH 24 0
BBX 24 24 0 -6
BITMAP
000000
030008
01867C
01C3D8
018318
01FB30
1F8330
098360
018360
01F330
1F8318
018318
01830C
01FB0C
3F03CC
130378
030338
060310
060300
0C0300
180700
300300
400100
000000
ENDCHAR

STARTCHAR B0EF
ENCODING 45295
SWIDTH 960 0
DWIDTH 24 0
BBX 24 24 0 -6
BITMAP
000000
030478
0197D8
01FB30
1F8360
018340
01F330
1F8318
030398
03FB70
7F0320
263300
061960
0C1FF0
1BF860
231860
0318C0
071AC0
0319C0
011880
003800
001800
000800
000000
ENDCHAR

STARTCHAR B0F0
ENCODING 45296
SWIDTH 960 0
DWIDTH 24 0
BBX 24 24 0 -6
BITMAP
000000
0C1804
060C9E
070EF4
060CC4
060ECC
06BCC8
07CCD8
7E0CD0
0F0FD8
0FBCCC
1ECCC6
168CC6
160FC6
27F8C6
2698EC
4618DC
0630C8
0630C0
0660C0
0E41C0
0680C0
020040
000000
ENDCHAR

STARTCHAR B0F1
ENCODING 45297
SWIDTH 960 0
DWIDTH 24 0
BBX 24 24 0 -6
BITMAP
000000
0C0300
060180
070108
0601FC
067F40
060860
078CC0
7E2684
2F24FE
0F7F8C
1EE210
1E4304
16017E
367FC0
260C30
460CF8
060FB0
061830
061860
0E3260
0661E0
0280C0
000000
ENDCHAR

STARTCHAR B0F2
ENCODING 45298
SWIDTH 960 0
DWIDTH 24 0
BBX 24 24 0 -6
BITMAP
000000
008300
21C188
3F81FC
19BF40
198860
198C40
198684
1FA4FE
19BF8C
19E418
19A300
19817C
1FBFC0
198610
1986F8
1987B0
198C30
318C60
319860
259B60
63B1C0
414080
000000
ENDCHAR

STARTCHAR B0F3
ENCODING 45299
SWIDTH 960 0
DWIDTH 24 0
BBX 24 24 0 -6
BITMAP
000000
043004
06193E
071DEC
0E198C
0C1F98
197998
1199B0
2319A0
7E1FB0
2C7998
18198C
27198C
7C1F86
20F9C6
0031E6
03B1BC
0E3198
786190
206180
00C380
018180
020080
000000
ENDCHAR

STARTCHAR B0F4
ENCODING 45300
SWIDTH 960 0
DWIDTH 24 0
BBX 24 24 0 -6
BITMAP
000000
0C0200
060310
0703F8
067F00
062600
0787F0
7E3E00
260C08
0F0DFC
0EFF80
1E98C0
163460
366630
2647B8
66BE1C
47062E
0607F0
06FE00
064600
0E0E00
060600
020200
000000
ENDCHAR

STARTCHAR B0F5
ENCODING 45301
SWIDTH 960 0
DWIDTH 24 0
BBX 24 24 0 -6
BITMAP
000000
000300
000188
0000FC
00BF80
07D040
7C1860
2C0C84
0C49FE
187F04
18C208
394300
3F81FC
79BF80
599610
1906F8
1B07B0
3F8C30
180C30
081860
001B60
0030C0
004080
000000
ENDCHAR

STARTCHAR B0F6
ENCODING 45302
SWIDTH 960 0
DWIDTH 24 0
BBX 24 24 0 -6
BITMAP
000000
000080
0600C0
0300E0
0380C8
4300FC
632FC0
33F4C0
3F20D0
3360F8
334FC0
3344C0
33E0C0
7F00C4
3380FE
135FC0
03E8C0
0F70C0
7830C0
2020C0
0001C0
0000C0
000040
000000
ENDCHAR

STARTCHAR B0F7
ENCODING 45303
SWIDTH 960 0
DWIDTH 24 0
BBX 24 24 0 -6
BITMAP
000000
040300
070188
0601FC
067F00
0C2040
0F8860
180C44
1024FE
27BF8C
7E6408
064300
0601FC
07BF00
7E0610
2606F8
060FB0
060C60
065860
0798C0
0734C0
0E6380
048100
000000
ENDCHAR

STARTCHAR B0F8
ENCODING 45304
SWIDTH 960 0
DWIDTH 24 0
BBX 24 24 0 -6
BITMAP
000000
020600
030300
078210
0707F8
0EFC80
1C50C0
3C188C
6C89FE
4CFF0C
0D8418
0C8600
0C03F8
0CFE00
0C0C20
0C0DF0
0C0F60
0C1860
0C18C0
0C30C0
1C64C0
0CC380
050100
000000
ENDCHAR

STARTCHAR B0F9
ENCODING 45305
SWIDTH 960 0
DWIDTH 24 0
BBX 24 24 0 -6
BITMAP
000000
000600
100108
0C03FC
067E40
0618E0
040C8C
00857E
049FCC
0FF408
7D8610
2C8300
0C02FC
0CFF80
0C4820
0C0DF0
0C9F60
0D1860
0E3060
1C30C0
0866C0
00C380
010100
000000
ENDCHAR

STARTCHAR B0FA
ENCODING 45306
SWIDTH 960 0
DWIDTH 24 0
BBX 24 24 0 -6
BITMAP
000200
018300
00C308
00C3FC
3FFF00
10C600
024400
0300C0
071FE0
07F0C0
0E00C0
0C04C0
1A3EC0
33ED80
230D80
431980
037980
03CD90
030710
030218
030018
03FFFC
01FFF8
000000
ENDCHAR

STARTCHAR B0FB
ENCODING 45307
SWIDTH 960 0
DWIDTH 24 0
BBX 24 24 0 -6
BITMAP
000000
004400
10E600
1FC608
0CCCFC
0CCF98
0CCC18
0CD818
0CD818
0FD198
0CFFD8
0CD998
0CD930
0FDBB0
0CDE30
0CD830
18D960
18D8E8
18D848
36D80C
33D80E
61DFFE
408FFC
000000
ENDCHAR

STARTCHAR B0FC
ENCODING 45308
SWIDTH 960 0
DWIDTH 24 0
BBX 24 24 0 -6
BITMAP
000000
008000
00C000
01C060
018FF0
03FC60
06C060
060060
0C0C60
1A7EC0
33CCC0
430CC0
0318C0
0318C0
037D80
03C180
030D80
030710
030210
030018
030018
03FFFC
01FFF8
000000
ENDCHAR

STARTCHAR B0FD
ENCODING 45309
SWIDTH 960 0
DWIDTH 24 0
BBX 24 24 0 -6
BITMAP
000000
003000
001818
000FFC
7FF800
2207C0
033CC0
03A3C0
077E10
0E07F8
1EFE00
361F80
4636E0
066638
0E9A18
063088
0268C0
01C580
03C300
06D180
18E0E0
61C078
00803E
000000
ENDCHAR

STARTCHAR B0FE
ENCODING 45310
SWIDTH 960 0
DWIDTH 24 0
BBX 24 24 0 -6
BITMAP
000000
000C30
00FE18
0F8C1C
040C18
007D18
07D998
0219D8
001998
007D98
3FC198
00C598
0CCD98
06D998
02E398
00C198
06D098
1CCC18
70C618
24C2D8
03C078
01C038
008010
000000
ENDCHAR

STARTCHAR B1A1
ENCODING 45473
SWIDTH 960 0
DWIDTH 24 0
BBX 24 24 0 -6
BITMAP
000000
00C200
006304
0067FE
1FFE80
086460
002328
0803FC
06FF00
0203F0
207F30
1163B0
196F30
0B63B0
026F30
062314
0401FE
0DFFC0
4C40C0
3860C0
1832C0
1021C0
000080
000000
ENDCHAR

STARTCHAR B1A2
ENCODING 45474
SWIDTH 960 0
DWIDTH 24 0
BBX 24 24 0 -6
BITMAP
000000
001FE0
07F804
081FFE
0FF80C
181818
181BD0
37D800
101BC0
07D800
008020
018FF0
03F860
060660
0F3E60
19E6C0
3184C8
41BEC8
01E08C
01838C
01810E
01FFFE
00FFFC
000000
ENDCHAR

STARTCHAR B1A3
ENCODING 45475
SWIDTH 960 0
DWIDTH 24 0
BBX 24 24 0 -6
BITMAP
000000
020020
0323F0
07BE60
071860
0E18C0
0C18C0
1C19E0
3C3F00
2C1300
4C0318
0C03FC
0DFF00
0CCF80
0C1BC0
0C1B40
0C3360
0C3330
0C631C
0CC31E
1D8700
0E0300
040100
000000
ENDCHAR

STARTCHAR B1A4
ENCODING 45476
SWIDTH 960 0
DWIDTH 24 0
BBX 24 24 0 -6
BITMAP
000000
020020
0323F0
03BE60
0730C0
0E33E0
1E7E00
362620
4607F0
06FF00
061E80
063660
066638
0EC61E
073600
021A00
001840
001FE0
07F800
021818
001FFC
3FF000
100000
000000
ENDCHAR

STARTCHAR B1A5
ENCODING 45477
SWIDTH 960 0
DWIDTH 24 0
BBX 24 24 0 -6
BITMAP
000000
040400
060600
070700
060600
0E0E18
0C4CFC
1BFF98
1ED818
30B098
2CB3D8
467DB0
0699B0
061930
061FB0
061830
0618E0
061860
065804
079804
071C06
0E0FFE
0407FC
000000
ENDCHAR

STARTCHAR B1A6
ENCODING 45478
SWIDTH 960 0
DWIDTH 24 0
BBX 24 24 0 -6
BITMAP
000000
003000
001800
001C00
000800
00000C
0807FE
0FFC18
180010
1800C0
301FE0
17F800
021800
001800
001980
001FC0
03F800
011B00
001980
001918
001FFC
1FF800
080000
000000
ENDCHAR

STARTCHAR B1A7
ENCODING 45479
SWIDTH 960 0
DWIDTH 24 0
BBX 24 24 0 -6
BITMAP
000000
060800
030C00
038E00
030C18
031CFC
03DF98
3F1818
133198
0337D8
033D98
03D998
071998
1B1BB0
731E30
2318B0
031870
031828
031808
13180C
0F1FFC
070FF8
020000
000000
ENDCHAR

STARTCHAR B1A8
ENCODING 45480
SWIDTH 960 0
DWIDTH 24 0
BBX 24 24 0 -6
BITMAP
000000
0C0000
060010
0743F8
067E30
063030
063060
07F460
7E3360
2631C0
063090
07B1F8
1E3F30
763030
263860
063460
0636C0
0633C0
063180
2631C0
167360
0E3670
04183C
000000
ENDCHAR

ENDFONT
